<?xml version="1.0" encoding="UTF-8"?>
<svg id="Layer_2" data-name="Layer 2" xmlns="http://www.w3.org/2000/svg" xmlns:xlink="http://www.w3.org/1999/xlink" viewBox="0 0 262.85 152.62">
  <defs>
    <style>
      .cls-1 {
        filter: url(#drop-shadow-1);
      }

      .cls-2 {
        filter: url(#drop-shadow-2);
      }

      .cls-3 {
        fill: #231f20;
      }

      .cls-4 {
        fill: #fff;
      }

      .cls-5 {
        fill: #706466;
      }

      .cls-6 {
        fill: #3d3637;
      }

      .cls-7 {
        fill: #574d4f;
      }
    </style>
    <filter id="drop-shadow-1" x="103.02" y="19.37" width="156.96" height="54.96" filterUnits="userSpaceOnUse">
      <feOffset dx="0" dy="7.2"/>
      <feGaussianBlur result="blur" stdDeviation="3.6"/>
      <feFlood flood-color="#231f20" flood-opacity=".75"/>
      <feComposite in2="blur" operator="in"/>
      <feComposite in="SourceGraphic"/>
    </filter>
    <filter id="drop-shadow-2" x="88.86" y="93.53" width="171.12" height="59.52" filterUnits="userSpaceOnUse">
      <feOffset dx="0" dy="7.2"/>
      <feGaussianBlur result="blur-2" stdDeviation="3.6"/>
      <feFlood flood-color="#231f20" flood-opacity=".75"/>
      <feComposite in2="blur-2" operator="in"/>
      <feComposite in="SourceGraphic"/>
    </filter>
  </defs>
  <g id="Layer_1-2" data-name="Layer 1">
    <g id="Card_1" data-name="Card 1">
      <rect class="cls-5" width="262.85" height="152.62"/>
      <rect class="cls-7" y="68.58" width="262.85" height="12.31"/>
      <circle class="cls-7" cx="61.56" cy="75.71" r="51.9"/>
      <rect class="cls-6" y="72.56" width="262.85" height="4.34"/>
      <circle class="cls-6" cx="61.56" cy="75.71" r="47.99"/>
      <circle class="cls-3" cx="61.56" cy="75.71" r="44.21"/>
      <g class="cls-1">
        <g>
          <path class="cls-4" d="M126.28,36.29c-.14.74-.86,3.24-1.1,3.98h-11.16v-.67c2.18-.22,2.38-.34,2.38-2.38v-9.53c0-2.04-.24-2.16-2.16-2.35v-.67h6.43v.67c-1.92.19-2.18.29-2.18,2.35v9.77c0,1.46.19,1.8,1.56,1.82.02,0,1.75.02,1.9.02,1.22,0,1.58-.14,2.14-.74.6-.62,1.1-1.58,1.46-2.47l.74.19Z"/>
          <path class="cls-4" d="M138.85,39.72c-1.15.17-2.45.48-3.67.84v-1.85c-1.3,1.08-2.35,1.85-3.67,1.85-1.61,0-3-.98-3-3.6v-4.66c0-1.3-.19-1.44-.79-1.56l-.67-.12v-.62c1.03-.05,2.62-.29,3.43-.43-.07.77-.07,1.92-.07,3.5v3.26c0,2.11,1.1,2.71,2.18,2.71.89,0,1.78-.38,2.59-1.15v-5.59c0-1.3-.29-1.46-1.1-1.58l-.77-.1v-.62c1.54-.07,3.22-.34,3.77-.43v8.04c0,1.2.19,1.37,1.1,1.42l.67.02v.67Z"/>
          <path class="cls-4" d="M151.72,40.27c-1.3,0-2.71.02-3.22.05-.14-.17-3.91-4.63-4.06-4.78-.34-.38-.48-.5-.7-.5-.1,0-.29,0-.43.05v2.67c0,1.61.12,1.7,1.68,1.85v.67h-5.3v-.67c1.61-.14,1.73-.31,1.73-1.85v-11.47c0-1.56-.17-1.61-1.66-1.82v-.62c1.25-.12,2.69-.48,3.55-.82v11.45c.72-.17,1.18-.46,1.54-.84.55-.55,1.44-1.63,1.85-2.23.5-.7.31-.89-.84-.98v-.67l4.94-.22v.65c-1.68.26-2.16.46-3.19,1.54-.46.48-1.54,1.7-2.04,2.33.48.67,2.93,3.46,3.72,4.3,1.15,1.15,1.49,1.22,2.42,1.27v.67Z"/>
          <path class="cls-4" d="M160.72,38.23c-1.54,1.92-3.22,2.33-3.98,2.33-2.93,0-4.7-2.4-4.7-5.16,0-1.63.58-3.14,1.56-4.2,1.01-1.13,2.33-1.75,3.58-1.75,2.09,0,3.67,1.8,3.67,3.72-.02.48-.1.7-.48.79-.48.1-3.55.31-6.41.41-.07,3.22,1.9,4.54,3.6,4.54.98,0,1.9-.41,2.78-1.22l.38.55ZM156.59,30.36c-1.1,0-2.18,1.03-2.52,2.98,1.34,0,2.69,0,4.1-.07.43,0,.58-.12.58-.48.02-1.27-.82-2.42-2.16-2.42Z"/>
          <path class="cls-4" d="M180.2,36.29c-.14.74-.86,3.24-1.1,3.98h-11.16v-.67c2.18-.22,2.38-.34,2.38-2.38v-9.53c0-2.04-.24-2.16-2.16-2.35v-.67h6.43v.67c-1.92.19-2.18.29-2.18,2.35v9.77c0,1.46.19,1.8,1.56,1.82.02,0,1.75.02,1.9.02,1.22,0,1.58-.14,2.14-.74.6-.62,1.1-1.58,1.46-2.47l.74.19Z"/>
          <path class="cls-4" d="M189.52,40.56c-.36,0-.89-.19-1.13-.46-.31-.31-.46-.65-.58-1.08-.96.65-2.14,1.54-2.88,1.54-1.7,0-2.93-1.42-2.93-2.95,0-1.18.65-1.94,1.97-2.4,1.46-.5,3.26-1.13,3.79-1.56v-.48c0-1.7-.86-2.69-2.11-2.69-.55,0-.89.26-1.13.55-.26.34-.43.86-.65,1.56-.12.38-.34.55-.7.55-.46,0-1.06-.48-1.06-1.06,0-.34.31-.62.79-.96.7-.5,2.09-1.39,3.46-1.68.72,0,1.46.22,2.02.65.84.72,1.22,1.54,1.22,2.78v4.63c0,1.1.41,1.44.84,1.44.29,0,.6-.12.86-.26l.24.67-2.04,1.2ZM187.76,34.49c-.53.26-1.68.77-2.23,1.01-.91.41-1.46.86-1.46,1.75,0,1.27.96,1.85,1.73,1.85.62,0,1.49-.38,1.97-.86v-3.74Z"/>
          <path class="cls-4" d="M199.45,40.27v-.67c1.39-.14,1.54-.31,1.54-1.94v-3.96c0-1.68-.6-2.81-2.18-2.81-.98,0-1.92.58-2.67,1.25v5.62c0,1.66.14,1.7,1.56,1.85v.67h-5.18v-.67c1.58-.17,1.73-.26,1.73-1.85v-4.95c0-1.56-.17-1.63-1.46-1.85v-.62c1.18-.19,2.35-.5,3.36-.96v1.9c.48-.34,1.01-.7,1.63-1.1.67-.43,1.3-.72,1.99-.72,1.92,0,3.12,1.42,3.12,3.74v4.56c0,1.63.14,1.7,1.54,1.85v.67h-4.97Z"/>
          <path class="cls-4" d="M212.72,40.27v-.67c1.39-.14,1.54-.31,1.54-1.94v-3.96c0-1.68-.6-2.81-2.18-2.81-.98,0-1.92.58-2.66,1.25v5.62c0,1.66.14,1.7,1.56,1.85v.67h-5.18v-.67c1.58-.17,1.73-.26,1.73-1.85v-4.95c0-1.56-.17-1.63-1.46-1.85v-.62c1.18-.19,2.35-.5,3.36-.96v1.9c.48-.34,1.01-.7,1.63-1.1.67-.43,1.3-.72,1.99-.72,1.92,0,3.12,1.42,3.12,3.74v4.56c0,1.63.14,1.7,1.54,1.85v.67h-4.97Z"/>
          <path class="cls-4" d="M219.08,40.27v-.67c1.51-.14,1.68-.26,1.68-1.9v-4.94c0-1.49-.07-1.58-1.51-1.82v-.58c1.25-.22,2.38-.53,3.41-.96v8.3c0,1.63.17,1.75,1.73,1.9v.67h-5.3ZM221.58,27.05c-.67,0-1.27-.6-1.27-1.27,0-.77.6-1.32,1.3-1.32s1.22.55,1.22,1.32c0,.67-.55,1.27-1.25,1.27Z"/>
          <path class="cls-4" d="M232.5,40.27v-.67c1.39-.14,1.54-.31,1.54-1.94v-3.96c0-1.68-.6-2.81-2.18-2.81-.98,0-1.92.58-2.66,1.25v5.62c0,1.66.14,1.7,1.56,1.85v.67h-5.18v-.67c1.58-.17,1.73-.26,1.73-1.85v-4.95c0-1.56-.17-1.63-1.46-1.85v-.62c1.18-.19,2.35-.5,3.36-.96v1.9c.48-.34,1.01-.7,1.63-1.1.67-.43,1.3-.72,1.99-.72,1.92,0,3.12,1.42,3.12,3.74v4.56c0,1.63.14,1.7,1.54,1.85v.67h-4.97Z"/>
          <path class="cls-4" d="M242.05,36.77c-.58.46-.79.91-.79,1.2,0,.43.41.91,1.49.91.89,0,1.9-.02,2.69-.02,1.54,0,3.5.5,3.5,2.88,0,2.5-2.95,4.85-6.14,4.85-2.71,0-4.18-1.58-4.22-3,0-.53.22-.98.6-1.37.48-.5,1.42-1.3,1.97-1.73-.86-.24-1.49-.79-1.8-1.3-.22-.36-.29-.79-.29-1.03.91-.34,1.73-1.01,2.21-1.66l.79.26ZM243.2,37.01c-2.23,0-4.08-1.37-4.08-3.62,0-2.74,2.45-4.01,4.32-4.01.79,0,1.58.22,2.3.6,1.1,0,2.54-.19,3.22-.36l.14.22c-.14.38-.53,1.06-.89,1.27-.36,0-1.15-.1-1.49-.12.41.55.7,1.32.7,2.18,0,2.62-2.16,3.84-4.22,3.84ZM243.75,40.56c-1.18,0-1.7.14-2.14.5-.67.55-1.15,1.27-1.15,1.97,0,1.32,1.37,2.3,3.22,2.3,2.28,0,3.58-1.18,3.58-2.71,0-.82-.38-1.46-1.06-1.75-.6-.26-1.44-.31-2.45-.31ZM243.2,30.14c-1.08,0-2.04.98-2.04,2.88s.96,3.22,2.28,3.22c1.06-.05,1.99-.94,1.99-2.88s-.89-3.22-2.23-3.22Z"/>
        </g>
        <g>
          <path class="cls-4" d="M180.83,53.27c.35.22.86.4,1.4.4.8,0,1.27-.42,1.27-1.04,0-.57-.32-.89-1.14-1.21-.99-.35-1.6-.86-1.6-1.72,0-.95.78-1.65,1.96-1.65.62,0,1.07.14,1.34.3l-.22.64c-.2-.11-.6-.29-1.15-.29-.83,0-1.14.5-1.14.91,0,.57.37.85,1.21,1.17,1.03.4,1.55.89,1.55,1.78,0,.94-.69,1.75-2.12,1.75-.59,0-1.22-.17-1.55-.39l.2-.66Z"/>
          <path class="cls-4" d="M189.34,52.01c0,1.61-1.12,2.31-2.17,2.31-1.18,0-2.09-.86-2.09-2.24,0-1.46.95-2.31,2.16-2.31s2.1.91,2.1,2.24ZM185.89,52.05c0,.95.55,1.67,1.32,1.67s1.32-.71,1.32-1.69c0-.74-.37-1.67-1.3-1.67s-1.34.86-1.34,1.69Z"/>
          <path class="cls-4" d="M190.42,54.22v-3.75h-.61v-.6h.61v-.21c0-.61.13-1.17.5-1.52.3-.29.69-.4,1.06-.4.28,0,.52.06.68.13l-.11.61c-.12-.05-.28-.1-.5-.1-.68,0-.85.59-.85,1.26v.23h1.05v.6h-1.05v3.75h-.78Z"/>
          <path class="cls-4" d="M194.02,48.61v1.25h1.13v.6h-1.13v2.35c0,.54.15.85.59.85.21,0,.36-.03.46-.05l.04.59c-.15.06-.4.11-.7.11-.37,0-.67-.12-.86-.33-.22-.23-.31-.62-.31-1.13v-2.38h-.68v-.6h.68v-1.04l.77-.21Z"/>
          <path class="cls-4" d="M196.44,49.87l.58,2.21c.13.49.24.94.32,1.39h.03c.1-.44.24-.91.39-1.38l.71-2.22h.67l.67,2.18c.16.52.29.98.39,1.42h.03c.07-.44.19-.9.33-1.41l.62-2.19h.78l-1.4,4.36h-.72l-.67-2.08c-.15-.49-.28-.92-.39-1.43h-.02c-.11.52-.24.97-.4,1.44l-.7,2.07h-.72l-1.31-4.36h.81Z"/>
          <path class="cls-4" d="M205.13,54.22l-.06-.55h-.03c-.24.34-.71.65-1.33.65-.88,0-1.33-.62-1.33-1.25,0-1.05.94-1.63,2.62-1.62v-.09c0-.36-.1-1.01-.99-1.01-.41,0-.83.13-1.13.32l-.18-.52c.36-.23.88-.39,1.43-.39,1.33,0,1.66.91,1.66,1.78v1.63c0,.38.02.75.07,1.04h-.72ZM205.01,52c-.86-.02-1.84.14-1.84.98,0,.51.34.76.75.76.57,0,.93-.36,1.05-.73.03-.08.04-.17.04-.25v-.76Z"/>
          <path class="cls-4" d="M207.06,51.23c0-.51,0-.95-.04-1.36h.69l.03.86h.04c.2-.58.68-.95,1.21-.95.09,0,.15,0,.22.03v.75c-.08-.02-.16-.03-.27-.03-.56,0-.95.42-1.06,1.02-.02.11-.04.23-.04.37v2.32h-.78v-3Z"/>
          <path class="cls-4" d="M210.35,52.19c.02,1.07.7,1.51,1.49,1.51.57,0,.91-.1,1.21-.23l.13.57c-.28.13-.76.27-1.45.27-1.34,0-2.14-.88-2.14-2.2s.77-2.35,2.04-2.35c1.42,0,1.8,1.25,1.8,2.05,0,.16-.02.29-.03.37h-3.06ZM212.67,51.62c0-.5-.21-1.29-1.1-1.29-.8,0-1.15.74-1.22,1.29h2.31Z"/>
          <path class="cls-4" d="M219.49,51.38h-2.36v2.19h2.63v.66h-3.41v-6.07h3.28v.66h-2.49v1.92h2.36v.65Z"/>
          <path class="cls-4" d="M220.75,51.05c0-.45,0-.82-.04-1.18h.7l.04.72h.02c.22-.41.72-.82,1.44-.82.6,0,1.54.36,1.54,1.85v2.6h-.79v-2.51c0-.7-.26-1.29-1.01-1.29-.52,0-.93.37-1.06.81-.04.1-.05.23-.05.37v2.62h-.79v-3.18Z"/>
          <path class="cls-4" d="M229.5,49.87c-.02.32-.04.67-.04,1.2v2.53c0,1-.2,1.61-.62,1.99-.42.4-1.04.52-1.58.52-.52,0-1.1-.13-1.45-.36l.2-.6c.29.18.74.34,1.28.34.81,0,1.4-.42,1.4-1.52v-.49h-.02c-.24.41-.71.73-1.39.73-1.08,0-1.85-.92-1.85-2.12,0-1.48.96-2.31,1.96-2.31.76,0,1.17.4,1.36.76h.02l.04-.66h.69ZM228.68,51.59c0-.13,0-.25-.04-.36-.14-.46-.53-.84-1.11-.84-.76,0-1.3.64-1.3,1.65,0,.86.43,1.57,1.29,1.57.49,0,.93-.31,1.1-.81.05-.13.06-.29.06-.42v-.78Z"/>
          <path class="cls-4" d="M231.61,48.64c0,.27-.19.49-.5.49-.28,0-.48-.22-.48-.49s.21-.5.5-.5.49.22.49.5ZM230.72,54.22v-4.36h.79v4.36h-.79Z"/>
          <path class="cls-4" d="M232.83,51.05c0-.45,0-.82-.04-1.18h.7l.04.72h.02c.22-.41.72-.82,1.44-.82.6,0,1.54.36,1.54,1.85v2.6h-.79v-2.51c0-.7-.26-1.29-1.01-1.29-.52,0-.93.37-1.06.81-.04.1-.05.23-.05.37v2.62h-.79v-3.18Z"/>
          <path class="cls-4" d="M238.27,52.19c.02,1.07.7,1.51,1.5,1.51.57,0,.91-.1,1.21-.23l.13.57c-.28.13-.76.27-1.45.27-1.34,0-2.14-.88-2.14-2.2s.77-2.35,2.04-2.35c1.42,0,1.8,1.25,1.8,2.05,0,.16-.02.29-.03.37h-3.06ZM240.59,51.62c0-.5-.21-1.29-1.1-1.29-.8,0-1.15.74-1.21,1.29h2.31Z"/>
          <path class="cls-4" d="M242.78,52.19c.02,1.07.7,1.51,1.5,1.51.57,0,.91-.1,1.21-.23l.13.57c-.28.13-.76.27-1.45.27-1.34,0-2.14-.88-2.14-2.2s.77-2.35,2.04-2.35c1.42,0,1.8,1.25,1.8,2.05,0,.16-.02.29-.03.37h-3.06ZM245.1,51.62c0-.5-.21-1.29-1.1-1.29-.8,0-1.15.74-1.21,1.29h2.31Z"/>
          <path class="cls-4" d="M246.84,51.23c0-.51,0-.95-.04-1.36h.69l.03.86h.04c.2-.58.68-.95,1.21-.95.09,0,.15,0,.22.03v.75c-.08-.02-.16-.03-.27-.03-.56,0-.95.42-1.06,1.02-.02.11-.04.23-.04.37v2.32h-.78v-3Z"/>
        </g>
      </g>
      <g class="cls-2">
        <g>
          <path class="cls-4" d="M99.67,126.64h.79v2.72h.02c.13-.22.32-.42.57-.56.23-.13.51-.22.81-.22.58,0,1.52.36,1.52,1.86v2.59h-.79v-2.5c0-.7-.26-1.3-1.01-1.3-.51,0-.92.36-1.06.79-.04.11-.05.23-.05.38v2.63h-.79v-6.39Z"/>
          <path class="cls-4" d="M105.58,127.43v1.25h1.13v.6h-1.13v2.35c0,.54.15.85.59.85.21,0,.36-.03.46-.05l.04.59c-.15.06-.4.11-.7.11-.37,0-.67-.12-.85-.33-.23-.23-.31-.62-.31-1.13v-2.38h-.67v-.6h.67v-1.04l.77-.21Z"/>
          <path class="cls-4" d="M108.56,127.43v1.25h1.13v.6h-1.13v2.35c0,.54.15.85.59.85.21,0,.36-.03.46-.05l.04.59c-.15.06-.4.11-.7.11-.37,0-.67-.12-.86-.33-.22-.23-.31-.62-.31-1.13v-2.38h-.68v-.6h.68v-1.04l.77-.21Z"/>
          <path class="cls-4" d="M110.59,130.1c0-.56-.02-1.01-.04-1.42h.71l.04.75h.02c.32-.53.84-.85,1.55-.85,1.05,0,1.85.89,1.85,2.21,0,1.57-.95,2.34-1.98,2.34-.58,0-1.08-.25-1.34-.68h-.02v2.37h-.78v-4.72ZM111.37,131.26c0,.12.02.22.04.32.14.55.62.93,1.19.93.84,0,1.32-.68,1.32-1.68,0-.87-.46-1.62-1.3-1.62-.54,0-1.04.39-1.2.98-.03.1-.05.22-.05.32v.75Z"/>
          <path class="cls-4" d="M115.6,132.23c.23.15.65.31,1.04.31.58,0,.85-.29.85-.65s-.23-.58-.81-.8c-.78-.28-1.15-.71-1.15-1.23,0-.7.57-1.28,1.5-1.28.44,0,.83.13,1.07.27l-.2.58c-.17-.11-.49-.25-.89-.25-.47,0-.73.27-.73.59,0,.36.26.52.83.74.76.29,1.14.67,1.14,1.31,0,.76-.59,1.31-1.63,1.31-.48,0-.92-.12-1.22-.3l.2-.6Z"/>
          <path class="cls-4" d="M119.08,129.4c0-.33.23-.57.54-.57s.52.23.53.57c0,.32-.21.56-.54.56-.32,0-.53-.24-.53-.56ZM119.08,132.58c0-.33.23-.57.54-.57s.52.23.53.57c0,.31-.21.56-.54.56-.32,0-.53-.24-.53-.56Z"/>
          <path class="cls-4" d="M120.47,133.4l2.51-6.53h.61l-2.52,6.53h-.6Z"/>
          <path class="cls-4" d="M123.55,133.4l2.51-6.53h.61l-2.52,6.53h-.6Z"/>
          <path class="cls-4" d="M128.26,127.43v1.25h1.13v.6h-1.13v2.35c0,.54.15.85.59.85.21,0,.36-.03.46-.05l.04.59c-.15.06-.4.11-.7.11-.37,0-.67-.12-.86-.33-.22-.23-.31-.62-.31-1.13v-2.38h-.68v-.6h.68v-1.04l.77-.21Z"/>
          <path class="cls-4" d="M131.17,127.45c0,.27-.19.49-.5.49-.28,0-.48-.22-.48-.49s.21-.5.5-.5.49.22.49.5ZM130.29,133.04v-4.36h.79v4.36h-.79Z"/>
          <path class="cls-4" d="M134.8,133.04l-.06-.55h-.03c-.24.34-.71.65-1.33.65-.88,0-1.33-.62-1.33-1.25,0-1.05.94-1.63,2.62-1.62v-.09c0-.36-.1-1.01-.99-1.01-.41,0-.83.12-1.13.32l-.18-.52c.36-.23.88-.39,1.43-.39,1.33,0,1.66.91,1.66,1.78v1.63c0,.38.02.75.07,1.04h-.72ZM134.69,130.81c-.86-.02-1.85.13-1.85.98,0,.51.34.76.75.76.57,0,.93-.36,1.05-.73.03-.08.04-.17.04-.25v-.76Z"/>
          <path class="cls-4" d="M136.73,126.64h.79v6.39h-.79v-6.39Z"/>
          <path class="cls-4" d="M138.85,126.64h.79v6.39h-.79v-6.39Z"/>
          <path class="cls-4" d="M140.7,132.57c0-.33.22-.57.54-.57s.53.23.53.57-.21.57-.54.57c-.32,0-.53-.24-.53-.57Z"/>
          <path class="cls-4" d="M146.5,128.68c-.02.31-.04.67-.04,1.2v2.53c0,1-.2,1.61-.62,1.99-.42.4-1.04.52-1.58.52-.52,0-1.1-.13-1.45-.36l.2-.6c.29.18.74.34,1.28.34.81,0,1.4-.42,1.4-1.52v-.49h-.02c-.24.41-.71.73-1.39.73-1.08,0-1.85-.92-1.85-2.12,0-1.48.96-2.31,1.96-2.31.76,0,1.17.4,1.36.76h.02l.04-.66h.69ZM145.69,130.4c0-.13,0-.25-.04-.36-.14-.46-.53-.84-1.11-.84-.76,0-1.3.64-1.3,1.65,0,.85.43,1.57,1.29,1.57.49,0,.93-.31,1.1-.81.04-.13.06-.29.06-.42v-.78Z"/>
          <path class="cls-4" d="M148.61,127.45c0,.27-.19.49-.5.49-.28,0-.48-.22-.48-.49s.21-.5.5-.5.49.22.49.5ZM147.73,133.04v-4.36h.79v4.36h-.79Z"/>
          <path class="cls-4" d="M150.79,127.43v1.25h1.13v.6h-1.13v2.35c0,.54.15.85.59.85.21,0,.36-.03.46-.05l.04.59c-.15.06-.4.11-.7.11-.37,0-.67-.12-.85-.33-.23-.23-.31-.62-.31-1.13v-2.38h-.67v-.6h.67v-1.04l.77-.21Z"/>
          <path class="cls-4" d="M152.81,126.64h.79v2.72h.02c.13-.22.32-.42.57-.56.23-.13.51-.22.81-.22.58,0,1.52.36,1.52,1.86v2.59h-.79v-2.5c0-.7-.26-1.3-1.01-1.3-.51,0-.92.36-1.06.79-.04.11-.05.23-.05.38v2.63h-.79v-6.39Z"/>
          <path class="cls-4" d="M161.45,131.85c0,.45,0,.85.04,1.19h-.7l-.04-.71h-.02c-.21.35-.67.81-1.44.81-.68,0-1.5-.38-1.5-1.91v-2.55h.79v2.41c0,.83.25,1.39.97,1.39.53,0,.9-.37,1.04-.72.04-.12.07-.26.07-.4v-2.67h.79v3.17Z"/>
          <path class="cls-4" d="M162.73,133.04c.02-.3.04-.74.04-1.13v-5.27h.78v2.74h.02c.28-.49.78-.8,1.49-.8,1.08,0,1.85.9,1.84,2.22,0,1.56-.98,2.33-1.95,2.33-.63,0-1.13-.24-1.46-.82h-.03l-.04.72h-.68ZM163.55,131.29c0,.1.02.2.04.29.15.55.61.93,1.19.93.83,0,1.32-.68,1.32-1.67,0-.87-.45-1.62-1.3-1.62-.54,0-1.04.37-1.21.97-.02.09-.04.2-.04.32v.78Z"/>
          <path class="cls-4" d="M167.48,132.57c0-.33.22-.57.54-.57s.53.23.53.57-.21.57-.54.57c-.32,0-.53-.24-.53-.57Z"/>
          <path class="cls-4" d="M170.42,127.45c0,.27-.19.49-.5.49-.28,0-.48-.22-.48-.49s.21-.5.5-.5.49.22.49.5ZM169.53,133.04v-4.36h.79v4.36h-.79Z"/>
          <path class="cls-4" d="M175.58,130.82c0,1.61-1.12,2.31-2.17,2.31-1.18,0-2.09-.86-2.09-2.24,0-1.46.95-2.31,2.16-2.31s2.1.91,2.1,2.24ZM172.13,130.87c0,.95.55,1.67,1.32,1.67s1.32-.71,1.32-1.69c0-.74-.37-1.68-1.31-1.68s-1.34.87-1.34,1.69Z"/>
          <path class="cls-4" d="M175.91,133.4l2.51-6.53h.61l-2.52,6.53h-.6Z"/>
          <path class="cls-4" d="M179.7,127.04c.38-.06.87-.12,1.5-.12.77,0,1.34.18,1.7.5.33.29.53.73.53,1.27s-.16.98-.47,1.3c-.41.44-1.09.67-1.85.67-.23,0-.45,0-.63-.05v2.43h-.78v-6ZM180.48,129.97c.17.04.39.06.65.06.95,0,1.52-.46,1.52-1.3s-.57-1.19-1.43-1.19c-.34,0-.6.03-.74.06v2.36Z"/>
          <path class="cls-4" d="M184.67,131c.02,1.07.7,1.51,1.5,1.51.57,0,.91-.1,1.21-.23l.13.57c-.28.13-.76.27-1.45.27-1.34,0-2.14-.88-2.14-2.2s.77-2.35,2.04-2.35c1.42,0,1.8,1.25,1.8,2.05,0,.16-.02.29-.03.37h-3.06ZM187,130.43c0-.5-.21-1.29-1.1-1.29-.8,0-1.15.74-1.21,1.29h2.31Z"/>
          <path class="cls-4" d="M188.74,130.04c0-.51,0-.96-.04-1.36h.69l.03.86h.04c.2-.59.68-.96,1.21-.96.09,0,.15,0,.22.03v.75c-.08-.02-.16-.03-.27-.03-.56,0-.95.42-1.06,1.02-.02.11-.04.23-.04.37v2.32h-.78v-3Z"/>
          <path class="cls-4" d="M191.58,132.23c.23.15.65.31,1.04.31.58,0,.85-.29.85-.65s-.23-.58-.81-.8c-.78-.28-1.15-.71-1.15-1.23,0-.7.57-1.28,1.5-1.28.44,0,.83.13,1.07.27l-.2.58c-.17-.11-.49-.25-.89-.25-.47,0-.73.27-.73.59,0,.36.26.52.83.74.76.29,1.14.67,1.14,1.31,0,.76-.59,1.31-1.63,1.31-.48,0-.92-.12-1.22-.3l.2-.6Z"/>
          <path class="cls-4" d="M199.19,130.82c0,1.61-1.12,2.31-2.17,2.31-1.18,0-2.09-.86-2.09-2.24,0-1.46.95-2.31,2.16-2.31s2.1.91,2.1,2.24ZM195.73,130.87c0,.95.55,1.67,1.32,1.67s1.32-.71,1.32-1.69c0-.74-.37-1.68-1.31-1.68s-1.34.87-1.34,1.69Z"/>
          <path class="cls-4" d="M200.19,129.86c0-.45,0-.82-.04-1.18h.7l.05.72h.02c.22-.41.72-.82,1.44-.82.6,0,1.54.36,1.54,1.86v2.6h-.79v-2.51c0-.7-.26-1.29-1.01-1.29-.52,0-.93.37-1.06.81-.04.1-.05.23-.05.37v2.62h-.79v-3.18Z"/>
          <path class="cls-4" d="M207.6,133.04l-.06-.55h-.03c-.24.34-.71.65-1.33.65-.88,0-1.33-.62-1.33-1.25,0-1.05.94-1.63,2.62-1.62v-.09c0-.36-.1-1.01-.99-1.01-.41,0-.83.12-1.13.32l-.18-.52c.36-.23.88-.39,1.43-.39,1.33,0,1.66.91,1.66,1.78v1.63c0,.38.02.75.07,1.04h-.72ZM207.48,130.81c-.86-.02-1.85.13-1.85.98,0,.51.34.76.75.76.57,0,.93-.36,1.05-.73.03-.08.04-.17.04-.25v-.76Z"/>
          <path class="cls-4" d="M209.52,126.64h.79v6.39h-.79v-6.39Z"/>
          <path class="cls-4" d="M213.48,130.31v.59h-2.22v-.59h2.22Z"/>
          <path class="cls-4" d="M214.43,127.04c.38-.06.87-.12,1.5-.12.77,0,1.34.18,1.7.5.33.29.53.73.53,1.27s-.16.98-.47,1.3c-.42.44-1.09.67-1.86.67-.23,0-.45,0-.63-.05v2.43h-.78v-6ZM215.22,129.97c.17.04.39.06.65.06.95,0,1.52-.46,1.52-1.3s-.57-1.19-1.43-1.19c-.34,0-.6.03-.74.06v2.36Z"/>
          <path class="cls-4" d="M222.91,130.82c0,1.61-1.12,2.31-2.17,2.31-1.18,0-2.09-.86-2.09-2.24,0-1.46.96-2.31,2.16-2.31s2.1.91,2.1,2.24ZM219.46,130.87c0,.95.55,1.67,1.32,1.67s1.32-.71,1.32-1.69c0-.74-.37-1.68-1.31-1.68s-1.34.87-1.34,1.69Z"/>
          <path class="cls-4" d="M223.91,130.04c0-.51,0-.96-.04-1.36h.69l.03.86h.04c.2-.59.68-.96,1.21-.96.09,0,.15,0,.22.03v.75c-.08-.02-.16-.03-.27-.03-.56,0-.96.42-1.06,1.02-.02.11-.04.23-.04.37v2.32h-.78v-3Z"/>
          <path class="cls-4" d="M228.02,127.43v1.25h1.13v.6h-1.13v2.35c0,.54.15.85.59.85.21,0,.36-.03.46-.05l.04.59c-.15.06-.4.11-.7.11-.37,0-.67-.12-.86-.33-.23-.23-.31-.62-.31-1.13v-2.38h-.67v-.6h.67v-1.04l.77-.21Z"/>
          <path class="cls-4" d="M230.13,133.04v-3.75h-.61v-.6h.61v-.21c0-.61.13-1.17.5-1.52.3-.29.69-.41,1.06-.41.28,0,.52.06.67.13l-.11.61c-.12-.05-.28-.1-.5-.1-.68,0-.85.59-.85,1.26v.23h1.05v.6h-1.05v3.75h-.78Z"/>
          <path class="cls-4" d="M236.5,130.82c0,1.61-1.12,2.31-2.17,2.31-1.18,0-2.09-.86-2.09-2.24,0-1.46.96-2.31,2.16-2.31s2.1.91,2.1,2.24ZM233.05,130.87c0,.95.55,1.67,1.32,1.67s1.32-.71,1.32-1.69c0-.74-.37-1.68-1.31-1.68s-1.34.87-1.34,1.69Z"/>
          <path class="cls-4" d="M237.5,126.64h.79v6.39h-.79v-6.39Z"/>
          <path class="cls-4" d="M240.51,127.45c0,.27-.19.49-.5.49-.28,0-.48-.22-.48-.49s.21-.5.5-.5.49.22.49.5ZM239.63,133.04v-4.36h.79v4.36h-.79Z"/>
          <path class="cls-4" d="M245.67,130.82c0,1.61-1.12,2.31-2.17,2.31-1.18,0-2.09-.86-2.09-2.24,0-1.46.95-2.31,2.16-2.31s2.1.91,2.1,2.24ZM242.22,130.87c0,.95.55,1.67,1.32,1.67s1.32-.71,1.32-1.69c0-.74-.37-1.68-1.31-1.68s-1.34.87-1.34,1.69Z"/>
          <path class="cls-4" d="M246.01,133.4l2.51-6.53h.61l-2.52,6.53h-.6Z"/>
        </g>
        <g>
          <path class="cls-4" d="M189.88,98.3v2.12h2.04v.54h-2.04v2.13h-.58v-2.13h-2.03v-.54h2.03v-2.12h.58Z"/>
          <path class="cls-4" d="M194.4,97.97h-.02l-1.02.55-.15-.6,1.28-.68h.67v5.85h-.76v-5.11Z"/>
          <path class="cls-4" d="M202.7,97.9h-2.23l-.22,1.5c.13-.02.26-.04.48-.04.45,0,.9.1,1.26.31.46.26.84.77.84,1.5,0,1.14-.91,2-2.18,2-.64,0-1.18-.18-1.46-.36l.2-.6c.24.14.72.32,1.25.32.75,0,1.39-.49,1.39-1.27,0-.76-.51-1.3-1.68-1.3-.33,0-.59.04-.81.06l.38-2.81h2.8v.67Z"/>
          <path class="cls-4" d="M205.54,97.97h-.02l-1.02.55-.15-.6,1.28-.68h.67v5.85h-.76v-5.11Z"/>
          <path class="cls-4" d="M211.93,97.9h-2.23l-.22,1.5c.13-.02.26-.04.48-.04.45,0,.9.1,1.26.31.46.26.84.77.84,1.5,0,1.14-.91,2-2.18,2-.64,0-1.18-.18-1.46-.36l.2-.6c.24.14.72.32,1.25.32.75,0,1.39-.49,1.39-1.27,0-.76-.51-1.3-1.68-1.3-.33,0-.59.04-.81.06l.38-2.81h2.8v.67Z"/>
          <path class="cls-4" d="M215.14,100.36v.58h-2.22v-.58h2.22Z"/>
          <path class="cls-4" d="M218.26,103.08v-1.59h-2.72v-.52l2.61-3.74h.86v3.64h.82v.62h-.82v1.59h-.75ZM218.26,100.87v-1.95c0-.31,0-.61.03-.92h-.03c-.18.34-.32.59-.49.86l-1.43,1.99v.02h1.92Z"/>
          <path class="cls-4" d="M224.23,97.23v.52l-2.55,5.33h-.82l2.54-5.18v-.02h-2.86v-.66h3.69Z"/>
          <path class="cls-4" d="M224.98,101.6c0-.74.44-1.26,1.16-1.57v-.03c-.66-.31-.94-.81-.94-1.31,0-.93.78-1.56,1.81-1.56,1.13,0,1.7.71,1.7,1.44,0,.5-.24,1.03-.96,1.37v.03c.73.29,1.18.8,1.18,1.51,0,1.02-.87,1.7-1.99,1.7-1.22,0-1.96-.73-1.96-1.58ZM228.13,101.56c0-.71-.5-1.05-1.29-1.28-.68.2-1.05.65-1.05,1.21-.03.59.42,1.12,1.17,1.12s1.17-.44,1.17-1.04ZM225.95,98.64c0,.58.44.9,1.12,1.08.5-.17.89-.53.89-1.06,0-.47-.28-.95-.99-.95-.66,0-1.02.43-1.02.94Z"/>
          <path class="cls-4" d="M231.76,100.36v.58h-2.22v-.58h2.22Z"/>
          <path class="cls-4" d="M236.32,100.1c0,1.99-.74,3.09-2.03,3.09-1.14,0-1.92-1.07-1.94-3.01,0-1.96.85-3.04,2.03-3.04s1.94,1.1,1.94,2.96ZM233.14,100.19c0,1.52.47,2.39,1.19,2.39.81,0,1.2-.95,1.2-2.44s-.37-2.39-1.19-2.39c-.69,0-1.2.85-1.2,2.44Z"/>
          <path class="cls-4" d="M240.85,97.23v.52l-2.55,5.33h-.82l2.54-5.18v-.02h-2.86v-.66h3.69Z"/>
          <path class="cls-4" d="M241.66,103.08v-.49l.62-.6c1.49-1.42,2.17-2.18,2.18-3.06,0-.59-.29-1.14-1.16-1.14-.53,0-.97.27-1.24.5l-.25-.56c.41-.34.98-.59,1.66-.59,1.26,0,1.79.86,1.79,1.7,0,1.08-.78,1.95-2.02,3.14l-.47.43v.02h2.63v.66h-3.74Z"/>
          <path class="cls-4" d="M248,97.97h-.02l-1.02.55-.15-.6,1.28-.68h.67v5.85h-.76v-5.11Z"/>
        </g>
        <g>
          <path class="cls-4" d="M180.59,111.67h.79v6.39h-.79v-6.39Z"/>
          <path class="cls-4" d="M186.36,116.87c0,.45,0,.85.04,1.19h-.7l-.04-.71h-.02c-.21.35-.67.81-1.44.81-.68,0-1.5-.38-1.5-1.91v-2.55h.79v2.41c0,.83.25,1.39.97,1.39.53,0,.9-.37,1.04-.72.04-.12.07-.26.07-.4v-2.67h.79v3.17Z"/>
          <path class="cls-4" d="M188.45,115.7h.02c.11-.15.26-.34.39-.49l1.28-1.5h.95l-1.68,1.79,1.92,2.57h-.96l-1.5-2.09-.41.45v1.64h-.78v-6.39h.78v4.03Z"/>
          <path class="cls-4" d="M192.33,116.03c.02,1.07.7,1.51,1.5,1.51.57,0,.91-.1,1.21-.22l.13.57c-.28.12-.76.27-1.45.27-1.34,0-2.14-.88-2.14-2.2s.77-2.35,2.04-2.35c1.42,0,1.8,1.25,1.8,2.05,0,.16-.02.29-.03.37h-3.06ZM194.65,115.46c0-.5-.21-1.29-1.1-1.29-.8,0-1.15.74-1.21,1.29h2.31Z"/>
          <path class="cls-4" d="M200.46,118.64c-.5.26-1,.36-1.6.36-1.48,0-2.73-1.08-2.73-2.81,0-1.86,1.29-3.46,3.29-3.46,1.57,0,2.62,1.1,2.62,2.6,0,1.35-.76,2.14-1.6,2.14-.36,0-.69-.24-.67-.79h-.04c-.31.53-.73.79-1.27.79s-.97-.42-.97-1.13c0-1.12.88-2.13,2.13-2.13.39,0,.73.08.96.19l-.31,1.63c-.14.68-.03,1,.27,1.01.46,0,.97-.6.97-1.65,0-1.31-.78-2.24-2.18-2.24-1.47,0-2.7,1.16-2.7,2.99,0,1.5.98,2.43,2.31,2.43.51,0,.99-.11,1.36-.31l.14.39ZM199.96,114.75c-.09-.03-.24-.06-.45-.06-.79,0-1.43.75-1.43,1.62,0,.4.2.68.59.68.52,0,1-.67,1.1-1.22l.19-1.02Z"/>
          <path class="cls-4" d="M203.03,111.67h.79v6.39h-.79v-6.39Z"/>
          <path class="cls-4" d="M207.57,118.06l-.06-.55h-.03c-.24.34-.71.65-1.33.65-.88,0-1.33-.62-1.33-1.25,0-1.05.94-1.63,2.62-1.62v-.09c0-.36-.1-1.01-.99-1.01-.41,0-.83.12-1.13.32l-.18-.52c.36-.23.88-.39,1.43-.39,1.33,0,1.66.91,1.66,1.78v1.63c0,.38.02.75.07,1.04h-.72ZM207.45,115.84c-.86-.02-1.85.13-1.85.98,0,.51.34.76.75.76.57,0,.93-.36,1.05-.73.03-.08.04-.17.04-.25v-.76Z"/>
          <path class="cls-4" d="M209.49,114.88c0-.45,0-.82-.04-1.18h.7l.05.72h.02c.22-.41.72-.82,1.44-.82.6,0,1.54.36,1.54,1.86v2.6h-.79v-2.51c0-.7-.26-1.29-1.01-1.29-.52,0-.93.37-1.06.81-.04.1-.05.23-.05.37v2.62h-.79v-3.18Z"/>
          <path class="cls-4" d="M214.49,114.88c0-.45,0-.82-.04-1.18h.7l.04.72h.02c.22-.41.72-.82,1.44-.82.6,0,1.54.36,1.54,1.86v2.6h-.79v-2.51c0-.7-.26-1.29-1.01-1.29-.52,0-.93.37-1.06.81-.04.1-.05.23-.05.37v2.62h-.79v-3.18Z"/>
          <path class="cls-4" d="M220.37,112.48c0,.27-.19.49-.5.49-.28,0-.48-.22-.48-.49s.21-.5.5-.5.49.22.49.5ZM219.48,118.06v-4.36h.79v4.36h-.79Z"/>
          <path class="cls-4" d="M221.59,114.88c0-.45,0-.82-.04-1.18h.7l.05.72h.02c.22-.41.72-.82,1.44-.82.6,0,1.54.36,1.54,1.86v2.6h-.79v-2.51c0-.7-.26-1.29-1.01-1.29-.52,0-.93.37-1.06.81-.04.1-.05.23-.05.37v2.62h-.79v-3.18Z"/>
          <path class="cls-4" d="M230.34,113.7c-.02.31-.04.67-.04,1.2v2.53c0,1-.2,1.61-.62,1.99-.42.4-1.04.52-1.58.52s-1.1-.12-1.45-.36l.2-.6c.29.18.74.34,1.28.34.81,0,1.4-.42,1.4-1.52v-.49h-.02c-.24.41-.71.73-1.39.73-1.08,0-1.85-.92-1.85-2.12,0-1.48.96-2.31,1.96-2.31.76,0,1.17.4,1.36.76h.02l.04-.66h.69ZM229.52,115.42c0-.13,0-.25-.05-.36-.14-.46-.53-.84-1.11-.84-.76,0-1.3.64-1.3,1.65,0,.86.43,1.57,1.29,1.57.49,0,.93-.31,1.1-.81.04-.13.06-.29.06-.42v-.78Z"/>
          <path class="cls-4" d="M231.51,117.25c.23.15.65.31,1.04.31.58,0,.85-.29.85-.65s-.22-.58-.81-.8c-.78-.28-1.15-.71-1.15-1.23,0-.7.57-1.28,1.5-1.28.44,0,.83.13,1.07.27l-.2.58c-.17-.11-.49-.25-.89-.25-.47,0-.73.27-.73.6,0,.36.26.52.83.74.76.29,1.14.67,1.14,1.31,0,.77-.59,1.31-1.63,1.31-.48,0-.92-.12-1.22-.3l.2-.6Z"/>
          <path class="cls-4" d="M234.89,117.59c0-.33.23-.57.54-.57s.53.23.53.57-.21.57-.54.57c-.32,0-.53-.24-.53-.57Z"/>
          <path class="cls-4" d="M240.89,115.85c0,1.61-1.12,2.31-2.17,2.31-1.18,0-2.09-.86-2.09-2.24,0-1.46.95-2.31,2.16-2.31s2.1.91,2.1,2.24ZM237.43,115.89c0,.95.55,1.67,1.32,1.67s1.32-.71,1.32-1.69c0-.74-.37-1.68-1.31-1.68s-1.34.87-1.34,1.69Z"/>
          <path class="cls-4" d="M241.88,115.06c0-.51,0-.96-.04-1.36h.69l.03.86h.04c.2-.59.67-.96,1.21-.96.09,0,.15,0,.23.03v.75c-.08-.02-.16-.03-.27-.03-.56,0-.95.42-1.06,1.02-.02.11-.04.23-.04.37v2.32h-.78v-3Z"/>
          <path class="cls-4" d="M248.51,113.7c-.02.31-.04.67-.04,1.2v2.53c0,1-.2,1.61-.62,1.99-.42.4-1.04.52-1.58.52s-1.1-.12-1.45-.36l.2-.6c.29.18.74.34,1.28.34.81,0,1.4-.42,1.4-1.52v-.49h-.02c-.24.41-.71.73-1.39.73-1.08,0-1.85-.92-1.85-2.12,0-1.48.96-2.31,1.96-2.31.76,0,1.17.4,1.36.76h.02l.04-.66h.69ZM247.69,115.42c0-.13,0-.25-.05-.36-.14-.46-.53-.84-1.11-.84-.76,0-1.3.64-1.3,1.65,0,.86.43,1.57,1.29,1.57.49,0,.93-.31,1.1-.81.04-.13.06-.29.06-.42v-.78Z"/>
        </g>
      </g>
      <g id="Layer_1-2" data-name="Layer 1-2">
        <path class="cls-4" d="M94.12,72.63l-.8.34c-.54,2.14-1.15,4.05-1.82,5.74-.66,1.68-1.4,3.16-2.21,4.42-.81,1.26-1.68,2.31-2.63,3.13-.94.82-1.99,1.48-3.14,1.97l-.54.23c-2.16.92-3.83,1.06-5.02.42-.58-.32-1.1-.82-1.57-1.49-.46-.67-.97-1.65-1.51-2.94l-8.39-19.61c-.32-.75-.56-1.4-.76-1.98.08-.05.17-.1.26-.14,1.26-.6,2.81-.67,4.6-.22l.34-.8-5.43-2.33c.45-1.47,1.62-2.78,3.52-3.95l-.34-.79-4.14,1.77-2.99,1.28-2.74-1.17-4.39-1.88-.34.79c1.9,1.17,3.07,2.49,3.53,3.95l-5.44,2.33.34.8c1.8-.44,3.33-.38,4.6.22.09.04.18.09.26.14-.18.58-.43,1.24-.75,1.98l-8.4,19.61c-.55,1.29-1.06,2.26-1.51,2.94-.46.67-.99,1.17-1.56,1.49-1.19.65-2.87.51-5.02-.42l-.54-.23c-1.14-.49-2.19-1.15-3.14-1.97-.94-.82-1.83-1.86-2.63-3.13-.81-1.26-1.54-2.74-2.22-4.42-.19-.51-.4-1.03-.58-1.58-.44-1.27-.85-2.66-1.24-4.16l-.79-.34-.56,4.5-.92,7.49,8.93,3.82,19.49,8.34.34-.79c-1.72-1.1-2.76-2.39-3.13-3.86-.15-.55-.13-1.27.06-2.16.29-1.38.69-2.48,1.07-3.17.87-2.02,1.74-4.05,2.6-6.08h9.36c.87,2.03,1.74,4.06,2.6,6.08.38.69.78,1.79,1.06,3.17.19.89.21,1.61.06,2.16-.36,1.47-1.4,2.76-3.12,3.86l.33.79,28.43-12.16-1.48-11.99h0ZM29.87,84.09l.66-5.37c.82,2.72,2.13,5.17,3.94,7.34l-4.61-1.97h0ZM67.35,61.32l-1.9.47h-.01s-.03-.09-.03-.14c-.08-.42-.11-.82-.09-1.2l2.04.88ZM64.14,57.73l-.5.85-.74-.32,1.24-.53ZM63.1,59.5c-.35.58-.57,1.04-.63,1.39-.06.36.02.79.24,1.31.1.26.18.43.22.54.03.1.07.21.12.31l.13.3s-.01.03-.01.04c-.15.28-.28.56-.4.83l-.18.44-1.03,2.42-1.03-2.42-.18-.44c-.12-.28-.25-.55-.39-.83,0-.01-.01-.03-.02-.04l.13-.3c.05-.1.08-.2.13-.31.03-.11.1-.29.22-.54.22-.52.3-.95.24-1.31-.06-.35-.27-.81-.63-1.39l1.55-.66,1.55.66ZM60.2,58.26l-.75.32-.5-.85,1.25.53ZM55.73,61.32l2.04-.88c.01.38-.01.78-.1,1.2,0,.05-.02.09-.03.14h-.01s-1.9-.47-1.9-.47ZM52.3,88.7l-.18.44c-.12.27-.23.56-.34.85-.23.53-.31.96-.27,1.27s.28.81.69,1.49l.68,1.17-7.5-3.21,1.32-.32c.77-.18,1.29-.36,1.56-.54.27-.19.52-.54.74-1.05.12-.28.2-.46.25-.55.06-.09.1-.18.15-.29l.18-.44,9.23-21.55.49-1.14c.36.64.78,1.49,1.24,2.56.15.34.3.69.44,1.03,0,0-8.68,20.26-8.68,20.26ZM57.23,79.86c.06-.15.13-.3.19-.45,1.38-3.21,2.74-6.42,4.12-9.63,1.38,3.21,2.75,6.42,4.13,9.63.06.15.13.3.19.45h-8.63ZM70.21,93.94l.68-1.17c.42-.68.65-1.18.69-1.49.05-.31-.04-.74-.27-1.27-.1-.3-.22-.58-.33-.85l-.19-.44-8.68-20.26c.15-.35.3-.69.44-1.03.46-1.08.88-1.92,1.24-2.56l.73,1.7,8.98,20.99.19.44c.04.1.09.19.14.29s.13.28.25.55c.22.51.47.86.74,1.05.27.18.78.37,1.56.54l1.32.32-7.5,3.21h0ZM88.62,86.06c1.81-2.17,3.12-4.62,3.95-7.34l.66,5.37-4.61,1.97Z"/>
      </g>
    </g>
  </g>
</svg>