<?xml version="1.0" encoding="UTF-8"?>
<svg id="Layer_2" data-name="Layer 2" xmlns="http://www.w3.org/2000/svg" viewBox="0 0 85.91 63.35">
  <defs>
    <style>
      .cls-1 {
        fill: #231f20;
        stroke: #231f20;
      }

      .cls-1, .cls-2 {
        stroke-miterlimit: 10;
        stroke-width: 5px;
      }

      .cls-2 {
        fill: #fff;
        stroke: #fff;
      }
    </style>
  </defs>
  <g id="Layer_1-2" data-name="Layer 1">
    <g>
      <path class="cls-1" d="M8.29,3.91v33.04c8.63.02,17.25.03,25.88.05,3.79-5.87,7.59-11.75,11.38-17.62,3.66,5.4,7.32,10.8,10.98,16.2,7.12-.02,14.23-.05,21.35-.07V2.5h5.26c.09,14.53.17,29.06.26,43.59h-23.1c1.64,4.92,3.29,9.84,4.93,14.76h-9.87c-2.87-5.06-5.73-10.11-8.6-15.17-2.28,5.06-4.56,10.11-6.84,15.17h-11.25c1.64-4.92,3.28-9.84,4.92-14.76H3.33c-.26-14.04-.52-28.08-.78-42.11,1.91-.02,3.83-.04,5.74-.06Z"/>
      <circle class="cls-2" cx="46.23" cy="34.93" r="3.26"/>
    </g>
  </g>
</svg>