<?xml version="1.0" encoding="UTF-8"?>
<svg id="Layer_2" data-name="Layer 2" xmlns="http://www.w3.org/2000/svg" viewBox="0 0 87.75 64.62">
  <defs>
    <style>
      .cls-1 {
        fill: #414042;
        stroke: #231f20;
        stroke-miterlimit: 10;
      }
    </style>
  </defs>
  <g id="Layer_1-2" data-name="Layer 1">
    <g>
      <path class="cls-1" d="M2.6,50.49c-1.28,0-2.1-.53-2.1-1.73v-1.5c0-1.28.83-1.95,2.1-1.95h4.43c.98,0,1.5-.38,1.5-1.35V7.03c0-.98-.53-1.35-1.5-1.35H2.6c-1.28,0-2.1-.68-2.1-1.95v-1.5C.5,1.03,1.33.5,2.6.5h19.37c1.28,0,2.1.53,2.1,1.73v1.5c0,1.28-.83,1.95-2.1,1.95h-4.43c-.98,0-1.5.38-1.5,1.35v36.93c0,.98.53,1.35,1.28,1.35h21.99c1.28,0,2.03-.6,2.03-1.58v-5.48c0-1.73,1.28-2.55,2.78-2.55s2.7,1.05,2.7,2.85v8.93c0,1.8-.9,3-2.85,3H2.6Z"/>
      <path class="cls-1" d="M43.79,50.49c-1.95,0-2.85-1.2-2.85-3v-8.93c0-1.8,1.2-2.85,2.7-2.85s2.78.83,2.78,2.55v5.48c0,.98.75,1.58,2.03,1.58h21.99c.75,0,1.28-.37,1.28-1.35V7.03c0-.98-.53-1.35-1.5-1.35h-4.43c-1.28,0-2.1-.68-2.1-1.95v-1.5c0-1.2.83-1.73,2.1-1.73h19.37c1.28,0,2.1.53,2.1,1.73v1.5c0,1.28-.83,1.95-2.1,1.95h-4.43c-.98,0-1.5.37-1.5,1.35v36.93c0,.98.53,1.35,1.5,1.35h4.43c1.28,0,2.1.68,2.1,1.95v1.5c0,1.2-.83,1.73-2.1,1.73h-41.36Z"/>
      <path class="cls-1" d="M27.1,51.81s-2.93,5.93-2.93,6.46.3.68,1.28.68h2.4c1.28,0,2.1.68,2.1,1.95v1.5c0,1.2-.83,1.73-2.1,1.73H8.19c-1.28,0-2.1-.53-2.1-1.73v-1.5c0-1.28.83-1.95,2.1-1.95h5.55c1.05,0,1.28-.38,1.5-.9l20.42-37.3c.15-.38.3-.68.3-1.05,0-.3-.3-.38-.83-.38h-5.03c-1.28,0-2.1-.53-2.1-1.73v-1.5c0-1.28.83-1.95,2.1-1.95h26.57c1.28,0,2.03.68,2.03,1.95v1.5c0,1.2-.83,1.73-2.1,1.73h-5.03c-.53,0-.83.08-.83.38,0,.38.15.68.3,1.05l20.42,37.3c.23.53.45.9,1.5.9h5.55c1.28,0,2.1.68,2.1,1.95v1.5c0,1.2-.83,1.73-2.1,1.73h-19.67c-1.28,0-2.1-.53-2.1-1.73v-1.5c0-1.28.83-1.95,2.1-1.95h2.4c.98,0,1.28-.15,1.28-.68s-2.93-6.46-2.93-6.46c-.53-.9-.98-1.35-1.58-1.35h-29.35c-.6,0-1.2.45-1.58,1.35ZM55.7,44.23c0-.3-.15-.6-.38-1.05l-10.73-20.64c-.45-.83-.75-1.35-1.2-1.35s-.83.53-1.28,1.35l-10.73,20.64c-.23.45-.38.75-.38,1.05s.38.45.9.45h22.89c.53,0,.9-.15.9-.45Z"/>
    </g>
  </g>
</svg>