<?xml version="1.0" encoding="UTF-8"?>
<svg id="Layer_2" data-name="Layer 2" xmlns="http://www.w3.org/2000/svg" xmlns:xlink="http://www.w3.org/1999/xlink" viewBox="0 0 1920 1080">
  <defs>
    <style>
      .cls-1, .cls-2, .cls-3, .cls-4, .cls-5 {
        fill: #cac9c9;
      }

      .cls-1, .cls-3, .cls-4 {
        font-family: IowanOldStyle-Roman, 'Iowan Old Style';
      }

      .cls-1, .cls-5 {
        font-size: 12px;
      }

      .cls-6 {
        fill: url(#linear-gradient);
      }

      .cls-7 {
        letter-spacing: 0em;
      }

      .cls-8 {
        letter-spacing: 0em;
      }

      .cls-9 {
        letter-spacing: 0em;
      }

      .cls-10 {
        letter-spacing: 0em;
      }

      .cls-11 {
        letter-spacing: 0em;
      }

      .cls-12 {
        letter-spacing: -.1em;
      }

      .cls-13 {
        letter-spacing: -.07em;
      }

      .cls-14 {
        letter-spacing: -.06em;
      }

      .cls-15 {
        letter-spacing: -.06em;
      }

      .cls-16 {
        letter-spacing: -.03em;
      }

      .cls-17 {
        letter-spacing: -.02em;
      }

      .cls-18 {
        letter-spacing: -.02em;
      }

      .cls-19 {
        letter-spacing: -.02em;
      }

      .cls-20 {
        letter-spacing: -.03em;
      }

      .cls-21 {
        letter-spacing: -.03em;
      }

      .cls-22 {
        letter-spacing: -.03em;
      }

      .cls-23 {
        letter-spacing: -.02em;
      }

      .cls-24 {
        letter-spacing: -.02em;
      }

      .cls-25 {
        letter-spacing: -.02em;
      }

      .cls-26 {
        letter-spacing: -.02em;
      }

      .cls-27 {
        letter-spacing: -.02em;
      }

      .cls-28 {
        letter-spacing: -.02em;
      }

      .cls-29 {
        letter-spacing: -.02em;
      }

      .cls-30 {
        letter-spacing: -.02em;
      }

      .cls-31 {
        letter-spacing: -.02em;
      }

      .cls-32 {
        letter-spacing: -.02em;
      }

      .cls-33 {
        letter-spacing: -.02em;
      }

      .cls-34 {
        letter-spacing: -.02em;
      }

      .cls-35 {
        letter-spacing: -.02em;
      }

      .cls-36 {
        letter-spacing: -.01em;
      }

      .cls-37 {
        letter-spacing: -.02em;
      }

      .cls-38 {
        letter-spacing: -.02em;
      }

      .cls-39 {
        letter-spacing: -.04em;
      }

      .cls-40 {
        letter-spacing: -.04em;
      }

      .cls-41 {
        letter-spacing: -.04em;
      }

      .cls-42 {
        letter-spacing: -.04em;
      }

      .cls-3 {
        font-size: 215.36px;
      }

      .cls-43 {
        letter-spacing: -.03em;
      }

      .cls-44 {
        letter-spacing: -.03em;
      }

      .cls-45 {
        letter-spacing: -.03em;
      }

      .cls-46 {
        letter-spacing: -.03em;
      }

      .cls-47 {
        letter-spacing: -.04em;
      }

      .cls-48 {
        letter-spacing: -.03em;
      }

      .cls-49 {
        letter-spacing: -.04em;
      }

      .cls-50 {
        letter-spacing: -.03em;
      }

      .cls-51 {
        letter-spacing: -.03em;
      }

      .cls-52 {
        letter-spacing: -.03em;
      }

      .cls-53 {
        letter-spacing: -.03em;
      }

      .cls-54 {
        letter-spacing: 0em;
      }

      .cls-55 {
        letter-spacing: 0em;
      }

      .cls-56 {
        letter-spacing: 0em;
      }

      .cls-57 {
        letter-spacing: 0em;
      }

      .cls-58 {
        letter-spacing: 0em;
      }

      .cls-59 {
        letter-spacing: 0em;
      }

      .cls-60 {
        letter-spacing: 0em;
      }

      .cls-61 {
        letter-spacing: -.01em;
      }

      .cls-62 {
        letter-spacing: -.01em;
      }

      .cls-63 {
        letter-spacing: -.01em;
      }

      .cls-64 {
        letter-spacing: -.01em;
      }

      .cls-65 {
        letter-spacing: -.01em;
      }

      .cls-66 {
        letter-spacing: -.01em;
      }

      .cls-67 {
        letter-spacing: -.01em;
      }

      .cls-68 {
        letter-spacing: -.01em;
      }

      .cls-69 {
        letter-spacing: -.01em;
      }

      .cls-70 {
        letter-spacing: -.01em;
      }

      .cls-4 {
        font-size: 50.84px;
      }

      .cls-71 {
        letter-spacing: -.01em;
      }

      .cls-72 {
        letter-spacing: -.01em;
      }

      .cls-73 {
        letter-spacing: -.01em;
      }

      .cls-74 {
        letter-spacing: -.01em;
      }

      .cls-75 {
        letter-spacing: 0em;
      }

      .cls-76 {
        letter-spacing: 0em;
      }

      .cls-77 {
        letter-spacing: 0em;
      }

      .cls-78 {
        letter-spacing: 0em;
      }

      .cls-79 {
        letter-spacing: 0em;
      }

      .cls-80 {
        letter-spacing: 0em;
      }

      .cls-81 {
        letter-spacing: 0em;
      }

      .cls-82 {
        letter-spacing: 0em;
      }

      .cls-83 {
        letter-spacing: 0em;
      }

      .cls-84 {
        letter-spacing: 0em;
      }

      .cls-85 {
        letter-spacing: 0em;
      }

      .cls-86 {
        letter-spacing: 0em;
      }

      .cls-5 {
        font-family: HatchSans-Regular, 'Hatch Sans';
      }

      .cls-87 {
        letter-spacing: 0em;
      }

      .cls-88 {
        letter-spacing: .02em;
      }

      .cls-89 {
        letter-spacing: .02em;
      }

      .cls-90 {
        letter-spacing: 0em;
      }

      .cls-91 {
        letter-spacing: 0em;
      }

      .cls-92 {
        letter-spacing: 0em;
      }

      .cls-93 {
        letter-spacing: .01em;
      }

      .cls-94 {
        letter-spacing: .01em;
      }

      .cls-95 {
        letter-spacing: .01em;
      }

      .cls-96 {
        letter-spacing: .01em;
      }

      .cls-97 {
        letter-spacing: 0em;
      }

      .cls-98 {
        letter-spacing: 0em;
      }

      .cls-99 {
        letter-spacing: 0em;
      }

      .cls-100 {
        letter-spacing: 0em;
      }
    </style>
    <linearGradient id="linear-gradient" x1="0" y1="540" x2="1920" y2="540" gradientUnits="userSpaceOnUse">
      <stop offset="0" stop-color="#00556e"/>
      <stop offset="1" stop-color="#6b3587"/>
    </linearGradient>
  </defs>
  <g id="TEMPLATE">
    <g>
      <rect class="cls-6" width="1920" height="1080"/>
      <text class="cls-5" transform="translate(212.5 1020)"><tspan class="cls-62" x="0" y="0">L</tspan><tspan class="cls-36" x="6.54" y="0">u</tspan><tspan class="cls-78" x="13.33" y="0">k</tspan><tspan x="19.59" y="0">e </tspan><tspan class="cls-92" x="29.56" y="0">L</tspan><tspan class="cls-61" x="36.31" y="0">a</tspan><tspan class="cls-64" x="42.66" y="0">n</tspan><tspan class="cls-75" x="49.43" y="0">n</tspan><tspan class="cls-37" x="56.25" y="0">i</tspan><tspan class="cls-55" x="59.39" y="0">n</tspan><tspan x="66.25" y="0">g</tspan></text>
      <text class="cls-1" transform="translate(212.5 1005.88)"><tspan class="cls-68" x="0" y="0">D</tspan><tspan class="cls-100" x="9.21" y="0">E</tspan><tspan class="cls-82" x="16.91" y="0">S</tspan><tspan class="cls-69" x="23.31" y="0">I</tspan><tspan class="cls-86" x="27.23" y="0">G</tspan><tspan class="cls-98" x="36.12" y="0">N</tspan><tspan class="cls-76" x="45.93" y="0">E</tspan><tspan x="53.44" y="0">D </tspan><tspan class="cls-22" x="66.14" y="0">B</tspan><tspan x="73.27" y="0">Y : </tspan></text>
      <text class="cls-3" transform="translate(85.51 515)"><tspan class="cls-16" x="0" y="0">B</tspan><tspan class="cls-19" x="128.47" y="0">r</tspan><tspan class="cls-90" x="207.28" y="0">a</tspan><tspan class="cls-46" x="312.19" y="0">n</tspan><tspan x="430.49" y="0">d</tspan><tspan class="cls-52" x="0" y="182">G</tspan><tspan class="cls-34" x="153.18" y="182">u</tspan><tspan class="cls-42" x="275.67" y="182">i</tspan><tspan class="cls-47" x="330.26" y="182">d</tspan><tspan class="cls-18" x="443.58" y="182">e</tspan><tspan class="cls-27" x="543.48" y="182">l</tspan><tspan class="cls-33" x="601.89" y="182">i</tspan><tspan class="cls-41" x="661.71" y="182">n</tspan><tspan class="cls-20" x="779.53" y="182">e</tspan><tspan x="878.7" y="182">s</tspan></text>
      <text class="cls-4" transform="translate(87.51 855)"><tspan class="cls-60" x="0" y="0">T</tspan><tspan class="cls-44" x="31.87" y="0">h</tspan><tspan x="60.15" y="0">e </tspan><tspan class="cls-17" x="99.07" y="0">G</tspan><tspan class="cls-67" x="135.55" y="0">u</tspan><tspan class="cls-39" x="164.75" y="0">i</tspan><tspan class="cls-43" x="177.97" y="0">d</tspan><tspan class="cls-24" x="205.02" y="0">e</tspan><tspan class="cls-28" x="228.9" y="0">l</tspan><tspan class="cls-70" x="242.97" y="0">i</tspan><tspan class="cls-51" x="257.38" y="0">n</tspan><tspan class="cls-25" x="285.5" y="0">e</tspan><tspan x="309.21" y="0">s </tspan><tspan class="cls-48" x="345.85" y="0">F</tspan><tspan class="cls-21" x="373.89" y="0">o</tspan><tspan x="400.52" y="0">r </tspan><tspan class="cls-38" x="434.48" y="0">L</tspan><tspan class="cls-74" x="462.75" y="0">u</tspan><tspan class="cls-45" x="492.12" y="0">k</tspan><tspan class="cls-11" x="518.13" y="0">e </tspan><tspan class="cls-13" x="557.05" y="0">A</tspan><tspan class="cls-40" x="590.2" y="0">v</tspan><tspan class="cls-24" x="613.33" y="0">e</tspan><tspan class="cls-88" x="637.21" y="0">r</tspan><tspan class="cls-11" x="657.87" y="0">y </tspan><tspan class="cls-96" x="696.69" y="0">L</tspan><tspan class="cls-94" x="726.34" y="0">a</tspan><tspan class="cls-77" x="751.35" y="0">n</tspan><tspan class="cls-71" x="780.62" y="0">n</tspan><tspan class="cls-70" x="809.75" y="0">i</tspan><tspan class="cls-49" x="824.16" y="0">n</tspan><tspan class="cls-56" x="851.87" y="0">g</tspan><tspan class="cls-12" x="877.85" y="0">’</tspan><tspan x="886.88" y="0">s </tspan><tspan class="cls-35" x="923.52" y="0">B</tspan><tspan class="cls-23" x="954.16" y="0">r</tspan><tspan class="cls-95" x="973.06" y="0">a</tspan><tspan class="cls-50" x="998.07" y="0">n</tspan><tspan x="1026.3" y="0">d</tspan></text>
      <text class="cls-5" transform="translate(60 69.57)"><tspan class="cls-8" x="0" y="0">“</tspan><tspan class="cls-9" x="5.88" y="0">D</tspan><tspan class="cls-80" x="14.77" y="0">o</tspan><tspan class="cls-26" x="21.78" y="0">n</tspan><tspan class="cls-29" x="28.44" y="0">’</tspan><tspan x="31.74" y="0">t </tspan><tspan class="cls-30" x="40.18" y="0">q</tspan><tspan class="cls-63" x="47.34" y="0">u</tspan><tspan class="cls-78" x="54.15" y="0">o</tspan><tspan class="cls-84" x="61.13" y="0">t</tspan><tspan x="66.35" y="0">e </tspan><tspan class="cls-59" x="76.33" y="0">m</tspan><tspan x="87.21" y="0">e </tspan><tspan class="cls-81" x="97.18" y="0">o</tspan><tspan x="104.19" y="0">n </tspan><tspan class="cls-73" x="114.23" y="0">t</tspan><tspan class="cls-57" x="119.42" y="0">h</tspan><tspan class="cls-65" x="126.29" y="0">a</tspan><tspan class="cls-97" x="132.64" y="0">t</tspan><tspan class="cls-15" x="138.08" y="0">.</tspan><tspan x="140.69" y="0">” </tspan><tspan class="cls-99" x="149.68" y="0">-</tspan><tspan class="cls-54" x="155.63" y="0">M</tspan><tspan x="165.88" y="0">r </tspan><tspan class="cls-83" x="173.48" y="0">P</tspan><tspan class="cls-65" x="181.18" y="0">a</tspan><tspan class="cls-93" x="187.54" y="0">t</tspan><tspan class="cls-84" x="193.01" y="0">t</tspan><tspan class="cls-80" x="198.23" y="0">o</tspan><tspan x="205.23" y="0">n</tspan></text>
      <text class="cls-5" transform="translate(1689.73 68.57)"><tspan class="cls-62" x="0" y="0">L</tspan><tspan class="cls-36" x="6.54" y="0">u</tspan><tspan class="cls-78" x="13.33" y="0">k</tspan><tspan x="19.59" y="0">e </tspan><tspan class="cls-53" x="29.56" y="0">A</tspan><tspan class="cls-32" x="37.13" y="0">v</tspan><tspan class="cls-79" x="42.83" y="0">e</tspan><tspan class="cls-89" x="49.59" y="0">r</tspan><tspan class="cls-7" x="54.3" y="0">y </tspan><tspan class="cls-91" x="63.39" y="0">L</tspan><tspan class="cls-61" x="70.14" y="0">a</tspan><tspan class="cls-65" x="76.49" y="0">n</tspan><tspan class="cls-75" x="83.27" y="0">n</tspan><tspan class="cls-37" x="90.08" y="0">i</tspan><tspan class="cls-55" x="93.22" y="0">n</tspan><tspan class="cls-85" x="100.08" y="0">g</tspan><tspan class="cls-14" x="107.18" y="0">’</tspan><tspan class="cls-10" x="109.96" y="0">s </tspan><tspan class="cls-87" x="119.24" y="0">G</tspan><tspan class="cls-66" x="128.67" y="0">u</tspan><tspan class="cls-78" x="135.46" y="0">id</tspan><tspan class="cls-31" x="145.8" y="0">e</tspan><tspan class="cls-72" x="152.42" y="0">l</tspan><tspan class="cls-37" x="155.34" y="0">i</tspan><tspan class="cls-58" x="158.48" y="0">n</tspan><tspan x="165.34" y="0">e</tspan></text>
      <g id="Layer_1-2" data-name="Layer 1-2">
        <path class="cls-2" d="M1875.28,974.86l-2,.85c-1.36,5.35-2.87,10.13-4.55,14.35-1.65,4.21-3.49,7.91-5.53,11.07-2.02,3.16-4.21,5.79-6.59,7.84-2.36,2.05-4.97,3.7-7.85,4.94l-1.36.57c-5.4,2.31-9.59,2.66-12.56,1.04-1.46-.8-2.76-2.05-3.93-3.74-1.15-1.69-2.42-4.14-3.79-7.35l-20.99-49.06c-.8-1.88-1.41-3.51-1.89-4.95.21-.12.43-.24.66-.35,3.16-1.49,7.02-1.67,11.5-.56l.85-2-13.59-5.82c1.13-3.67,4.05-6.95,8.81-9.89l-.85-1.98-10.36,4.43-7.49,3.2-6.86-2.94-10.98-4.69-.85,1.98c4.74,2.94,7.68,6.22,8.83,9.89l-13.61,5.82.85,2c4.5-1.11,8.32-.94,11.5.56.23.1.45.23.66.35-.45,1.44-1.08,3.09-1.88,4.95l-21.01,49.06c-1.37,3.21-2.64,5.67-3.79,7.35-1.15,1.67-2.47,2.92-3.91,3.74-2.99,1.62-7.18,1.27-12.56-1.04l-1.36-.57c-2.85-1.23-5.49-2.87-7.85-4.94-2.36-2.05-4.57-4.66-6.57-7.84-2.02-3.16-3.86-6.86-5.54-11.07-.49-1.27-.99-2.57-1.46-3.94-1.09-3.18-2.14-6.66-3.09-10.41l-1.98-.85-1.39,11.26-2.31,18.73,22.35,9.56,48.76,20.87.85-1.98c-4.31-2.76-6.9-5.98-7.82-9.66-.36-1.37-.33-3.18.16-5.4.73-3.44,1.74-6.2,2.68-7.94,2.17-5.06,4.34-10.13,6.5-15.21h23.43c2.17,5.07,4.34,10.15,6.52,15.21.94,1.72,1.95,4.48,2.66,7.94.47,2.22.52,4.03.16,5.4-.9,3.68-3.51,6.9-7.8,9.66l.83,1.98,71.13-30.43-3.7-29.99h-.02ZM1714.53,1003.51l1.65-13.43c2.05,6.79,5.34,12.93,9.85,18.37l-11.52-4.94h.02ZM1808.31,946.56l-4.74,1.16h-.03c-.03-.12-.07-.23-.09-.35-.19-1.04-.28-2.05-.23-3.01l5.09,2.19ZM1800.26,937.56l-1.25,2.14-1.86-.8,3.11-1.34ZM1797.65,941.99c-.89,1.44-1.43,2.61-1.56,3.48-.16.9.05,1.98.61,3.28.26.64.45,1.08.54,1.36.09.26.17.52.3.76l.31.75s-.03.07-.03.1c-.36.71-.7,1.39-.99,2.09l-.45,1.09-2.59,6.05-2.59-6.05-.45-1.09c-.3-.7-.63-1.37-.97-2.09,0-.03-.03-.07-.05-.1l.31-.75c.12-.24.21-.5.31-.76.09-.28.26-.73.54-1.36.54-1.3.75-2.38.61-3.28-.16-.87-.68-2.03-1.58-3.48l3.88-1.65s3.88,1.65,3.88,1.65ZM1790.41,938.9l-1.88.8-1.25-2.14s3.13,1.34,3.13,1.34ZM1779.23,946.56l5.11-2.19c.03.96-.03,1.95-.24,3.01,0,.12-.05.23-.07.35h-.03s-4.76-1.16-4.76-1.16ZM1770.63,1015.05l-.45,1.09c-.3.68-.57,1.39-.85,2.14-.57,1.34-.78,2.4-.68,3.18s.71,2.03,1.74,3.74l1.7,2.94-18.77-8.03,3.3-.8c1.93-.45,3.21-.9,3.91-1.36.68-.47,1.3-1.36,1.84-2.62.3-.7.5-1.15.63-1.37.14-.23.24-.45.36-.73l.45-1.09,23.1-53.92,1.22-2.85c.9,1.6,1.95,3.72,3.09,6.41.38.85.75,1.72,1.11,2.59,0,0-21.71,50.69-21.71,50.69ZM1782.99,992.95c.16-.38.33-.75.49-1.13,3.44-8.03,6.86-16.06,10.31-24.1,3.44,8.03,6.88,16.06,10.32,24.1.16.38.31.75.47,1.13h-21.58ZM1815.45,1028.15l1.7-2.94c1.04-1.7,1.63-2.95,1.74-3.74.12-.78-.1-1.86-.68-3.18-.26-.75-.54-1.46-.83-2.14l-.47-1.09-21.71-50.69c.38-.87.75-1.74,1.11-2.59,1.15-2.69,2.19-4.81,3.11-6.41l1.82,4.26,22.47,52.52.47,1.09c.1.26.23.49.35.73s.33.7.63,1.37c.56,1.29,1.16,2.15,1.86,2.62.68.45,1.96.92,3.89,1.36l3.3.8-18.77,8.03h0ZM1861.5,1008.45c4.52-5.44,7.8-11.56,9.87-18.37l1.65,13.43-11.52,4.94Z"/>
      </g>
      <g>
        <path class="cls-2" d="M45.73,977.45c.98.05,1.72.09,2.23.12.51.02.91.03,1.22.03.59,0,1.18-.01,1.75-.03s1.14-.06,1.7-.1v.96h-.42c-.72,0-1.21.25-1.46.75-.26.5-.38,1.64-.38,3.43v2.72l.04,10.03c.51.03,1,.05,1.46.06.46.01.9.02,1.31.02,2.45,0,4.02-.23,4.73-.68.71-.45,1.27-1.32,1.69-2.62l.99.3c-.28.79-.53,1.56-.75,2.31-.22.76-.41,1.52-.58,2.29-1.51-.05-2.91-.08-4.18-.1-1.27-.02-2.47-.03-3.58-.03-.78,0-1.66.01-2.63.03-.97.02-2.11.06-3.42.1v-.89c.06.01.13.02.19.02s.15,0,.27,0c1.23,0,1.85-1.76,1.86-5.27,0-.79,0-1.41.01-1.86l.03-3.72c0-.4,0-.92.01-1.55,0-.63.01-1.07.01-1.31,0-1.68-.14-2.77-.4-3.28s-.79-.76-1.57-.76h-.11v-.97Z"/>
        <path class="cls-2" d="M65.34,983.19c-.06,1.79-.11,3.36-.15,4.7-.04,1.35-.05,2.28-.05,2.8,0,1.95.2,3.26.6,3.91.4.65,1.09.98,2.07.98.48,0,1.02-.12,1.62-.36.59-.24,1.27-.6,2.03-1.08.03-1.41.05-2.56.06-3.48s.02-1.58.02-2.01v-.93c0-1.15-.1-1.87-.29-2.16-.19-.29-.56-.44-1.11-.44-.09,0-.19,0-.29,0s-.21.01-.32.02l-.08-.88c.78-.05,1.54-.14,2.29-.26s1.49-.26,2.21-.44c-.05,1.56-.1,2.95-.12,4.18-.03,1.22-.04,2.29-.04,3.2,0,.37,0,.84-.01,1.4,0,.56-.01.93-.01,1.12,0,.85.07,1.41.22,1.67.15.26.42.4.82.4.09,0,.2,0,.32-.03.12-.02.28-.05.49-.11l.11.85-4.18,1.05-.05-2.04c-.99.75-1.85,1.3-2.59,1.64-.74.35-1.42.52-2.03.52-1.25,0-2.23-.36-2.93-1.08-.7-.72-1.05-1.72-1.05-3.01,0-.33.01-1.02.04-2.07,0-.44.01-.78.01-1.03l.04-1.53c0-.26,0-.58.01-.98,0-.4.01-.67.01-.81,0-.78-.07-1.3-.2-1.56s-.38-.38-.73-.38c-.11,0-.24,0-.38.03-.15.02-.3.04-.45.05l-.1-.89c.66-.11,1.33-.24,2.03-.4s1.43-.35,2.18-.57Z"/>
        <path class="cls-2" d="M77.49,996.07h.21c.47,0,.83-.07,1.07-.2.24-.13.41-.36.52-.69.14-.47.22-2.62.25-6.46,0-.36.01-.63.01-.81l.03-2.66c0-.59.02-1.4.05-2.43.02-1.03.03-1.74.03-2.14,0-1.12-.08-1.88-.24-2.26s-.45-.58-.88-.58c-.13,0-.34.03-.63.08-.07.02-.12.03-.15.03l-.21-.89c.75-.15,1.48-.32,2.2-.51.72-.2,1.44-.43,2.16-.69-.06,3.19-.12,6.03-.16,8.53-.04,2.5-.06,4.2-.06,5.09v4.94c0,.74.11,1.2.34,1.37.22.17.71.26,1.46.27v.96c-.63-.05-1.2-.1-1.7-.12-.5-.03-.94-.04-1.33-.04-.58,0-1.11.01-1.57.04-.46.03-.93.07-1.4.12v-.96ZM87.49,997.03v-.27c-.01-.37-.29-.85-.84-1.45-.15-.16-.26-.27-.33-.36l-4.63-5.2c.5-.47,1.17-1.09,2.01-1.85,1.84-1.68,2.77-2.68,2.77-3.01,0-.11-.09-.2-.26-.26-.17-.06-.42-.1-.73-.1h-.19v-.93c.57.03,1.08.05,1.51.06.43.01.81.02,1.12.02.41,0,.85,0,1.33-.02.47-.01.97-.03,1.49-.06v.92s-.07,0-.12,0c-.05,0-.12,0-.21,0-.98,0-2.65,1.09-5.02,3.27-.61.56-1.09.99-1.42,1.29l4.86,5.23c.09.1.22.25.4.45.78.9,1.52,1.36,2.23,1.36.1,0,.18,0,.24,0,.06,0,.11,0,.16,0l-.04.94c-.53-.05-.99-.08-1.38-.1-.39-.02-.74-.03-1.05-.03-.15,0-.33,0-.55.02-.22.01-.67.05-1.35.12Z"/>
        <path class="cls-2" d="M104.21,989.38h-6.68c-.52,0-1,0-1.44.03-.44.02-.84.05-1.22.08v.51c0,1.79.41,3.17,1.24,4.15.83.98,1.99,1.46,3.5,1.46.67,0,1.32-.11,1.97-.34.65-.22,1.34-.57,2.07-1.05l.53.88c-.94.77-1.88,1.35-2.81,1.74-.94.39-1.86.59-2.77.59-1.77,0-3.23-.63-4.38-1.9-1.15-1.26-1.72-2.89-1.72-4.87,0-2.11.6-3.88,1.81-5.31,1.2-1.43,2.67-2.15,4.41-2.15,1.62,0,2.9.54,3.86,1.62s1.51,2.6,1.64,4.56ZM101.67,987.94c-.27-1.12-.69-1.98-1.25-2.58s-1.22-.9-2-.9c-.88,0-1.63.35-2.25,1.05-.63.7-1.03,1.65-1.23,2.85,1.81,0,3.23-.03,4.26-.1,1.04-.06,1.86-.17,2.46-.33Z"/>
        <path class="cls-2" d="M45.73,1004.9c.98.05,1.72.09,2.23.12.51.02.91.03,1.22.03.59,0,1.18-.01,1.75-.03s1.14-.06,1.7-.1v.96h-.42c-.72,0-1.21.25-1.46.75-.26.5-.38,1.64-.38,3.43v2.72l.04,10.03c.51.03,1,.05,1.46.06.46.01.9.02,1.31.02,2.45,0,4.02-.23,4.73-.68.71-.45,1.27-1.32,1.69-2.62l.99.3c-.28.79-.53,1.56-.75,2.31-.22.76-.41,1.52-.58,2.29-1.51-.05-2.91-.08-4.18-.1-1.27-.02-2.47-.03-3.58-.03-.78,0-1.66.01-2.63.03-.97.02-2.11.06-3.42.1v-.89c.06.01.13.02.19.02s.15,0,.27,0c1.23,0,1.85-1.76,1.86-5.27,0-.79,0-1.41.01-1.86l.03-3.72c0-.4,0-.92.01-1.55,0-.63.01-1.07.01-1.31,0-1.68-.14-2.77-.4-3.28s-.79-.76-1.57-.76h-.11v-.97Z"/>
        <path class="cls-2" d="M74.18,1022.49l.38.86c-.68.49-1.31.87-1.88,1.14-.57.27-1.02.4-1.37.4-.58,0-1.02-.17-1.31-.51-.29-.34-.45-.86-.48-1.55-1,.67-1.82,1.14-2.48,1.43-.66.29-1.25.43-1.77.43-.92,0-1.69-.35-2.31-1.04-.62-.69-.93-1.54-.93-2.55,0-1.71,1.84-2.99,5.52-3.86.87-.2,1.54-.36,2.03-.48,0-.16,0-.38.01-.67.03-.6.04-1,.04-1.18,0-.95-.2-1.65-.59-2.1-.39-.45-.99-.68-1.79-.68s-1.4.14-1.85.43c-.45.29-.68.68-.68,1.17,0,.05,0,.11.01.18,0,.08.01.14.01.17,0,.28-.14.52-.41.7-.27.19-.6.28-.99.28-.33,0-.57-.05-.72-.16s-.23-.28-.23-.51c0-.73.62-1.54,1.85-2.44,1.23-.9,2.51-1.35,3.82-1.35s2.23.35,2.89,1.05.99,1.72.99,3.07c0,.73-.04,1.85-.13,3.37-.09,1.52-.13,2.67-.13,3.45,0,.59.07.99.2,1.2.13.21.37.31.71.31.15,0,.34-.04.57-.13.23-.09.58-.24,1.03-.46ZM69.51,1017.87c-.17.05-.43.11-.78.2-2.97.81-4.45,1.77-4.45,2.88,0,.6.19,1.09.58,1.47.38.38.89.57,1.52.57.38,0,.83-.1,1.33-.3.5-.2,1.09-.52,1.75-.96l.05-3.86Z"/>
        <path class="cls-2" d="M80.24,1010.49l-.16,2.3c1.03-.75,1.93-1.29,2.69-1.63.76-.34,1.46-.51,2.1-.51,1.34,0,2.35.38,3.02,1.14s1.01,1.89,1.01,3.41c0,0,0,.41-.01,1.2s-.01,1.59-.01,2.38c0,.34,0,.76-.01,1.27,0,.51-.01.85-.01,1.03,0,1.02.09,1.69.27,2s.53.47,1.04.47c.03,0,.08,0,.16-.01.08,0,.14-.01.17-.01v.96c-.82-.05-1.44-.09-1.86-.11s-.77-.03-1.05-.03c-.44,0-.91.01-1.42.03-.51.02-1.03.06-1.56.1v-.96s.19,0,.19,0c1.17,0,1.76-1.07,1.78-3.2,0-.12.01-.21.01-.27l.03-2.94v-.49c0-1.69-.2-2.81-.59-3.36-.39-.55-1.07-.83-2.03-.83-.53,0-1.12.13-1.76.38s-1.32.62-2.05,1.12c-.04.95-.06,1.85-.08,2.69-.02.84-.03,1.61-.03,2.29v1.89c0,1.21.09,1.97.27,2.29.18.32.53.48,1.05.48.04,0,.09,0,.17-.01.08,0,.14-.01.18-.01v.96c-.78-.05-1.4-.09-1.85-.11-.45-.02-.82-.03-1.12-.03-.27,0-.63.01-1.08.03-.45.02-1.07.05-1.88.11v-.96s.25,0,.25,0c1.14,0,1.72-1.11,1.73-3.33,0-.33,0-.58.01-.77l.03-3.35v-1.35c0-.89-.07-1.48-.2-1.76-.14-.28-.39-.42-.75-.42-.07,0-.17,0-.28.03-.11.02-.23.05-.36.08l-.16-.85c.68-.13,1.37-.3,2.06-.52s1.39-.48,2.11-.79Z"/>
        <path class="cls-2" d="M96.67,1010.49l-.16,2.3c1.03-.75,1.93-1.29,2.69-1.63.76-.34,1.46-.51,2.1-.51,1.34,0,2.35.38,3.02,1.14s1.01,1.89,1.01,3.41c0,0,0,.41-.01,1.2s-.01,1.59-.01,2.38c0,.34,0,.76-.01,1.27,0,.51-.01.85-.01,1.03,0,1.02.09,1.69.27,2s.53.47,1.04.47c.03,0,.08,0,.16-.01.08,0,.14-.01.17-.01v.96c-.82-.05-1.44-.09-1.86-.11s-.77-.03-1.05-.03c-.44,0-.91.01-1.42.03-.51.02-1.03.06-1.56.1v-.96s.19,0,.19,0c1.17,0,1.76-1.07,1.78-3.2,0-.12.01-.21.01-.27l.03-2.94v-.49c0-1.69-.2-2.81-.59-3.36-.39-.55-1.07-.83-2.03-.83-.53,0-1.12.13-1.76.38s-1.32.62-2.05,1.12c-.04.95-.06,1.85-.08,2.69-.02.84-.03,1.61-.03,2.29v1.89c0,1.21.09,1.97.27,2.29.18.32.53.48,1.05.48.04,0,.09,0,.17-.01.08,0,.14-.01.18-.01v.96c-.78-.05-1.4-.09-1.85-.11-.45-.02-.82-.03-1.12-.03-.27,0-.63.01-1.08.03-.45.02-1.07.05-1.88.11v-.96s.25,0,.25,0c1.14,0,1.72-1.11,1.73-3.33,0-.33,0-.58.01-.77l.03-3.35v-1.35c0-.89-.07-1.48-.2-1.76-.14-.28-.39-.42-.75-.42-.07,0-.17,0-.28.03-.11.02-.23.05-.36.08l-.16-.85c.68-.13,1.37-.3,2.06-.52s1.39-.48,2.11-.79Z"/>
        <path class="cls-2" d="M113.29,1010.49c0,.35-.02.84-.04,1.48-.12,3.67-.18,6.25-.18,7.75v1.45c0,1.06.1,1.72.3,2,.2.27.59.41,1.18.41.05,0,.13,0,.22-.01.09,0,.16-.01.2-.01v.93c-.78-.05-1.4-.09-1.88-.11s-.88-.03-1.2-.03c-.29,0-.66.01-1.12.03s-1.13.05-2.03.11v-.96h.34c1.13,0,1.7-1.11,1.71-3.34v-.75l.05-3.38c0-.25,0-.56.01-.93,0-.37.01-.62.01-.75,0-.74-.07-1.23-.21-1.46-.14-.24-.4-.36-.77-.36-.07,0-.18,0-.32.02-.14.01-.29.03-.46.05l-.14-.86c.72-.14,1.44-.31,2.16-.52.72-.21,1.43-.46,2.16-.74ZM111.81,1004.04l.97.72c.26.19.44.38.56.58.12.19.18.39.18.6s-.05.39-.14.54c-.1.15-.28.33-.54.53l-1.03.78-.96-.75c-.26-.21-.46-.4-.57-.58-.12-.18-.18-.37-.18-.57s.05-.38.14-.53.28-.33.56-.54l1.01-.78Z"/>
        <path class="cls-2" d="M121.29,1010.49l-.16,2.3c1.03-.75,1.93-1.29,2.69-1.63.76-.34,1.46-.51,2.1-.51,1.34,0,2.35.38,3.02,1.14s1.01,1.89,1.01,3.41c0,0,0,.41-.01,1.2s-.01,1.59-.01,2.38c0,.34,0,.76-.01,1.27,0,.51-.01.85-.01,1.03,0,1.02.09,1.69.27,2s.53.47,1.04.47c.03,0,.08,0,.16-.01.08,0,.14-.01.17-.01v.96c-.82-.05-1.44-.09-1.86-.11s-.77-.03-1.05-.03c-.44,0-.91.01-1.42.03-.51.02-1.03.06-1.56.1v-.96s.19,0,.19,0c1.17,0,1.76-1.07,1.78-3.2,0-.12.01-.21.01-.27l.03-2.94v-.49c0-1.69-.2-2.81-.59-3.36-.39-.55-1.07-.83-2.03-.83-.53,0-1.12.13-1.76.38s-1.32.62-2.05,1.12c-.04.95-.06,1.85-.08,2.69-.02.84-.03,1.61-.03,2.29v1.89c0,1.21.09,1.97.27,2.29.18.32.53.48,1.05.48.04,0,.09,0,.17-.01.08,0,.14-.01.18-.01v.96c-.78-.05-1.4-.09-1.85-.11-.45-.02-.82-.03-1.12-.03-.27,0-.63.01-1.08.03-.45.02-1.07.05-1.88.11v-.96s.25,0,.25,0c1.14,0,1.72-1.11,1.73-3.33,0-.33,0-.58.01-.77l.03-3.35v-1.35c0-.89-.07-1.48-.2-1.76-.14-.28-.39-.42-.75-.42-.07,0-.17,0-.28.03-.11.02-.23.05-.36.08l-.16-.85c.68-.13,1.37-.3,2.06-.52s1.39-.48,2.11-.79Z"/>
        <path class="cls-2" d="M141.93,1011.61c.61,0,1.23,0,1.85-.03.63-.02,1.25-.04,1.88-.08l-.07,1.37c-.4-.04-.84-.08-1.32-.1-.48-.02-1.03-.03-1.66-.03.43.33.76.73.98,1.2s.34.99.34,1.55c0,1.23-.51,2.29-1.54,3.18-1.03.89-2.29,1.33-3.78,1.33-.16,0-.37-.01-.66-.03-.28-.02-.48-.04-.6-.05-.25.16-.48.34-.7.51-.22.18-.42.36-.6.56.14.25.29.49.47.7.18.21.39.42.62.61.28,0,.69,0,1.22-.01,1.28-.03,2.12-.04,2.52-.04,1.65,0,2.84.25,3.57.75.72.5,1.09,1.31,1.09,2.42,0,.71-.2,1.43-.6,2.16-.4.72-.96,1.39-1.68,1.99-.74.61-1.59,1.09-2.55,1.44-.96.35-1.92.52-2.87.52-1.41,0-2.6-.37-3.55-1.12s-1.43-1.66-1.43-2.72c0-.62.2-1.23.6-1.83.4-.6,1.09-1.3,2.09-2.11-.41-.37-.75-.76-1.02-1.15-.27-.39-.49-.82-.65-1.29.33-.31.69-.6,1.08-.88.39-.28.83-.55,1.3-.83-.92-.29-1.64-.78-2.16-1.47-.52-.68-.78-1.48-.78-2.38,0-1.42.52-2.61,1.57-3.59s2.35-1.47,3.92-1.47c.58,0,1.11.08,1.62.23.5.15,1.01.39,1.52.7ZM136.2,1024.29c-.45.5-.78.96-.99,1.37s-.31.8-.31,1.18c0,.85.38,1.56,1.14,2.15s1.72.88,2.87.88c1.31,0,2.44-.36,3.39-1.09.95-.72,1.43-1.54,1.43-2.44,0-.74-.23-1.26-.7-1.56-.46-.3-1.36-.45-2.68-.45-.14,0-.44,0-.9-.01-.46,0-.86-.01-1.18-.01h-2.07ZM138.69,1011.69c-.98,0-1.73.3-2.27.9s-.81,1.45-.81,2.55c0,1.2.26,2.14.79,2.81.52.67,1.26,1.01,2.21,1.01s1.71-.3,2.26-.91c.55-.61.82-1.44.82-2.51,0-1.23-.26-2.18-.78-2.85-.52-.67-1.26-1-2.22-1Z"/>
      </g>
    </g>
  </g>
</svg>