<?xml version="1.0" encoding="UTF-8"?>
<svg id="Layer_2" data-name="Layer 2" xmlns="http://www.w3.org/2000/svg" xmlns:xlink="http://www.w3.org/1999/xlink" viewBox="0 0 252.66 144">
  <defs>
    <style>
      .cls-1 {
        fill: none;
      }

      .cls-2 {
        fill: #231f20;
      }

      .cls-3 {
        fill: url(#radial-gradient);
      }

      .cls-4 {
        font-size: 9px;
      }

      .cls-4, .cls-5 {
        font-family: MyriadPro-Regular, 'Myriad Pro';
      }

      .cls-4, .cls-5, .cls-6 {
        fill: #fff;
      }

      .cls-7 {
        clip-path: url(#clippath-1);
      }

      .cls-8 {
        clip-path: url(#clippath-2);
      }

      .cls-5 {
        font-size: 10px;
      }

      .cls-9 {
        letter-spacing: 0em;
      }

      .cls-10 {
        letter-spacing: 0em;
      }

      .cls-11 {
        fill: #1a1717;
      }

      .cls-12 {
        letter-spacing: -.03em;
      }

      .cls-13 {
        letter-spacing: -.02em;
      }

      .cls-14 {
        letter-spacing: -.01em;
      }

      .cls-15 {
        letter-spacing: -.01em;
      }

      .cls-16 {
        letter-spacing: 0em;
      }

      .cls-17 {
        letter-spacing: 0em;
      }

      .cls-18 {
        letter-spacing: 0em;
      }

      .cls-19 {
        letter-spacing: 0em;
      }

      .cls-20 {
        letter-spacing: -.01em;
      }

      .cls-21 {
        letter-spacing: -.01em;
      }

      .cls-22 {
        letter-spacing: 0em;
      }

      .cls-23 {
        letter-spacing: 0em;
      }

      .cls-24 {
        letter-spacing: 0em;
      }

      .cls-6 {
        font-family: MinionVariableConcept-Roman, 'Minion Variable Concept';
        font-size: 24px;
        font-variation-settings: 'wght' 400, 'opsz' 11;
      }

      .cls-25 {
        letter-spacing: .02em;
      }

      .cls-26 {
        clip-path: url(#clippath);
      }

      .cls-27 {
        letter-spacing: .01em;
      }

      .cls-28 {
        fill: #7a1b2b;
      }

      .cls-29 {
        letter-spacing: 0em;
      }

      .cls-30 {
        letter-spacing: 0em;
      }

      .cls-31 {
        letter-spacing: .01em;
      }

      .cls-32 {
        letter-spacing: 0em;
      }
    </style>
    <clipPath id="clippath">
      <path class="cls-1" d="M172.75,79.29c.74-.02,1.52.02,2.34.2.09,0,.18.04.27.04v.02s-.92,3.71-.92,3.71l-1.7-3.97ZM172.75,64.64c.74.04,1.52-.02,2.34-.18.09,0,.18-.04.27-.07v-.02s-.92-3.68-.92-3.68l-1.7,3.95Z"/>
    </clipPath>
    <radialGradient id="radial-gradient" cx="141.58" cy="-138.37" fx="141.58" fy="-138.37" r="40.35" gradientTransform="translate(73.33 213.54) rotate(-90) scale(1 -1)" gradientUnits="userSpaceOnUse">
      <stop offset="0" stop-color="#ffcb23"/>
      <stop offset="1" stop-color="#791b2a"/>
    </radialGradient>
    <clipPath id="clippath-1">
      <path class="cls-1" d="M232.61,52.45c-.6-.09-1.45.07-2.48.51-.58.2-1.14.42-1.65.65l-.85.38-39.36,16.86c-.67-.29-1.36-.58-2.01-.87-2.1-.89-3.73-1.7-4.98-2.41l3.3-1.41,40.79-17.46.85-.38c.2-.07.38-.18.56-.27s.54-.25,1.07-.49c1-.42,1.67-.92,2.03-1.45.36-.51.71-1.54,1.05-3.01l.63-2.57,6.23,14.58-2.28-1.32c-1.32-.83-2.3-1.27-2.9-1.36v.02Z"/>
    </clipPath>
    <clipPath id="clippath-2">
      <path class="cls-1" d="M235.53,90.14l2.28-1.32-6.23,14.58-.63-2.57c-.33-1.5-.69-2.5-1.05-3.04-.38-.51-1.05-1-2.03-1.43-.54-.22-.89-.4-1.07-.49-.18-.11-.36-.2-.56-.29l-.85-.36-41.88-17.93-2.21-.94c1.23-.69,2.88-1.5,4.98-2.39.67-.29,1.34-.58,2.01-.87l39.36,16.86.85.36c.51.22,1.09.45,1.65.67,1.03.45,1.85.6,2.48.51s1.59-.56,2.9-1.36Z"/>
    </clipPath>
  </defs>
  <g id="Layer_1-2" data-name="Layer 1">
    <g>
      <rect class="cls-11" width="252" height="144"/>
      <g id="Layer_1-2" data-name="Layer 1-2">
        <g>
          <path class="cls-28" d="M222.92,120.77h4.22s-7.43,17.37-7.43,17.37l-14.53-1.81v-5.02c1.05-.38,2.08-.76,3.06-1.14,3.26-1.29,6.14-2.72,8.6-4.31,2.46-1.56,4.49-3.26,6.09-5.11v.02Z"/>
          <path class="cls-2" d="M196.42,8.67l.67,1.56c4.15,1.05,7.88,2.23,11.14,3.53,3.26,1.29,6.14,2.72,8.6,4.29,2.46,1.56,4.49,3.26,6.09,5.11,1.59,1.83,2.88,3.86,3.82,6.09l.45,1.05c1.81,4.2,2.08,7.46.83,9.76-.63,1.14-1.59,2.14-2.9,3.06-1.32.89-3.21,1.88-5.72,2.95l-38.11,16.3c-1.45.63-2.72,1.09-3.86,1.47-.09-.16-.2-.33-.27-.51-1.16-2.46-1.29-5.45-.42-8.93l-1.56-.67-4.51,10.56c-2.84-.87-5.4-3.15-7.68-6.83l-1.54.67,3.44,8.06,2.48,5.83-2.28,5.34-3.64,8.53,1.54.67c2.28-3.68,4.84-5.96,7.68-6.85l4.51,10.56,1.56-.67c-.87-3.51-.74-6.47.42-8.93.07-.18.18-.33.27-.51,1.12.36,2.39.85,3.86,1.45l38.11,16.32c2.5,1.07,4.4,2.05,5.72,2.95,1.29.89,2.28,1.92,2.9,3.04,1.25,2.32.98,5.58-.83,9.76l-.45,1.05c-.96,2.21-2.23,4.26-3.82,6.09-1.59,1.83-3.62,3.55-6.09,5.11-2.46,1.56-5.34,2.99-8.6,4.31-.98.38-2.01.76-3.06,1.14-2.48.85-5.16,1.65-8.08,2.39l-.67,1.54,8.75,1.09,14.53,1.81,7.43-17.37,16.21-37.89-1.54-.67c-2.14,3.35-4.64,5.36-7.5,6.07-1.07.29-2.48.25-4.2-.11-2.68-.56-4.82-1.36-6.16-2.08-3.93-1.67-7.88-3.37-11.81-5.05v-18.2c3.95-1.67,7.88-3.37,11.81-5.07,1.34-.74,3.48-1.5,6.16-2.08,1.72-.38,3.13-.4,4.2-.11,2.86.69,5.36,2.72,7.5,6.05l1.54-.65-23.64-55.23-23.29,2.88v-.02ZM218.68,133.52l-10.43-1.29c5.29-1.59,10.05-4.15,14.27-7.66l-3.82,8.95h-.02ZM174.45,60.67l.92,3.68v.02s-.18.04-.27.07c-.83.16-1.59.22-2.34.18l1.7-3.95ZM167.46,66.92l1.65.96-.63,1.45-1.03-2.41ZM170.9,68.95c1.12.69,2.03,1.12,2.7,1.21.69.11,1.54-.04,2.55-.47.49-.2.85-.33,1.05-.42.2-.07.4-.13.6-.22l.58-.25s.04.02.07.02c.56.29,1.09.54,1.63.76l.85.36,4.69,2.01-4.69,2.01-.85.36c-.54.22-1.07.49-1.63.76-.02,0-.04.02-.07.04l-.58-.25c-.2-.09-.4-.16-.6-.25-.22-.07-.56-.2-1.05-.42-1-.42-1.85-.58-2.55-.47-.67.11-1.59.51-2.7,1.23l-1.29-3.01,1.29-3.01v.02ZM168.49,74.58l.63,1.45-1.65.96,1.03-2.43v.02ZM174.45,83.26l-1.7-3.97c.74-.02,1.52.02,2.34.2.09,0,.18.04.27.04v.02s-.92,3.71-.92,3.71ZM227.63,89.94l.85.36c.51.22,1.09.45,1.65.67,1.03.45,1.85.6,2.48.51s1.59-.56,2.9-1.36l2.28-1.32-6.23,14.58-.63-2.57c-.33-1.5-.69-2.5-1.05-3.04-.38-.51-1.05-1-2.03-1.43-.54-.22-.89-.4-1.07-.49-.18-.11-.36-.2-.56-.29l-.85-.36-41.88-17.93-2.21-.94c1.23-.69,2.88-1.5,4.98-2.39.67-.29,1.34-.58,2.01-.87,0,0,39.36,16.86,39.36,16.86ZM210.46,80.36c-.29-.13-.58-.25-.87-.38-6.23-2.66-12.48-5.34-18.71-7.99,6.23-2.66,12.48-5.34,18.71-8.01.29-.13.58-.25.87-.38,0,0,0,16.77,0,16.77ZM237.81,55.13l-2.28-1.32c-1.32-.83-2.3-1.27-2.9-1.36s-1.45.07-2.48.51c-.58.2-1.14.42-1.65.65l-.85.38-39.36,16.86c-.67-.29-1.36-.58-2.01-.87-2.1-.89-3.73-1.7-4.98-2.41l3.3-1.41,40.79-17.46.85-.38c.2-.07.38-.18.56-.27s.54-.25,1.07-.49c1-.42,1.67-.92,2.03-1.45.36-.51.71-1.54,1.05-3.01l.63-2.57,6.23,14.58v.02ZM222.49,19.37c-4.22-3.51-8.97-6.05-14.27-7.66l10.43-1.27,3.82,8.95.02-.02Z"/>
          <g>
            <polygon class="cls-28" points="168.49 74.58 169.11 76.03 167.46 77.01 168.49 74.58"/>
            <polygon class="cls-28" points="167.46 66.92 169.11 67.9 168.49 69.33 167.46 66.92"/>
          </g>
          <g class="cls-26">
            <rect class="cls-3" x="170.74" y="32.23" width="81.91" height="79.46"/>
          </g>
          <g class="cls-7">
            <rect class="cls-3" x="170.74" y="32.23" width="81.91" height="79.46"/>
          </g>
          <g class="cls-8">
            <rect class="cls-3" x="170.74" y="32.23" width="81.91" height="79.46"/>
          </g>
          <path class="cls-28" d="M218.68,10.44l3.82,8.95c-4.22-3.51-8.97-6.05-14.27-7.66l10.43-1.27.02-.02Z"/>
          <path class="cls-28" d="M178.38,68.8s.04.02.07.02c.56.29,1.09.54,1.63.76l.85.36,4.69,2.01-4.69,2.01-.85.36c-.54.22-1.07.49-1.63.76-.02,0-.04.02-.07.04l-.58-.25c-.2-.09-.4-.16-.6-.25-.22-.07-.56-.2-1.05-.42-1-.42-1.85-.58-2.55-.47-.67.11-1.59.51-2.7,1.23l-1.29-3.01,1.29-3.01c1.12.69,2.03,1.12,2.7,1.21.69.11,1.54-.04,2.55-.47.49-.2.85-.33,1.05-.42.2-.07.4-.13.6-.22l.58-.25v.02Z"/>
        </g>
      </g>
      <text class="cls-5" transform="translate(12.57 120.57)"><tspan class="cls-19" x="0" y="0">h</tspan><tspan x="5.51" y="0">ttps://tial</tspan><tspan class="cls-21" x="43.54" y="0">l</tspan><tspan x="45.8" y="0">.</tspan><tspan class="cls-16" x="47.87" y="0">g</tspan><tspan x="53.4" y="0">ithu</tspan><tspan class="cls-13" x="70.11" y="0">b</tspan><tspan x="75.56" y="0">.io/</tspan><tspan class="cls-12" x="88.89" y="0">P</tspan><tspan class="cls-9" x="93.96" y="0">ersonal-</tspan><tspan class="cls-12" x="127.49" y="0">P</tspan><tspan x="132.56" y="0">o</tspan><tspan class="cls-25" x="138.05" y="0">r</tspan><tspan x="141.56" y="0">t</tspan><tspan class="cls-14" x="144.87" y="0">f</tspan><tspan x="147.66" y="0">olio/</tspan></text>
      <text class="cls-6" transform="translate(11.98 38.56)"><tspan class="cls-15" x="0" y="0">L</tspan><tspan x="13.3" y="0">u</tspan><tspan class="cls-30" x="26.11" y="0">k</tspan><tspan x="37.97" y="0">e </tspan><tspan class="cls-27" x="53.93" y="0">L</tspan><tspan x="67.87" y="0">anni</tspan><tspan class="cls-22" x="111.67" y="0">n</tspan><tspan x="124.73" y="0">g</tspan></text>
      <text class="cls-5" transform="translate(13.19 81.36)"><tspan x="0" y="0">+1 515-478-0721</tspan></text>
      <text class="cls-4" transform="translate(13.19 49.51)"><tspan class="cls-29" x="0" y="0">S</tspan><tspan class="cls-10" x="4.49" y="0">o</tspan><tspan class="cls-31" x="9.43" y="0">f</tspan><tspan class="cls-32" x="12.16" y="0">t</tspan><tspan class="cls-18" x="15.22" y="0">w</tspan><tspan x="21.81" y="0">a</tspan><tspan class="cls-23" x="26.14" y="0">r</tspan><tspan x="29" y="0">e En</tspan><tspan class="cls-17" x="44.84" y="0">g</tspan><tspan x="49.81" y="0">ineer</tspan></text>
      <text class="cls-5" transform="translate(12.57 100.97)"><tspan x="0" y="0">luke@lanning</tspan><tspan class="cls-20" x="56.7" y="0">s</tspan><tspan x="60.55" y="0">.o</tspan><tspan class="cls-24" x="68.11" y="0">r</tspan><tspan x="71.3" y="0">g</tspan></text>
    </g>
  </g>
</svg>