<?xml version="1.0" encoding="UTF-8"?>
<svg id="Layer_2" data-name="Layer 2" xmlns="http://www.w3.org/2000/svg" viewBox="0 0 252 144">
  <defs>
    <style>
      .cls-1, .cls-2, .cls-3, .cls-4 {
        fill: #231f20;
      }

      .cls-2 {
        font-size: 9px;
      }

      .cls-2, .cls-3 {
        font-family: MyriadPro-Regular, 'Myriad Pro';
      }

      .cls-5 {
        fill: #fff;
      }

      .cls-3 {
        font-size: 10px;
      }

      .cls-6 {
        letter-spacing: 0em;
      }

      .cls-7 {
        letter-spacing: 0em;
      }

      .cls-8 {
        letter-spacing: -.03em;
      }

      .cls-9 {
        letter-spacing: -.02em;
      }

      .cls-10 {
        letter-spacing: -.01em;
      }

      .cls-11 {
        letter-spacing: -.01em;
      }

      .cls-12 {
        letter-spacing: 0em;
      }

      .cls-13 {
        letter-spacing: 0em;
      }

      .cls-14 {
        letter-spacing: 0em;
      }

      .cls-15 {
        letter-spacing: 0em;
      }

      .cls-16 {
        letter-spacing: -.01em;
      }

      .cls-17 {
        letter-spacing: -.01em;
      }

      .cls-18 {
        letter-spacing: 0em;
      }

      .cls-19 {
        letter-spacing: 0em;
      }

      .cls-20 {
        letter-spacing: 0em;
      }

      .cls-4 {
        font-family: MinionVariableConcept-Roman, 'Minion Variable Concept';
        font-size: 24px;
        font-variation-settings: 'wght' 400, 'opsz' 11;
      }

      .cls-21 {
        letter-spacing: .02em;
      }

      .cls-22 {
        letter-spacing: .01em;
      }

      .cls-23 {
        letter-spacing: 0em;
      }

      .cls-24 {
        letter-spacing: 0em;
      }

      .cls-25 {
        letter-spacing: .01em;
      }

      .cls-26 {
        letter-spacing: 0em;
      }
    </style>
  </defs>
  <g id="Layer_1-2" data-name="Layer 1">
    <g>
      <rect class="cls-5" width="252" height="144"/>
      <text class="cls-3" transform="translate(12.57 120.57)"><tspan class="cls-15" x="0" y="0">h</tspan><tspan x="5.51" y="0">ttps://tial</tspan><tspan class="cls-17" x="43.54" y="0">l</tspan><tspan x="45.8" y="0">.</tspan><tspan class="cls-12" x="47.87" y="0">g</tspan><tspan x="53.4" y="0">ithu</tspan><tspan class="cls-9" x="70.11" y="0">b</tspan><tspan x="75.56" y="0">.io/</tspan><tspan class="cls-8" x="88.89" y="0">P</tspan><tspan class="cls-6" x="93.96" y="0">ersonal-</tspan><tspan class="cls-8" x="127.49" y="0">P</tspan><tspan x="132.56" y="0">o</tspan><tspan class="cls-21" x="138.05" y="0">r</tspan><tspan x="141.56" y="0">t</tspan><tspan class="cls-10" x="144.87" y="0">f</tspan><tspan x="147.66" y="0">olio/</tspan></text>
      <text class="cls-4" transform="translate(11.98 38.56)"><tspan class="cls-11" x="0" y="0">L</tspan><tspan x="13.3" y="0">u</tspan><tspan class="cls-24" x="26.11" y="0">k</tspan><tspan x="37.97" y="0">e </tspan><tspan class="cls-22" x="53.93" y="0">L</tspan><tspan x="67.87" y="0">anni</tspan><tspan class="cls-18" x="111.67" y="0">n</tspan><tspan x="124.73" y="0">g</tspan></text>
      <text class="cls-3" transform="translate(13.19 81.36)"><tspan x="0" y="0">+1 515-478-0721</tspan></text>
      <text class="cls-2" transform="translate(13.19 49.51)"><tspan class="cls-23" x="0" y="0">S</tspan><tspan class="cls-7" x="4.49" y="0">o</tspan><tspan class="cls-25" x="9.43" y="0">f</tspan><tspan class="cls-26" x="12.16" y="0">t</tspan><tspan class="cls-14" x="15.22" y="0">w</tspan><tspan x="21.81" y="0">a</tspan><tspan class="cls-19" x="26.14" y="0">r</tspan><tspan x="29" y="0">e En</tspan><tspan class="cls-13" x="44.84" y="0">g</tspan><tspan x="49.81" y="0">ineer</tspan></text>
      <text class="cls-3" transform="translate(12.57 100.97)"><tspan x="0" y="0">luke@lanning</tspan><tspan class="cls-16" x="56.7" y="0">s</tspan><tspan x="60.55" y="0">.o</tspan><tspan class="cls-20" x="68.11" y="0">r</tspan><tspan x="71.3" y="0">g</tspan></text>
      <g id="Layer_1-2" data-name="Layer 1-2">
        <g>
          <path class="cls-1" d="M196.63,69.38c-.32,0-.62.06-.9.21-.31.1-.58.27-.8.52-.24.23-.42.49-.52.8-.16.3-.23.62-.22.96.02,1.07.04,2.13.06,3.2,0,.68.28,1.27.73,1.77.42.46,1.04.67,1.64.72.61-.05,1.22-.26,1.64-.72.45-.49.72-1.09.73-1.77.02-1.07.04-2.13.06-3.2,0-.34-.06-.67-.22-.96-.1-.31-.27-.58-.52-.8-.23-.24-.49-.42-.8-.52-.28-.15-.58-.21-.9-.21h.02Z"/>
          <path class="cls-1" d="M234.11,43.86c-.13-3.2-5.14-3.22-5,0,.41,10.09.4,20.19.01,30.27-6.16-.05-12.33-.07-18.49-.05-2.84-6.31-5.67-12.62-8.51-18.92-.35-.78-1.35-1.24-2.16-1.24-1.11,0-2.22-.01-3.33-.01s-2.22.01-3.33.01c-.81,0-1.81.46-2.16,1.24-2.83,6.3-5.67,12.61-8.51,18.92-6.16-.02-12.33,0-18.49.05-.39-10.08-.39-20.18.02-30.27.13-3.22-4.87-3.2-5,0-.45,10.93-.42,21.87.07,32.79.06,1.34,1.1,2.52,2.5,2.5,6.13-.06,12.27-.08,18.4-.07-3.13,6.57-5,13.67-5.53,20.96-.1,1.36,1.22,2.51,2.5,2.5,4.01,0,8.02,0,12.03-.02.86,0,1.73-.47,2.15-1.24,1.91-3.42,3.68-6.92,5.35-10.46,1.67,3.54,3.45,7.04,5.35,10.46.42.77,1.29,1.24,2.16,1.24,4.01,0,8.01.02,12.02.02,1.28,0,2.6-1.14,2.5-2.5-.52-7.29-2.4-14.39-5.53-20.96,6.13,0,12.27,0,18.41.07,1.39.02,2.44-1.16,2.5-2.5.49-10.92.51-21.86.07-32.79ZM213.41,97.54c-2.59,0-5.19,0-7.78,0-2.48-4.56-4.77-9.22-6.84-13.98-.35-.81-1.26-1.22-2.16-1.23-.9,0-1.8.42-2.16,1.23-2.07,4.76-4.36,9.42-6.84,13.98-2.59,0-5.18,0-7.78,0,.85-6.93,3.09-13.63,6.54-19.7,2.84-6.31,5.68-12.62,8.52-18.93h3.45c2.83,6.31,5.67,12.62,8.51,18.93,3.46,6.07,5.7,12.77,6.54,19.7Z"/>
        </g>
      </g>
    </g>
  </g>
</svg>