<?xml version="1.0" encoding="UTF-8"?>
<svg id="Layer_2" data-name="Layer 2" xmlns="http://www.w3.org/2000/svg" xmlns:xlink="http://www.w3.org/1999/xlink" viewBox="0 0 252 144.28">
  <defs>
    <style>
      .cls-1 {
        fill: none;
      }

      .cls-2 {
        font-family: MinionVariableConcept-Roman, 'Minion Variable Concept';
        font-size: 24px;
        font-variation-settings: 'wght' 400, 'opsz' 11;
      }

      .cls-2, .cls-3, .cls-4 {
        fill: #1a1717;
      }

      .cls-5 {
        fill: #231f20;
      }

      .cls-3 {
        font-size: 9px;
      }

      .cls-3, .cls-4 {
        font-family: MyriadPro-Regular, 'Myriad Pro';
      }

      .cls-6 {
        fill: url(#radial-gradient);
      }

      .cls-4 {
        font-size: 10px;
      }

      .cls-7 {
        clip-path: url(#clippath-1);
      }

      .cls-8 {
        clip-path: url(#clippath-2);
      }

      .cls-9 {
        fill: #fff;
      }

      .cls-10 {
        letter-spacing: 0em;
      }

      .cls-11 {
        letter-spacing: 0em;
      }

      .cls-12 {
        letter-spacing: -.03em;
      }

      .cls-13 {
        letter-spacing: -.02em;
      }

      .cls-14 {
        letter-spacing: -.01em;
      }

      .cls-15 {
        letter-spacing: -.01em;
      }

      .cls-16 {
        letter-spacing: 0em;
      }

      .cls-17 {
        letter-spacing: 0em;
      }

      .cls-18 {
        letter-spacing: 0em;
      }

      .cls-19 {
        letter-spacing: 0em;
      }

      .cls-20 {
        letter-spacing: -.01em;
      }

      .cls-21 {
        letter-spacing: -.01em;
      }

      .cls-22 {
        letter-spacing: 0em;
      }

      .cls-23 {
        letter-spacing: 0em;
      }

      .cls-24 {
        letter-spacing: 0em;
      }

      .cls-25 {
        letter-spacing: .02em;
      }

      .cls-26 {
        clip-path: url(#clippath);
      }

      .cls-27 {
        letter-spacing: .01em;
      }

      .cls-28 {
        fill: #7a1b2b;
      }

      .cls-29 {
        letter-spacing: 0em;
      }

      .cls-30 {
        letter-spacing: 0em;
      }

      .cls-31 {
        letter-spacing: .01em;
      }

      .cls-32 {
        letter-spacing: 0em;
      }
    </style>
    <clipPath id="clippath">
      <path class="cls-1" d="M236.03,64.71c-.74.02-1.52-.02-2.34-.2-.09,0-.18-.04-.27-.04v-.02s.92-3.71.92-3.71l1.7,3.97ZM236.03,79.36c-.74-.04-1.52.02-2.34.18-.09,0-.18.04-.27.07v.02s.92,3.68.92,3.68l1.7-3.95Z"/>
    </clipPath>
    <radialGradient id="radial-gradient" cx="246.91" cy="-37.04" fx="246.91" fy="-37.04" r="40.35" gradientTransform="translate(234.12 -174.86) rotate(90) scale(1 -1)" gradientUnits="userSpaceOnUse">
      <stop offset="0" stop-color="#ffcb23"/>
      <stop offset="1" stop-color="#791b2a"/>
    </radialGradient>
    <clipPath id="clippath-1">
      <path class="cls-1" d="M176.17,91.55c.6.09,1.45-.07,2.48-.51.58-.2,1.14-.42,1.65-.65l.85-.38,39.36-16.86c.67.29,1.36.58,2.01.87,2.1.89,3.73,1.7,4.98,2.41l-3.3,1.41-40.79,17.46-.85.38c-.2.07-.38.18-.56.27s-.54.25-1.07.49c-1,.42-1.67.92-2.03,1.45-.36.51-.71,1.54-1.05,3.01l-.63,2.57-6.23-14.58,2.28,1.32c1.32.83,2.3,1.27,2.9,1.36v-.02Z"/>
    </clipPath>
    <clipPath id="clippath-2">
      <path class="cls-1" d="M173.25,53.86l-2.28,1.32,6.23-14.58.63,2.57c.33,1.5.69,2.5,1.05,3.04.38.51,1.05,1,2.03,1.43.54.22.89.4,1.07.49.18.11.36.2.56.29l.85.36,41.88,17.93,2.21.94c-1.23.69-2.88,1.5-4.98,2.39-.67.29-1.34.58-2.01.87l-39.36-16.86-.85-.36c-.51-.22-1.09-.45-1.65-.67-1.03-.45-1.85-.6-2.48-.51s-1.59.56-2.9,1.36Z"/>
    </clipPath>
  </defs>
  <g id="Layer_1-2" data-name="Layer 1">
    <g>
      <rect class="cls-9" x="0" width="252" height="144"/>
      <rect class="cls-28" x="121.24" y="65.01" width="144.28" height="14.27" transform="translate(265.52 -121.24) rotate(90)"/>
      <rect class="cls-28" y="67.01" width="252" height="9.98"/>
      <g id="Layer_1-2" data-name="Layer 1-2">
        <g>
          <path class="cls-28" d="M185.86,23.23h-4.22s7.43-17.37,7.43-17.37l14.53,1.81v5.02c-1.05.38-2.08.76-3.06,1.14-3.26,1.29-6.14,2.72-8.6,4.31-2.46,1.56-4.49,3.26-6.09,5.11v-.02Z"/>
          <path class="cls-5" d="M212.36,135.33l-.67-1.56c-4.15-1.05-7.88-2.23-11.14-3.53-3.26-1.29-6.14-2.72-8.6-4.29-2.46-1.56-4.49-3.26-6.09-5.11-1.59-1.83-2.88-3.86-3.82-6.09l-.45-1.05c-1.81-4.2-2.08-7.46-.83-9.76.63-1.14,1.59-2.14,2.9-3.06,1.32-.89,3.21-1.88,5.72-2.95l38.11-16.3c1.45-.63,2.72-1.09,3.86-1.47.09.16.2.33.27.51,1.16,2.46,1.29,5.45.42,8.93l1.56.67,4.51-10.56c2.84.87,5.4,3.15,7.68,6.83l1.54-.67-3.44-8.06-2.48-5.83,2.28-5.34,3.64-8.53-1.54-.67c-2.28,3.68-4.84,5.96-7.68,6.85l-4.51-10.56-1.56.67c.87,3.51.74,6.47-.42,8.93-.07.18-.18.33-.27.51-1.12-.36-2.39-.85-3.86-1.45l-38.11-16.32c-2.5-1.07-4.4-2.05-5.72-2.95-1.29-.89-2.28-1.92-2.9-3.04-1.25-2.32-.98-5.58.83-9.76l.45-1.05c.96-2.21,2.23-4.26,3.82-6.09,1.59-1.83,3.62-3.55,6.09-5.11,2.46-1.56,5.34-2.99,8.6-4.31.98-.38,2.01-.76,3.06-1.14,2.48-.85,5.16-1.65,8.08-2.39l.67-1.54-8.75-1.09-14.53-1.81-7.43,17.37-16.21,37.89,1.54.67c2.14-3.35,4.64-5.36,7.5-6.07,1.07-.29,2.48-.25,4.2.11,2.68.56,4.82,1.36,6.16,2.08,3.93,1.67,7.88,3.37,11.81,5.05v18.2c-3.95,1.67-7.88,3.37-11.81,5.07-1.34.74-3.48,1.5-6.16,2.08-1.72.38-3.13.4-4.2.11-2.86-.69-5.36-2.72-7.5-6.05l-1.54.65,23.64,55.23,23.29-2.88v.02ZM190.1,10.48l10.43,1.29c-5.29,1.59-10.05,4.15-14.27,7.66l3.82-8.95h.02ZM234.33,83.33l-.92-3.68v-.02s.18-.04.27-.07c.83-.16,1.59-.22,2.34-.18l-1.7,3.95ZM241.32,77.08l-1.65-.96.63-1.45,1.03,2.41ZM237.88,75.05c-1.12-.69-2.03-1.12-2.7-1.21-.69-.11-1.54.04-2.55.47-.49.2-.85.33-1.05.42-.2.07-.4.13-.6.22l-.58.25s-.04-.02-.07-.02c-.56-.29-1.09-.54-1.63-.76l-.85-.36-4.69-2.01,4.69-2.01.85-.36c.54-.22,1.07-.49,1.63-.76.02,0,.04-.02.07-.04l.58.25c.2.09.4.16.6.25.22.07.56.2,1.05.42,1,.42,1.85.58,2.55.47.67-.11,1.59-.51,2.7-1.23l1.29,3.01-1.29,3.01v-.02ZM240.29,69.42l-.63-1.45,1.65-.96-1.03,2.43v-.02ZM234.33,60.74l1.7,3.97c-.74.02-1.52-.02-2.34-.2-.09,0-.18-.04-.27-.04v-.02s.92-3.71.92-3.71ZM181.15,54.06l-.85-.36c-.51-.22-1.09-.45-1.65-.67-1.03-.45-1.85-.6-2.48-.51s-1.59.56-2.9,1.36l-2.28,1.32,6.23-14.58.63,2.57c.33,1.5.69,2.5,1.05,3.04.38.51,1.05,1,2.03,1.43.54.22.89.4,1.07.49.18.11.36.2.56.29l.85.36,41.88,17.93,2.21.94c-1.23.69-2.88,1.5-4.98,2.39-.67.29-1.34.58-2.01.87,0,0-39.36-16.86-39.36-16.86ZM198.32,63.64c.29.13.58.25.87.38,6.23,2.66,12.48,5.34,18.71,7.99-6.23,2.66-12.48,5.34-18.71,8.01-.29.13-.58.25-.87.38,0,0,0-16.77,0-16.77ZM170.97,88.87l2.28,1.32c1.32.83,2.3,1.27,2.9,1.36s1.45-.07,2.48-.51c.58-.2,1.14-.42,1.65-.65l.85-.38,39.36-16.86c.67.29,1.36.58,2.01.87,2.1.89,3.73,1.7,4.98,2.41l-3.3,1.41-40.79,17.46-.85.38c-.2.07-.38.18-.56.27s-.54.25-1.07.49c-1,.42-1.67.92-2.03,1.45-.36.51-.71,1.54-1.05,3.01l-.63,2.57-6.23-14.58v-.02ZM186.29,124.63c4.22,3.51,8.97,6.05,14.27,7.66l-10.43,1.27-3.82-8.95-.02.02Z"/>
          <g>
            <polygon class="cls-28" points="240.29 69.42 239.67 67.97 241.32 66.99 240.29 69.42"/>
            <polygon class="cls-28" points="241.32 77.08 239.67 76.1 240.29 74.67 241.32 77.08"/>
          </g>
          <g class="cls-26">
            <rect class="cls-6" x="156.13" y="32.32" width="81.91" height="79.46"/>
          </g>
          <g class="cls-7">
            <rect class="cls-6" x="156.13" y="32.32" width="81.91" height="79.46"/>
          </g>
          <g class="cls-8">
            <rect class="cls-6" x="156.13" y="32.32" width="81.91" height="79.46"/>
          </g>
          <path class="cls-28" d="M190.1,133.56l-3.82-8.95c4.22,3.51,8.97,6.05,14.27,7.66l-10.43,1.27-.02.02Z"/>
          <path class="cls-28" d="M230.4,75.2s-.04-.02-.07-.02c-.56-.29-1.09-.54-1.63-.76l-.85-.36-4.69-2.01,4.69-2.01.85-.36c.54-.22,1.07-.49,1.63-.76.02,0,.04-.02.07-.04l.58.25c.2.09.4.16.6.25.22.07.56.2,1.05.42,1,.42,1.85.58,2.55.47.67-.11,1.59-.51,2.7-1.23l1.29,3.01-1.29,3.01c-1.12-.69-2.03-1.12-2.7-1.21-.69-.11-1.54.04-2.55.47-.49.2-.85.33-1.05.42-.2.07-.4.13-.6.22l-.58.25v-.02Z"/>
        </g>
      </g>
      <text class="cls-4" transform="translate(11.57 130.57)"><tspan class="cls-19" x="0" y="0">h</tspan><tspan x="5.51" y="0">ttps://tial</tspan><tspan class="cls-21" x="43.54" y="0">l</tspan><tspan x="45.8" y="0">.</tspan><tspan class="cls-16" x="47.87" y="0">g</tspan><tspan x="53.4" y="0">ithu</tspan><tspan class="cls-13" x="70.11" y="0">b</tspan><tspan x="75.56" y="0">.io/</tspan><tspan class="cls-12" x="88.89" y="0">P</tspan><tspan class="cls-10" x="93.96" y="0">ersonal-</tspan><tspan class="cls-12" x="127.49" y="0">P</tspan><tspan x="132.56" y="0">o</tspan><tspan class="cls-25" x="138.05" y="0">r</tspan><tspan x="141.56" y="0">t</tspan><tspan class="cls-14" x="144.87" y="0">f</tspan><tspan x="147.66" y="0">olio/</tspan></text>
      <text class="cls-2" transform="translate(10.98 28.56)"><tspan class="cls-15" x="0" y="0">L</tspan><tspan x="13.3" y="0">u</tspan><tspan class="cls-30" x="26.11" y="0">k</tspan><tspan x="37.97" y="0">e </tspan><tspan class="cls-27" x="53.93" y="0">L</tspan><tspan x="67.87" y="0">anni</tspan><tspan class="cls-22" x="111.67" y="0">n</tspan><tspan x="124.73" y="0">g</tspan></text>
      <text class="cls-4" transform="translate(12.19 91.36)"><tspan x="0" y="0">+1 515-478-0721</tspan></text>
      <text class="cls-3" transform="translate(12.19 39.51)"><tspan class="cls-29" x="0" y="0">S</tspan><tspan class="cls-11" x="4.49" y="0">o</tspan><tspan class="cls-31" x="9.43" y="0">f</tspan><tspan class="cls-32" x="12.16" y="0">t</tspan><tspan class="cls-18" x="15.22" y="0">w</tspan><tspan x="21.81" y="0">a</tspan><tspan class="cls-23" x="26.14" y="0">r</tspan><tspan x="29" y="0">e En</tspan><tspan class="cls-17" x="44.84" y="0">g</tspan><tspan x="49.81" y="0">ineer</tspan></text>
      <text class="cls-4" transform="translate(11.57 110.97)"><tspan x="0" y="0">luke@lanning</tspan><tspan class="cls-20" x="56.7" y="0">s</tspan><tspan x="60.55" y="0">.o</tspan><tspan class="cls-24" x="68.11" y="0">r</tspan><tspan x="71.3" y="0">g</tspan></text>
    </g>
  </g>
</svg>