<?xml version="1.0" encoding="UTF-8"?>
<svg id="Layer_2" data-name="Layer 2" xmlns="http://www.w3.org/2000/svg" viewBox="0 0 144 252">
  <defs>
    <style>
      .cls-1 {
        fill: #231f20;
      }

      .cls-2 {
        font-family: Galvji, Galvji;
        font-size: 9px;
      }

      .cls-2, .cls-3, .cls-4 {
        fill: #fff;
      }

      .cls-5 {
        letter-spacing: 0em;
      }

      .cls-4 {
        font-family: MinionVariableConcept-Roman, 'Minion Variable Concept';
        font-size: 20px;
        font-variation-settings: 'wght' 400, 'opsz' 11;
      }

      .cls-6 {
        letter-spacing: -.01em;
      }

      .cls-7 {
        letter-spacing: 0em;
      }

      .cls-8 {
        letter-spacing: .01em;
      }

      .cls-9 {
        letter-spacing: 0em;
      }
    </style>
  </defs>
  <g id="Layer_1-2" data-name="Layer 1">
    <g>
      <rect class="cls-1" width="144" height="252"/>
      <g>
        <text class="cls-4" transform="translate(16.06 104.35)"><tspan class="cls-6" x="0" y="0">L</tspan><tspan class="cls-5" x="11.08" y="0">u</tspan><tspan class="cls-9" x="21.76" y="0">k</tspan><tspan x="31.64" y="0">e </tspan><tspan class="cls-8" x="44.94" y="0">L</tspan><tspan x="56.56" y="0">anni</tspan><tspan class="cls-7" x="93.06" y="0">n</tspan><tspan x="103.94" y="0">g</tspan></text>
        <text class="cls-2" transform="translate(31.68 114.97)"><tspan x="0" y="0">Software Engineer</tspan></text>
      </g>
      <g>
        <path class="cls-3" d="M11.85,231.76v-1.05h-.73v-.66l.77-.03.11-.91h.71v.91h1.22v.69h-1.22v1.04c0,.45.19.62.61.62.22,0,.4-.05.57-.11l.16.64c-.26.08-.56.16-.95.16-.92,0-1.25-.53-1.25-1.3Z"/>
        <path class="cls-3" d="M15.95,230.7h-1.16v-.69h2.02v2.97h-.86v-2.28ZM15.77,229.01c0-.32.24-.55.57-.55s.57.23.57.55-.24.54-.57.54-.57-.21-.57-.54Z"/>
        <path class="cls-3" d="M18.18,232.16c0-.67.54-1.01,1.9-1.09-.03-.27-.23-.43-.61-.43-.28,0-.56.11-.88.28l-.31-.58c.4-.24.86-.4,1.35-.4.81,0,1.31.43,1.31,1.35v1.7h-.7l-.06-.33h-.02c-.29.23-.65.41-1.02.41-.58,0-.95-.4-.95-.9ZM20.08,232.09v-.49c-.85.04-1.08.23-1.08.49,0,.19.16.28.4.28.26,0,.48-.12.68-.28Z"/>
        <path class="cls-3" d="M22.52,231.83v-2.35h-.91v-.69h1.77v3.07c0,.37.23.49.47.49.13,0,.27-.03.45-.1l.19.65c-.3.1-.5.16-.86.16-.73,0-1.11-.48-1.11-1.24Z"/>
        <path class="cls-3" d="M26.01,231.83v-2.35h-.91v-.69h1.77v3.07c0,.37.23.49.47.49.13,0,.27-.03.45-.1l.19.65c-.3.1-.5.16-.86.16-.73,0-1.11-.48-1.11-1.24Z"/>
        <path class="cls-3" d="M29.38,232.36c0-.39.28-.7.68-.7s.68.31.68.7-.28.71-.68.71-.68-.31-.68-.71Z"/>
        <path class="cls-3" d="M32.11,233.49c0-.24.15-.44.45-.6v-.02c-.16-.1-.29-.26-.29-.51,0-.2.14-.41.35-.56v-.02c-.21-.15-.38-.42-.38-.76,0-.71.58-1.08,1.24-1.08.17,0,.33.02.47.07h1.18v.65h-.58c.07.09.13.24.13.39,0,.68-.52,1-1.19,1-.12,0-.25-.02-.4-.06-.09.06-.13.12-.13.22,0,.16.15.22.49.22h.53c.76,0,1.17.22,1.17.75,0,.62-.67,1.07-1.73,1.07-.75,0-1.31-.23-1.31-.76ZM34.32,233.33c0-.19-.18-.23-.51-.23h-.36c-.21,0-.33-.01-.44-.04-.15.09-.21.18-.21.29,0,.22.28.34.73.34s.79-.16.79-.36ZM33.9,231.02c0-.31-.2-.48-.44-.48s-.43.17-.43.48.2.5.43.5.44-.17.44-.5Z"/>
        <path class="cls-3" d="M36.92,230.7h-1.16v-.69h2.02v2.97h-.86v-2.28ZM36.74,229.01c0-.32.24-.55.57-.55s.57.23.57.55-.24.54-.57.54-.57-.21-.57-.54Z"/>
        <path class="cls-3" d="M39.81,231.76v-1.05h-.73v-.66l.77-.03.11-.91h.71v.91h1.22v.69h-1.22v1.04c0,.45.19.62.61.62.22,0,.4-.05.57-.11l.16.64c-.26.08-.56.16-.95.16-.92,0-1.25-.53-1.25-1.3Z"/>
        <path class="cls-3" d="M42.71,228.79h.86v1.02l-.05.57h.02c.21-.23.53-.44.96-.44.65,0,.94.46.94,1.21v1.84h-.86v-1.72c0-.4-.11-.57-.42-.57-.23,0-.38.11-.58.31v1.99h-.86v-4.2Z"/>
        <path class="cls-3" d="M46.15,231.85v-1.84h.86v1.72c0,.39.1.57.42.57.21,0,.36-.08.56-.34v-1.96h.86v2.97h-.7l-.06-.43h-.02c-.26.3-.56.5-.98.5-.66,0-.94-.46-.94-1.21Z"/>
        <path class="cls-3" d="M50.46,232.66h-.02l-.07.32h-.67v-4.2h.86v1.02l-.03.47h.02c.21-.21.51-.34.79-.34.72,0,1.16.59,1.16,1.51,0,1.03-.61,1.61-1.25,1.61-.27,0-.55-.14-.79-.4ZM51.63,231.46c0-.53-.17-.8-.53-.8-.18,0-.35.08-.53.28v1.2c.16.15.35.2.5.2.31,0,.57-.26.57-.88Z"/>
        <path class="cls-3" d="M53.85,232.36c0-.39.28-.7.68-.7s.68.31.68.7-.28.71-.68.71-.68-.31-.68-.71Z"/>
        <path class="cls-3" d="M57.89,230.7h-1.16v-.69h2.02v2.97h-.86v-2.28ZM57.71,229.01c0-.32.24-.55.57-.55s.57.23.57.55-.24.54-.57.54-.57-.21-.57-.54Z"/>
        <path class="cls-3" d="M60.04,231.5c0-.99.71-1.56,1.47-1.56s1.47.57,1.47,1.56-.71,1.56-1.47,1.56-1.47-.57-1.47-1.56ZM62.11,231.5c0-.52-.2-.85-.6-.85s-.6.33-.6.85.2.84.6.84.6-.33.6-.84Z"/>
        <path class="cls-3" d="M65.61,228.73h.72l-1.92,5.22h-.72l1.92-5.22Z"/>
        <path class="cls-3" d="M67.19,229.08h1.35c.82,0,1.49.31,1.49,1.26s-.68,1.33-1.49,1.33h-.49v1.33h-.86v-3.91ZM68.49,230.96c.47,0,.69-.22.69-.62s-.24-.55-.69-.55h-.44v1.18h.44Z"/>
        <path class="cls-3" d="M70.57,231.5c0-.97.73-1.56,1.5-1.56.89,0,1.36.62,1.36,1.43,0,.16-.02.32-.04.4h-2.19v-.59h1.61l-.13.17c0-.48-.2-.73-.58-.73-.42,0-.7.29-.7.89s.33.89.89.89c.26,0,.49-.07.75-.21l.28.53c-.33.22-.76.35-1.15.35-.9,0-1.6-.57-1.6-1.56Z"/>
        <path class="cls-3" d="M74.42,230.01h.71l.07.65h.02c.28-.49.71-.72,1.17-.72.25,0,.39.04.56.12l-.17.74c-.18-.06-.3-.09-.51-.09-.36,0-.73.19-.98.73v1.55h-.86v-2.97Z"/>
        <path class="cls-3" d="M77.55,232.6l.36-.55c.36.23.75.35,1.17.35.32,0,.46-.11.46-.25,0-.17-.14-.23-.71-.35-.79-.17-1.1-.47-1.1-.93,0-.55.5-.93,1.33-.93.52,0,.95.21,1.25.41l-.38.53c-.29-.18-.63-.28-.95-.28-.27,0-.4.1-.4.24,0,.17.18.2.67.32.89.21,1.14.47,1.14.95,0,.54-.5.96-1.43.96-.52,0-1.05-.21-1.41-.46Z"/>
        <path class="cls-3" d="M81.01,231.5c0-.99.71-1.56,1.47-1.56s1.47.57,1.47,1.56-.71,1.56-1.47,1.56-1.47-.57-1.47-1.56ZM83.08,231.5c0-.52-.2-.85-.6-.85s-.6.33-.6.85.2.84.6.84.6-.33.6-.84Z"/>
        <path class="cls-3" d="M84.65,230.01h.7l.06.4h.02c.25-.25.57-.47,1-.47.65,0,.94.46.94,1.21v1.84h-.86v-1.72c0-.4-.11-.57-.42-.57-.23,0-.38.11-.58.31v1.99h-.86v-2.97Z"/>
        <path class="cls-3" d="M88.09,232.16c0-.67.54-1.01,1.9-1.09-.03-.27-.22-.43-.61-.43-.28,0-.56.11-.88.28l-.31-.58c.4-.24.86-.4,1.35-.4.81,0,1.31.43,1.31,1.35v1.7h-.7l-.06-.33h-.02c-.29.23-.65.41-1.03.41-.58,0-.95-.4-.95-.9ZM89.99,232.09v-.49c-.85.04-1.08.23-1.08.49,0,.19.16.28.4.28.26,0,.48-.12.68-.28Z"/>
        <path class="cls-3" d="M92.42,231.83v-2.35h-.91v-.69h1.77v3.07c0,.37.23.49.47.49.13,0,.28-.03.45-.1l.19.65c-.3.1-.5.16-.86.16-.73,0-1.11-.48-1.11-1.24Z"/>
        <path class="cls-3" d="M95.13,230.7h2.68v.62h-2.68v-.62Z"/>
        <path class="cls-3" d="M98.65,229.08h1.35c.82,0,1.49.31,1.49,1.26s-.68,1.33-1.49,1.33h-.49v1.33h-.86v-3.91ZM99.95,230.96c.47,0,.7-.22.7-.62s-.24-.55-.7-.55h-.44v1.18h.44Z"/>
        <path class="cls-3" d="M101.98,231.5c0-.99.71-1.56,1.47-1.56s1.47.57,1.47,1.56-.71,1.56-1.47,1.56-1.47-.57-1.47-1.56ZM104.05,231.5c0-.52-.2-.85-.6-.85s-.6.33-.6.85.2.84.6.84.6-.33.6-.84Z"/>
        <path class="cls-3" d="M105.88,230.01h.71l.07.65h.02c.28-.49.71-.72,1.17-.72.25,0,.39.04.56.12l-.17.74c-.18-.06-.3-.09-.51-.09-.36,0-.73.19-.98.73v1.55h-.86v-2.97Z"/>
        <path class="cls-3" d="M109.72,231.76v-1.05h-.73v-.66l.77-.03.11-.91h.71v.91h1.22v.69h-1.22v1.04c0,.45.19.62.61.62.22,0,.4-.05.57-.11l.16.64c-.26.08-.56.16-.95.16-.92,0-1.25-.53-1.25-1.3Z"/>
        <path class="cls-3" d="M112.67,230.05l.79-.03h1.82v.69h-2.61v-.66ZM113.44,229.94c0-.68.39-1.22,1.29-1.22.33,0,.63.08.88.16l-.17.65c-.18-.07-.38-.12-.6-.12-.37,0-.54.16-.54.52v3.06h-.86v-3.05Z"/>
        <path class="cls-3" d="M115.97,231.5c0-.99.71-1.56,1.47-1.56s1.47.57,1.47,1.56-.71,1.56-1.47,1.56-1.47-.57-1.47-1.56ZM118.04,231.5c0-.52-.2-.85-.6-.85s-.6.33-.6.85.2.84.6.84.6-.33.6-.84Z"/>
        <path class="cls-3" d="M120.38,231.83v-2.35h-.91v-.69h1.77v3.07c0,.37.23.49.47.49.13,0,.28-.03.45-.1l.19.65c-.3.1-.5.16-.86.16-.73,0-1.11-.48-1.11-1.24Z"/>
        <path class="cls-3" d="M124.3,230.7h-1.17v-.69h2.02v2.97h-.86v-2.28ZM124.12,229.01c0-.32.24-.55.57-.55s.57.23.57.55-.24.54-.57.54-.57-.21-.57-.54Z"/>
        <path class="cls-3" d="M126.45,231.5c0-.99.71-1.56,1.47-1.56s1.47.57,1.47,1.56-.71,1.56-1.47,1.56-1.47-.57-1.47-1.56ZM128.52,231.5c0-.52-.2-.85-.6-.85s-.6.33-.6.85.2.84.6.84.6-.33.6-.84Z"/>
        <path class="cls-3" d="M132.02,228.73h.72l-1.92,5.22h-.72l1.92-5.22Z"/>
      </g>
      <g>
        <g>
          <path class="cls-3" d="M28.83,179.2h-1.37v-.64h1.37v-1.45h.67v1.45h1.37v.64h-1.37v1.45h-.67v-1.45Z"/>
          <path class="cls-3" d="M33.66,180.69h1.36v-3.19h-1.08v-.56c.62-.09.97-.21,1.32-.4h.65v4.15h1.19v.72h-3.43v-.72Z"/>
          <path class="cls-3" d="M45.62,180.82l.41-.57c.32.28.71.52,1.26.52.62,0,1.08-.34,1.08-.93s-.42-.9-1.04-.9c-.36,0-.57.08-.9.27l-.42-.27.15-2.4h2.87v.75h-2.1l-.1,1.17c.25-.1.47-.15.77-.15.91,0,1.67.47,1.67,1.52s-.89,1.67-1.85,1.67c-.86,0-1.4-.31-1.79-.67Z"/>
          <path class="cls-3" d="M52.02,180.69h1.36v-3.19h-1.08v-.56c.62-.09.97-.21,1.32-.4h.65v4.15h1.19v.72h-3.43v-.72Z"/>
          <path class="cls-3" d="M57.85,180.82l.41-.57c.32.28.71.52,1.26.52.62,0,1.08-.34,1.08-.93s-.42-.9-1.04-.9c-.36,0-.57.08-.9.27l-.42-.27.15-2.4h2.87v.75h-2.1l-.1,1.17c.25-.1.47-.15.77-.15.91,0,1.67.47,1.67,1.52s-.89,1.67-1.85,1.67c-.86,0-1.4-.31-1.79-.67Z"/>
          <path class="cls-3" d="M64.18,178.57h3.41v.64h-3.41v-.64Z"/>
          <path class="cls-3" d="M72.41,178.32c0-.29.03-.68.04-.97h-.04c-.16.26-.35.51-.51.77l-1.02,1.35h3.04v.69h-3.94v-.6l2.23-3.01h1.03v4.87h-.83v-3.09Z"/>
          <path class="cls-3" d="M78.95,177.29h-2.62v-.75h3.59v.54c-1.26,1.41-1.51,2.42-1.6,4.32h-.9c.09-1.73.47-2.79,1.53-4.11Z"/>
          <path class="cls-3" d="M82.44,180.16c0-.63.47-1,.98-1.24v-.03c-.41-.27-.72-.63-.72-1.14,0-.79.66-1.3,1.58-1.3s1.55.53,1.55,1.32c0,.45-.33.85-.72,1.11v.03c.52.26.93.6.93,1.27,0,.75-.65,1.32-1.8,1.32s-1.81-.55-1.81-1.33ZM85.21,180.14c0-.55-.58-.72-1.35-.99-.37.22-.65.51-.65.91,0,.48.43.8,1.05.8.58,0,.95-.27.95-.72ZM85.08,177.82c0-.42-.3-.74-.83-.74-.45,0-.77.24-.77.67,0,.49.47.7,1.12.92.32-.26.48-.54.48-.84Z"/>
          <path class="cls-3" d="M88.66,178.57h3.41v.64h-3.41v-.64Z"/>
          <path class="cls-3" d="M94.67,178.95c0-1.64.71-2.51,1.81-2.51s1.81.86,1.81,2.51-.7,2.54-1.81,2.54-1.81-.91-1.81-2.54ZM97.49,178.95c0-1.33-.43-1.81-1.01-1.81s-1.01.48-1.01,1.81.43,1.85,1.01,1.85,1.01-.52,1.01-1.85ZM95.95,178.92c0-.33.24-.54.52-.54s.53.21.53.54-.24.55-.53.55-.52-.21-.52-.55Z"/>
          <path class="cls-3" d="M103.43,177.29h-2.62v-.75h3.59v.54c-1.26,1.41-1.51,2.42-1.6,4.32h-.9c.09-1.73.47-2.79,1.53-4.11Z"/>
          <path class="cls-3" d="M106.92,180.89c1.52-1.31,2.44-2.15,2.44-2.91,0-.51-.31-.84-.93-.84-.42,0-.78.25-1.07.54l-.49-.49c.47-.48.96-.76,1.67-.76,1,0,1.66.59,1.66,1.49s-.88,1.76-2.01,2.76c.29-.03.62-.05.9-.05h1.37v.75h-3.54v-.51Z"/>
          <path class="cls-3" d="M113.21,180.69h1.36v-3.19h-1.08v-.56c.62-.09.97-.21,1.32-.4h.65v4.15h1.18v.72h-3.43v-.72Z"/>
        </g>
        <g>
          <path class="cls-3" d="M14.32,162.18h.88v4.25h2.35v.75h-3.23v-5Z"/>
          <path class="cls-3" d="M20.97,165.75v-2.33h.88v2.21c0,.6.19.88.7.88.35,0,.61-.15.94-.55v-2.53h.88v3.75h-.73l-.07-.6h-.03c-.35.41-.77.69-1.33.69-.87,0-1.26-.55-1.26-1.52Z"/>
          <path class="cls-3" d="M28.17,161.78h.88v3.38h.03l1.69-1.73h.98l-2.7,2.77v.98h-.88v-5.4ZM29.67,165.34l.52-.56,1.72,2.4h-.97l-1.27-1.84Z"/>
          <path class="cls-3" d="M34.99,165.3c0-1.22.93-1.96,1.94-1.96,1.12,0,1.74.74,1.74,1.78,0,.18-.02.35-.04.44h-3.01v-.62h2.44l-.17.2c0-.74-.35-1.12-.94-1.12-.62,0-1.1.45-1.1,1.29s.53,1.29,1.31,1.29c.39,0,.72-.12,1.05-.31l.3.55c-.4.26-.92.44-1.47.44-1.15,0-2.05-.72-2.05-1.97Z"/>
          <path class="cls-3" d="M41.86,165.26c0-2.01,1.02-2.97,2.27-2.97,1.11,0,1.61.8,1.61,1.85v2.28h-.49l-.07-.42h-.03c-.21.28-.56.51-.96.51-.55,0-.98-.43-.98-1.04,0-.8.73-1.16,1.96-1.31v-.11c0-.65-.33-1.21-1.07-1.21-.81,0-1.61.76-1.61,2.44s.78,2.46,1.69,2.46c.46,0,.75-.12,1.04-.32l.27.45c-.41.26-.82.42-1.34.42-1.22,0-2.29-1.01-2.29-3.04ZM45.09,165.54v-.83c-.88.13-1.21.34-1.21.74,0,.29.19.46.5.46.25,0,.48-.14.71-.38Z"/>
          <path class="cls-3" d="M49.51,162.18h.88v4.25h2.35v.75h-3.23v-5Z"/>
          <path class="cls-3" d="M56.17,166.17c0-.84.74-1.26,2.59-1.39-.03-.42-.28-.74-.89-.74-.42,0-.84.18-1.23.4l-.33-.58c.46-.27,1.07-.52,1.72-.52,1.04,0,1.61.58,1.61,1.62v2.22h-.73l-.07-.46h-.03c-.39.3-.9.56-1.4.56-.73,0-1.26-.45-1.26-1.1ZM58.76,166.12v-.79c-1.35.09-1.74.37-1.74.77,0,.33.29.47.66.47s.73-.18,1.07-.46Z"/>
          <path class="cls-3" d="M63.3,163.42h.72l.07.57h.03c.36-.36.78-.66,1.35-.66.87,0,1.26.55,1.26,1.52v2.33h-.88v-2.21c0-.6-.19-.88-.7-.88-.37,0-.62.18-.96.53v2.56h-.88v-3.75Z"/>
          <path class="cls-3" d="M70.33,163.42h.72l.07.57h.03c.36-.36.78-.66,1.35-.66.87,0,1.26.55,1.26,1.52v2.33h-.88v-2.21c0-.6-.19-.88-.7-.88-.37,0-.62.18-.96.53v2.56h-.88v-3.75Z"/>
          <path class="cls-3" d="M79.01,164.12h-1.62v-.7h2.51v3.75h-.88v-3.05ZM78.76,162.15c0-.35.26-.6.63-.6s.63.24.63.6-.26.59-.63.59-.63-.23-.63-.59Z"/>
          <path class="cls-3" d="M84.41,163.42h.72l.07.57h.03c.36-.36.78-.66,1.35-.66.87,0,1.26.55,1.26,1.52v2.33h-.88v-2.21c0-.6-.19-.88-.7-.88-.37,0-.62.18-.96.53v2.56h-.88v-3.75Z"/>
          <path class="cls-3" d="M91.29,167.84c0-.3.21-.58.6-.79v-.03c-.2-.12-.38-.31-.38-.63,0-.25.17-.52.45-.7v-.03c-.27-.19-.48-.53-.48-.97,0-.86.72-1.35,1.54-1.35.22,0,.42.03.59.09h1.54v.67h-.86c.13.14.24.38.24.62,0,.83-.66,1.27-1.5,1.27-.17,0-.38-.03-.57-.11-.15.1-.23.2-.23.35,0,.25.24.36.71.36h.77c.98,0,1.48.26,1.48.92,0,.74-.84,1.33-2.17,1.33-1.04,0-1.72-.33-1.72-1ZM94.32,167.66c0-.3-.26-.37-.76-.37h-.6c-.24,0-.42-.02-.57-.06-.27.15-.37.32-.37.49,0,.34.4.53,1.09.53.73,0,1.21-.28,1.21-.6ZM93.73,164.69c0-.46-.32-.74-.71-.74s-.71.28-.71.74.32.75.71.75.71-.28.71-.75Z"/>
          <path class="cls-3" d="M98.33,166.69l.39-.56c.45.3.96.48,1.57.48.52,0,.76-.2.76-.45s-.16-.38-1.04-.56c-1-.21-1.45-.56-1.45-1.14,0-.65.59-1.12,1.64-1.12.62,0,1.19.24,1.57.5l-.41.54c-.36-.23-.8-.38-1.24-.38-.49,0-.69.19-.69.42,0,.26.28.36.98.51,1.2.26,1.51.58,1.51,1.18,0,.65-.62,1.17-1.76,1.17-.7,0-1.38-.26-1.84-.58Z"/>
          <path class="cls-3" d="M106.43,166.5c0-.44.32-.78.76-.78s.76.33.76.78-.32.78-.76.78-.76-.33-.76-.78Z"/>
          <path class="cls-3" d="M112.34,165.31c0-1.25.9-1.97,1.88-1.97s1.89.72,1.89,1.97-.9,1.96-1.89,1.96-1.88-.72-1.88-1.96ZM115.2,165.31c0-.76-.37-1.25-.98-1.25s-.98.5-.98,1.25.37,1.24.98,1.24.98-.49.98-1.24Z"/>
          <path class="cls-3" d="M119.96,163.42h.73l.08.85h.02c.38-.61.95-.95,1.6-.95.3,0,.51.05.73.15l-.19.75c-.25-.08-.39-.12-.68-.12-.51,0-1.02.26-1.4.99v2.07h-.88v-3.75Z"/>
          <path class="cls-3" d="M126.48,167.84c0-.3.21-.58.6-.79v-.03c-.2-.12-.38-.31-.38-.63,0-.25.17-.52.45-.7v-.03c-.27-.19-.48-.53-.48-.97,0-.86.72-1.35,1.54-1.35.22,0,.42.03.59.09h1.54v.67h-.86c.13.14.24.38.24.62,0,.83-.66,1.27-1.5,1.27-.17,0-.38-.03-.57-.11-.15.1-.23.2-.23.35,0,.25.24.36.71.36h.77c.98,0,1.48.26,1.48.92,0,.74-.84,1.33-2.17,1.33-1.04,0-1.72-.33-1.72-1ZM129.51,167.66c0-.3-.26-.37-.76-.37h-.6c-.24,0-.42-.02-.57-.06-.27.15-.37.32-.37.49,0,.34.4.53,1.09.53.73,0,1.21-.28,1.21-.6ZM128.92,164.69c0-.46-.32-.74-.71-.74s-.71.28-.71.74.32.75.71.75.71-.28.71-.75Z"/>
        </g>
      </g>
      <g id="Layer_1-2" data-name="Layer 1-2">
        <path class="cls-3" d="M111.67,31.48l-.97.41c-.66,2.61-1.4,4.93-2.22,6.99-.8,2.05-1.7,3.85-2.69,5.39-.98,1.54-2.05,2.82-3.21,3.82-1.15,1-2.42,1.8-3.82,2.4l-.66.28c-2.63,1.13-4.67,1.29-6.12.51-.71-.39-1.35-1-1.91-1.82-.56-.82-1.18-2.01-1.84-3.58l-10.22-23.89c-.39-.91-.69-1.71-.92-2.41.1-.06.21-.12.32-.17,1.54-.73,3.42-.81,5.6-.27l.41-.97-6.62-2.83c.55-1.79,1.97-3.38,4.29-4.81l-.41-.96-5.04,2.16-3.65,1.56-3.34-1.43-5.35-2.28-.41.96c2.31,1.43,3.74,3.03,4.3,4.81l-6.63,2.83.41.97c2.19-.54,4.05-.46,5.6.27.11.05.22.11.32.17-.22.7-.52,1.51-.91,2.41l-10.23,23.89c-.67,1.57-1.29,2.76-1.84,3.58-.56.81-1.2,1.42-1.9,1.82-1.46.79-3.49.62-6.12-.51l-.66-.28c-1.39-.6-2.67-1.4-3.82-2.4-1.15-1-2.23-2.27-3.2-3.82-.98-1.54-1.88-3.34-2.7-5.39-.24-.62-.48-1.25-.71-1.92-.53-1.55-1.04-3.24-1.51-5.07l-.96-.41-.68,5.48-1.13,9.12,10.88,4.65,23.74,10.16.41-.96c-2.1-1.35-3.36-2.91-3.81-4.7-.18-.67-.16-1.55.08-2.63.36-1.68.85-3.02,1.3-3.87,1.06-2.46,2.12-4.93,3.16-7.4h11.41c1.06,2.47,2.12,4.94,3.17,7.4.46.84.95,2.18,1.29,3.87.23,1.08.25,1.96.08,2.63-.44,1.79-1.71,3.36-3.8,4.7l.41.96,34.63-14.82-1.8-14.6h0ZM33.4,45.44l.8-6.54c1,3.31,2.6,6.3,4.8,8.94l-5.61-2.4h0ZM79.06,17.71l-2.31.57h-.02c-.02-.06-.03-.11-.04-.17-.09-.51-.14-1-.11-1.46l2.48,1.07ZM75.14,13.33l-.61,1.04-.91-.39,1.51-.65ZM73.87,15.48c-.43.7-.69,1.27-.76,1.69-.08.44.03.96.3,1.6.13.31.22.52.26.66.04.13.08.25.14.37l.15.36s-.02.03-.02.05c-.18.35-.34.68-.48,1.02l-.22.53-1.26,2.94-1.26-2.94-.22-.53c-.14-.34-.3-.67-.47-1.02,0-.02-.02-.03-.03-.05l.15-.36c.06-.12.1-.25.15-.37.04-.14.13-.36.26-.66.26-.63.36-1.16.3-1.6-.08-.42-.33-.99-.77-1.69l1.89-.8,1.89.8ZM70.35,13.98l-.91.39-.61-1.04,1.52.65ZM64.9,17.71l2.49-1.07c.02.47-.02.95-.12,1.46,0,.06-.03.11-.03.17h-.02l-2.32-.57ZM60.72,51.06l-.22.53c-.14.33-.28.68-.41,1.04-.28.65-.38,1.17-.33,1.55s.35.99.85,1.82l.83,1.43-9.14-3.91,1.61-.39c.94-.22,1.57-.44,1.9-.66.33-.23.63-.66.9-1.28.14-.34.25-.56.3-.67.07-.11.12-.22.18-.36l.22-.53,11.25-26.26.59-1.39c.44.78.95,1.81,1.51,3.12.19.41.36.84.54,1.26,0,0-10.57,24.68-10.57,24.68ZM66.73,40.29c.08-.19.16-.36.24-.55,1.68-3.91,3.34-7.82,5.02-11.74,1.68,3.91,3.35,7.82,5.03,11.74.08.19.15.36.23.55h-10.51ZM82.54,57.44l.83-1.43c.51-.83.8-1.44.85-1.82.06-.38-.05-.91-.33-1.55-.13-.36-.26-.71-.41-1.04l-.23-.53-10.57-24.68c.19-.42.36-.85.54-1.26.56-1.31,1.07-2.34,1.51-3.12l.89,2.07,10.94,25.57.23.53c.05.13.11.24.17.36s.16.34.3.67c.27.63.57,1.05.91,1.28.33.22.96.45,1.9.66l1.61.39-9.14,3.91h0ZM104.96,47.84c2.2-2.65,3.8-5.63,4.81-8.94l.8,6.54-5.61,2.4Z"/>
      </g>
    </g>
  </g>
</svg>