<?xml version="1.0" encoding="UTF-8"?>
<svg id="Layer_2" data-name="Layer 2" xmlns="http://www.w3.org/2000/svg" xmlns:xlink="http://www.w3.org/1999/xlink" viewBox="0 0 252 152.8">
  <defs>
    <style>
      .cls-1 {
        fill: none;
      }

      .cls-2 {
        fill: #231f20;
      }

      .cls-3 {
        fill: url(#radial-gradient);
      }

      .cls-4 {
        font-size: 9px;
      }

      .cls-4, .cls-5 {
        font-family: MyriadPro-Regular, 'Myriad Pro';
      }

      .cls-4, .cls-5, .cls-6 {
        fill: #fff;
      }

      .cls-7 {
        clip-path: url(#clippath-1);
      }

      .cls-8 {
        clip-path: url(#clippath-2);
      }

      .cls-5 {
        font-size: 10px;
      }

      .cls-9 {
        letter-spacing: 0em;
      }

      .cls-10 {
        letter-spacing: 0em;
      }

      .cls-11 {
        opacity: .48;
      }

      .cls-12 {
        fill: #1a1717;
      }

      .cls-13 {
        letter-spacing: -.03em;
      }

      .cls-14 {
        letter-spacing: -.02em;
      }

      .cls-15 {
        letter-spacing: -.01em;
      }

      .cls-16 {
        letter-spacing: -.01em;
      }

      .cls-17 {
        letter-spacing: 0em;
      }

      .cls-18 {
        letter-spacing: 0em;
      }

      .cls-19 {
        letter-spacing: 0em;
      }

      .cls-20 {
        letter-spacing: 0em;
      }

      .cls-21 {
        letter-spacing: -.01em;
      }

      .cls-22 {
        letter-spacing: -.01em;
      }

      .cls-23 {
        letter-spacing: 0em;
      }

      .cls-24 {
        letter-spacing: 0em;
      }

      .cls-25 {
        letter-spacing: 0em;
      }

      .cls-6 {
        font-family: MinionVariableConcept-Roman, 'Minion Variable Concept';
        font-size: 24px;
        font-variation-settings: 'wght' 400, 'opsz' 11;
      }

      .cls-26 {
        letter-spacing: .02em;
      }

      .cls-27 {
        clip-path: url(#clippath);
      }

      .cls-28 {
        letter-spacing: .01em;
      }

      .cls-29 {
        fill: #7a1b2b;
      }

      .cls-30 {
        letter-spacing: 0em;
      }

      .cls-31 {
        letter-spacing: 0em;
      }

      .cls-32 {
        letter-spacing: .01em;
      }

      .cls-33 {
        letter-spacing: 0em;
      }
    </style>
    <clipPath id="clippath">
      <path class="cls-1" d="M114.28,24.36c.04,1.18-.04,2.44-.32,3.77,0,.14-.07.29-.07.43h-.04l-5.96-1.47,6.39-2.73ZM137.83,24.36c-.07,1.18.04,2.44.29,3.77,0,.14.07.29.11.43h.04l5.92-1.47-6.35-2.73Z"/>
    </clipPath>
    <radialGradient id="radial-gradient" cx="106.17" cy="175.03" fx="106.17" fy="175.03" r="64.86" gradientTransform="translate(19.91 262) scale(1 -1)" gradientUnits="userSpaceOnUse">
      <stop offset="0" stop-color="#ffcb23"/>
      <stop offset="1" stop-color="#791b2a"/>
    </radialGradient>
    <clipPath id="clippath-1">
      <path class="cls-1" d="M157.42,120.57c.14-.97-.11-2.33-.83-3.98-.32-.93-.68-1.83-1.04-2.66l-.61-1.36-27.1-63.27c.47-1.08.93-2.19,1.4-3.23,1.44-3.37,2.73-5.99,3.88-8l2.26,5.31,28.06,65.57.61,1.36c.11.32.29.61.43.9s.39.86.79,1.72c.68,1.61,1.47,2.69,2.33,3.27.83.57,2.48,1.15,4.84,1.69l4.13,1-23.43,10.01,2.12-3.66c1.33-2.12,2.05-3.7,2.19-4.67h-.04Z"/>
    </clipPath>
    <clipPath id="clippath-2">
      <path class="cls-1" d="M96.84,125.28l2.12,3.66-23.43-10.01,4.13-1c2.4-.54,4.02-1.11,4.88-1.69.83-.61,1.61-1.69,2.3-3.27.36-.86.65-1.44.79-1.72.18-.29.32-.57.47-.9l.57-1.36,28.82-67.33,1.51-3.55c1.11,1.97,2.4,4.63,3.84,8,.47,1.08.93,2.15,1.4,3.23l-27.1,63.27-.57,1.36c-.36.83-.72,1.76-1.08,2.66-.72,1.65-.97,2.98-.83,3.98s.9,2.55,2.19,4.67Z"/>
    </clipPath>
  </defs>
  <g id="Layer_1-2" data-name="Layer 1">
    <g>
      <rect class="cls-12" width="252" height="144"/>
      <g class="cls-11">
        <g id="Layer_1-2" data-name="Layer 1-2">
          <g>
            <path class="cls-29" d="M47.6,105v6.78l-27.92-11.95,2.91-23.36h8.07c.61,1.69,1.22,3.34,1.83,4.92,2.08,5.24,4.38,9.87,6.93,13.82,2.51,3.95,5.24,7.21,8.22,9.8h-.04Z"/>
            <path class="cls-2" d="M227.8,62.4l-2.51,1.08c-1.69,6.68-3.59,12.67-5.67,17.91s-4.38,9.87-6.89,13.82c-2.51,3.95-5.24,7.21-8.22,9.8-2.94,2.55-6.21,4.63-9.8,6.14l-1.69.72c-6.75,2.91-11.99,3.34-15.68,1.33-1.83-1-3.45-2.55-4.92-4.67-1.44-2.12-3.01-5.17-4.74-9.19l-26.2-61.26c-1-2.33-1.76-4.38-2.37-6.21.25-.14.54-.32.83-.43,3.95-1.87,8.76-2.08,14.36-.68l1.08-2.51-16.98-7.25c1.4-4.56,5.06-8.68,10.98-12.35l-1.08-2.48-12.96,5.53-9.37,3.98-8.58-3.66-13.71-5.85-1.08,2.48c5.92,3.66,9.58,7.79,11.02,12.35l-16.98,7.25,1.08,2.51c5.63-1.4,10.41-1.18,14.36.68.29.11.54.29.83.43-.57,1.79-1.36,3.84-2.33,6.21l-26.23,61.26c-1.72,4.02-3.3,7.07-4.74,9.19-1.44,2.08-3.09,3.66-4.88,4.67-3.73,2.01-8.97,1.58-15.68-1.33l-1.69-.72c-3.55-1.54-6.85-3.59-9.8-6.14s-5.71-5.81-8.22-9.8c-2.51-3.95-4.81-8.58-6.93-13.82-.61-1.58-1.22-3.23-1.83-4.92-1.36-3.98-2.66-8.29-3.84-12.99l-2.48-1.08-1.76,14.07-2.91,23.36,27.92,11.95,60.9,26.05,1.08-2.48c-5.38-3.45-8.61-7.46-9.76-12.06-.47-1.72-.39-3.98.18-6.75.9-4.31,2.19-7.75,3.34-9.91,2.69-6.32,5.42-12.67,8.11-18.98h29.25c2.69,6.35,5.42,12.67,8.15,18.98,1.18,2.15,2.4,5.6,3.34,9.91.61,2.76.65,5.02.18,6.75-1.11,4.59-4.38,8.61-9.73,12.06l1.04,2.48,88.79-38.01-4.63-37.43h.04ZM27.11,98.18l2.08-16.76c2.55,8.51,6.68,16.15,12.31,22.93l-14.39-6.14v-.04ZM144.21,27.09l-5.92,1.47h-.04s-.07-.29-.11-.43c-.25-1.33-.36-2.55-.29-3.77l6.35,2.73ZM134.16,15.85l-1.54,2.66-2.33-1,3.88-1.65ZM130.9,21.38c-1.11,1.79-1.79,3.27-1.94,4.34-.18,1.11.07,2.48.75,4.09.32.79.54,1.36.68,1.69.11.32.22.65.36.97l.39.93s-.04.07-.04.11c-.47.9-.86,1.76-1.22,2.62l-.57,1.36-3.23,7.54-3.23-7.54-.57-1.36c-.36-.86-.79-1.72-1.22-2.62,0-.04-.04-.07-.07-.11l.39-.93c.14-.32.25-.65.39-.97.11-.36.32-.9.68-1.69.68-1.61.93-2.98.75-4.09-.18-1.08-.83-2.55-1.97-4.34l4.84-2.08,4.84,2.08h-.04ZM121.85,17.5l-2.33,1-1.54-2.66,3.91,1.65h-.04ZM107.89,27.09l6.39-2.73c.04,1.18-.04,2.44-.32,3.77,0,.14-.07.29-.07.43h-.04l-5.96-1.47ZM97.16,112.57l-.57,1.36c-.36.83-.72,1.76-1.08,2.66-.72,1.65-.97,2.98-.83,3.98s.9,2.55,2.19,4.67l2.12,3.66-23.43-10.01,4.13-1c2.4-.54,4.02-1.11,4.88-1.69.83-.61,1.61-1.69,2.3-3.27.36-.86.65-1.44.79-1.72.18-.29.32-.57.47-.9l.57-1.36,28.82-67.33,1.51-3.55c1.11,1.97,2.4,4.63,3.84,8,.47,1.08.93,2.15,1.4,3.23,0,0-27.1,63.27-27.1,63.27ZM112.56,84.97c.22-.47.39-.93.61-1.4,4.27-10.01,8.58-20.06,12.85-30.07,4.27,10.01,8.58,20.06,12.88,30.07.22.47.39.93.61,1.4,0,0-26.95,0-26.95,0ZM153.11,128.94l2.12-3.66c1.33-2.12,2.05-3.7,2.19-4.67s-.11-2.33-.83-3.98c-.32-.93-.68-1.83-1.04-2.66l-.61-1.36-27.1-63.27c.47-1.08.93-2.19,1.4-3.23,1.44-3.37,2.73-5.99,3.88-8l2.26,5.31,28.06,65.57.61,1.36c.11.32.29.61.43.9s.39.86.79,1.72c.68,1.61,1.47,2.69,2.33,3.27.83.57,2.48,1.15,4.84,1.69l4.13,1-23.43,10.01h-.04ZM210.61,104.32c5.63-6.78,9.73-14.43,12.31-22.93l2.05,16.76-14.39,6.14.04.04Z"/>
            <g>
              <polygon class="cls-29" points="121.85 17.5 119.52 18.51 117.94 15.85 121.85 17.5"/>
              <polygon class="cls-29" points="134.16 15.85 132.59 18.51 130.29 17.5 134.16 15.85"/>
            </g>
            <g class="cls-27">
              <rect class="cls-3" x="62.21" y="21.13" width="127.73" height="131.67"/>
            </g>
            <g class="cls-7">
              <rect class="cls-3" x="62.21" y="21.13" width="127.73" height="131.67"/>
            </g>
            <g class="cls-8">
              <rect class="cls-3" x="62.21" y="21.13" width="127.73" height="131.67"/>
            </g>
            <path class="cls-29" d="M224.96,98.18l-14.39,6.14c5.63-6.78,9.73-14.43,12.31-22.93l2.05,16.76.04.04Z"/>
            <path class="cls-29" d="M131.15,33.4s-.04.07-.04.11c-.47.9-.86,1.76-1.22,2.62l-.57,1.36-3.23,7.54-3.23-7.54-.57-1.36c-.36-.86-.79-1.72-1.22-2.62,0-.04-.04-.07-.07-.11l.39-.93c.14-.32.25-.65.39-.97.11-.36.32-.9.68-1.69.68-1.61.93-2.98.75-4.09-.18-1.08-.83-2.55-1.97-4.34l4.84-2.08,4.84,2.08c-1.11,1.79-1.79,3.27-1.94,4.34-.18,1.11.07,2.48.75,4.09.32.79.54,1.36.68,1.69.11.32.22.65.36.97l.39.93h-.04Z"/>
          </g>
        </g>
      </g>
      <text class="cls-5" transform="translate(12.57 120.57)"><tspan class="cls-20" x="0" y="0">h</tspan><tspan x="5.51" y="0">ttps://tial</tspan><tspan class="cls-22" x="43.54" y="0">l</tspan><tspan x="45.8" y="0">.</tspan><tspan class="cls-17" x="47.87" y="0">g</tspan><tspan x="53.4" y="0">ithu</tspan><tspan class="cls-14" x="70.11" y="0">b</tspan><tspan x="75.56" y="0">.io/</tspan><tspan class="cls-13" x="88.89" y="0">P</tspan><tspan class="cls-9" x="93.96" y="0">ersonal-</tspan><tspan class="cls-13" x="127.49" y="0">P</tspan><tspan x="132.56" y="0">o</tspan><tspan class="cls-26" x="138.05" y="0">r</tspan><tspan x="141.56" y="0">t</tspan><tspan class="cls-15" x="144.87" y="0">f</tspan><tspan x="147.66" y="0">olio/</tspan></text>
      <text class="cls-6" transform="translate(11.98 38.56)"><tspan class="cls-16" x="0" y="0">L</tspan><tspan x="13.3" y="0">u</tspan><tspan class="cls-31" x="26.11" y="0">k</tspan><tspan x="37.97" y="0">e </tspan><tspan class="cls-28" x="53.93" y="0">L</tspan><tspan x="67.87" y="0">anni</tspan><tspan class="cls-23" x="111.67" y="0">n</tspan><tspan x="124.73" y="0">g</tspan></text>
      <text class="cls-5" transform="translate(13.19 81.36)"><tspan x="0" y="0">+1 515-478-0721</tspan></text>
      <text class="cls-4" transform="translate(13.19 49.51)"><tspan class="cls-30" x="0" y="0">S</tspan><tspan class="cls-10" x="4.49" y="0">o</tspan><tspan class="cls-32" x="9.43" y="0">f</tspan><tspan class="cls-33" x="12.16" y="0">t</tspan><tspan class="cls-19" x="15.22" y="0">w</tspan><tspan x="21.81" y="0">a</tspan><tspan class="cls-24" x="26.14" y="0">r</tspan><tspan x="29" y="0">e En</tspan><tspan class="cls-18" x="44.84" y="0">g</tspan><tspan x="49.81" y="0">ineer</tspan></text>
      <text class="cls-5" transform="translate(12.57 100.97)"><tspan x="0" y="0">luke@lanning</tspan><tspan class="cls-21" x="56.7" y="0">s</tspan><tspan x="60.55" y="0">.o</tspan><tspan class="cls-25" x="68.11" y="0">r</tspan><tspan x="71.3" y="0">g</tspan></text>
    </g>
  </g>
</svg>