<?xml version="1.0" encoding="UTF-8"?>
<svg id="Layer_2" data-name="Layer 2" xmlns="http://www.w3.org/2000/svg" viewBox="0 0 262.85 152.62">
  <defs>
    <style>
      .cls-1, .cls-2, .cls-3 {
        fill: #231f20;
      }

      .cls-2 {
        font-family: MyriadPro-Regular, 'Myriad Pro';
        font-size: 9px;
      }

      .cls-4 {
        fill: #fff;
      }

      .cls-5 {
        fill: #706466;
      }

      .cls-6 {
        letter-spacing: 0em;
      }

      .cls-7 {
        letter-spacing: 0em;
      }

      .cls-8 {
        fill: #3d3637;
      }

      .cls-9 {
        letter-spacing: -.03em;
      }

      .cls-10 {
        letter-spacing: -.02em;
      }

      .cls-11 {
        letter-spacing: -.01em;
      }

      .cls-12 {
        letter-spacing: -.01em;
      }

      .cls-13 {
        letter-spacing: 0em;
      }

      .cls-14 {
        letter-spacing: 0em;
      }

      .cls-15 {
        letter-spacing: -.01em;
      }

      .cls-16 {
        letter-spacing: 0em;
      }

      .cls-17 {
        letter-spacing: 0em;
      }

      .cls-18 {
        letter-spacing: 0em;
      }

      .cls-3 {
        font-family: MinionVariableConcept-Roman, 'Minion Variable Concept';
        font-size: 24px;
        font-variation-settings: 'wght' 400, 'opsz' 11;
      }

      .cls-19 {
        fill: #574d4f;
      }

      .cls-20 {
        letter-spacing: .02em;
      }

      .cls-21 {
        letter-spacing: .01em;
      }

      .cls-22 {
        letter-spacing: 0em;
      }

      .cls-23 {
        letter-spacing: 0em;
      }

      .cls-24 {
        letter-spacing: .01em;
      }

      .cls-25 {
        letter-spacing: 0em;
      }
    </style>
  </defs>
  <g id="Layer_1-2" data-name="Layer 1">
    <g>
      <rect class="cls-5" width="262.85" height="152.62"/>
      <rect class="cls-19" y="68.58" width="262.85" height="12.31"/>
      <circle class="cls-19" cx="61.56" cy="75.71" r="51.9"/>
      <rect class="cls-8" y="72.56" width="262.85" height="4.34"/>
      <circle class="cls-8" cx="61.56" cy="75.71" r="47.99"/>
      <circle class="cls-1" cx="61.56" cy="75.71" r="44.21"/>
      <g>
        <text class="cls-3" transform="translate(113.15 40.27)"><tspan class="cls-12" x="0" y="0">L</tspan><tspan x="13.3" y="0">u</tspan><tspan class="cls-23" x="26.11" y="0">k</tspan><tspan x="37.97" y="0">e </tspan><tspan class="cls-21" x="53.93" y="0">L</tspan><tspan x="67.87" y="0">anni</tspan><tspan class="cls-16" x="111.67" y="0">n</tspan><tspan x="124.73" y="0">g</tspan></text>
        <text class="cls-2" transform="translate(180.25 54.22)"><tspan class="cls-22" x="0" y="0">S</tspan><tspan class="cls-7" x="4.49" y="0">o</tspan><tspan class="cls-24" x="9.43" y="0">f</tspan><tspan class="cls-25" x="12.16" y="0">t</tspan><tspan class="cls-14" x="15.22" y="0">w</tspan><tspan x="21.81" y="0">a</tspan><tspan class="cls-17" x="26.14" y="0">r</tspan><tspan x="29" y="0">e En</tspan><tspan class="cls-13" x="44.84" y="0">g</tspan><tspan x="49.81" y="0">ineer</tspan></text>
      </g>
      <g>
        <text class="cls-2" transform="translate(99.01 133.03)"><tspan class="cls-14" x="0" y="0">h</tspan><tspan x="4.96" y="0">ttps://tial</tspan><tspan class="cls-17" x="39.19" y="0">l</tspan><tspan x="41.22" y="0">.</tspan><tspan class="cls-13" x="43.08" y="0">g</tspan><tspan x="48.06" y="0">ithu</tspan><tspan class="cls-10" x="63.1" y="0">b</tspan><tspan class="cls-7" x="68" y="0">.io/</tspan><tspan class="cls-9" x="80" y="0">P</tspan><tspan x="84.56" y="0">ersonal-</tspan><tspan class="cls-9" x="114.74" y="0">P</tspan><tspan x="119.3" y="0">o</tspan><tspan class="cls-20" x="124.24" y="0">r</tspan><tspan class="cls-6" x="127.4" y="0">t</tspan><tspan class="cls-11" x="130.38" y="0">f</tspan><tspan x="132.89" y="0">olio/</tspan></text>
        <text class="cls-2" transform="translate(186.91 103.08)"><tspan x="0" y="0">+1 515-478-0721</tspan></text>
        <text class="cls-2" transform="translate(179.93 119.92)"><tspan x="0" y="0">luke@lanning</tspan><tspan class="cls-15" x="51.03" y="0">s</tspan><tspan class="cls-7" x="54.49" y="0">.o</tspan><tspan class="cls-18" x="61.3" y="0">r</tspan><tspan x="64.17" y="0">g</tspan></text>
      </g>
      <g id="Layer_1-2" data-name="Layer 1-2">
        <path class="cls-4" d="M94.12,72.63l-.8.34c-.54,2.14-1.15,4.05-1.82,5.74-.66,1.68-1.4,3.16-2.21,4.42-.81,1.26-1.68,2.31-2.63,3.13-.94.82-1.99,1.48-3.14,1.97l-.54.23c-2.16.92-3.83,1.06-5.02.42-.58-.32-1.1-.82-1.57-1.49-.46-.67-.97-1.65-1.51-2.94l-8.39-19.61c-.32-.75-.56-1.4-.76-1.98.08-.05.17-.1.26-.14,1.26-.6,2.81-.67,4.6-.22l.34-.8-5.43-2.33c.45-1.47,1.62-2.78,3.52-3.95l-.34-.79-4.14,1.77-2.99,1.28-2.74-1.17-4.39-1.88-.34.79c1.9,1.17,3.07,2.49,3.53,3.95l-5.44,2.33.34.8c1.8-.44,3.33-.38,4.6.22.09.04.18.09.26.14-.18.58-.43,1.24-.75,1.98l-8.4,19.61c-.55,1.29-1.06,2.26-1.51,2.94-.46.67-.99,1.17-1.56,1.49-1.19.65-2.87.51-5.02-.42l-.54-.23c-1.14-.49-2.19-1.15-3.14-1.97-.94-.82-1.83-1.86-2.63-3.13-.81-1.26-1.54-2.74-2.22-4.42-.19-.51-.4-1.03-.58-1.58-.44-1.27-.85-2.66-1.24-4.16l-.79-.34-.56,4.5-.92,7.49,8.93,3.82,19.49,8.34.34-.79c-1.72-1.1-2.76-2.39-3.13-3.86-.15-.55-.13-1.27.06-2.16.29-1.38.69-2.48,1.07-3.17.87-2.02,1.74-4.05,2.6-6.08h9.36c.87,2.03,1.74,4.06,2.6,6.08.38.69.78,1.79,1.06,3.17.19.89.21,1.61.06,2.16-.36,1.47-1.4,2.76-3.12,3.86l.33.79,28.43-12.16-1.48-11.99h0ZM29.87,84.09l.66-5.37c.82,2.72,2.13,5.17,3.94,7.34l-4.61-1.97h0ZM67.35,61.32l-1.9.47h-.01s-.03-.09-.03-.14c-.08-.42-.11-.82-.09-1.2l2.04.88ZM64.14,57.73l-.5.85-.74-.32,1.24-.53ZM63.1,59.5c-.35.58-.57,1.04-.63,1.39-.06.36.02.79.24,1.31.1.26.18.43.22.54.03.1.07.21.12.31l.13.3s-.01.03-.01.04c-.15.28-.28.56-.4.83l-.18.44-1.03,2.42-1.03-2.42-.18-.44c-.12-.28-.25-.55-.39-.83,0-.01-.01-.03-.02-.04l.13-.3c.05-.1.08-.2.13-.31.03-.11.1-.29.22-.54.22-.52.3-.95.24-1.31-.06-.35-.27-.81-.63-1.39l1.55-.66,1.55.66ZM60.2,58.26l-.75.32-.5-.85,1.25.53ZM55.73,61.32l2.04-.88c.01.38-.01.78-.1,1.2,0,.05-.02.09-.03.14h-.01s-1.9-.47-1.9-.47ZM52.3,88.7l-.18.44c-.12.27-.23.56-.34.85-.23.53-.31.96-.27,1.27s.28.81.69,1.49l.68,1.17-7.5-3.21,1.32-.32c.77-.18,1.29-.36,1.56-.54.27-.19.52-.54.74-1.05.12-.28.2-.46.25-.55.06-.09.1-.18.15-.29l.18-.44,9.23-21.55.49-1.14c.36.64.78,1.49,1.24,2.56.15.34.3.69.44,1.03,0,0-8.68,20.26-8.68,20.26ZM57.23,79.86c.06-.15.13-.3.19-.45,1.38-3.21,2.74-6.42,4.12-9.63,1.38,3.21,2.75,6.42,4.13,9.63.06.15.13.3.19.45h-8.63ZM70.21,93.94l.68-1.17c.42-.68.65-1.18.69-1.49.05-.31-.04-.74-.27-1.27-.1-.3-.22-.58-.33-.85l-.19-.44-8.68-20.26c.15-.35.3-.69.44-1.03.46-1.08.88-1.92,1.24-2.56l.73,1.7,8.98,20.99.19.44c.04.1.09.19.14.29s.13.28.25.55c.22.51.47.86.74,1.05.27.18.78.37,1.56.54l1.32.32-7.5,3.21h0ZM88.62,86.06c1.81-2.17,3.12-4.62,3.95-7.34l.66,5.37-4.61,1.97Z"/>
      </g>
    </g>
  </g>
</svg>