<?xml version="1.0" encoding="UTF-8"?>
<svg id="Layer_2" data-name="Layer 2" xmlns="http://www.w3.org/2000/svg" viewBox="0 0 99.37 73.06">
  <defs>
    <style>
      .cls-1 {
        fill: #fff;
        stroke: #231f20;
        stroke-miterlimit: 10;
        stroke-width: 5px;
      }
    </style>
  </defs>
  <g id="Layer_1-2" data-name="Layer 1">
    <g>
      <path class="cls-1" d="M9.25,4.15v38.54c2.87,1,12.23,3.87,22.96,0,14.46-5.22,19.73-18.47,20.5-20.5.65,1.76,5.48,14.3,18.81,18.81,8.62,2.92,16.14.9,18.9,0V2.5h6.13c.1,16.95.2,33.89.31,50.84h-26.94c1.92,5.74,3.83,11.48,5.75,17.22h-11.51c-.9-10.93-6.32-17.92-10.03-17.69-3.62.22-7.92,7.46-7.98,17.69h-13.12c1.91-5.74,3.83-11.48,5.74-17.22H3.46c-.3-16.37-.61-32.75-.91-49.12,2.23-.02,4.47-.05,6.7-.07Z"/>
      <circle class="cls-1" cx="54.41" cy="42.83" r="3.8"/>
    </g>
  </g>
</svg>