<?xml version="1.0" encoding="UTF-8"?>
<svg id="Layer_2" data-name="Layer 2" xmlns="http://www.w3.org/2000/svg" viewBox="0 0 100.96 74.21">
  <defs>
    <style>
      .cls-1 {
        fill: #fff;
        stroke: #231f20;
        stroke-miterlimit: 10;
        stroke-width: 5px;
      }
    </style>
  </defs>
  <g id="Layer_1-2" data-name="Layer 1">
    <g>
      <path class="cls-1" d="M9.36,4.18v39.2c10.23.02,20.46.04,30.7.05,4.5-6.97,9-13.94,13.5-20.9,4.34,6.4,8.68,12.81,13.02,19.21,8.44-.03,16.88-.06,25.33-.08V2.5h6.23c.1,17.23.21,34.47.31,51.7h-27.4c1.95,5.84,3.9,11.67,5.85,17.51h-11.7c-.92-11.12-6.43-18.22-10.2-17.99-3.68.23-8.05,7.58-8.12,17.99h-13.34c1.95-5.84,3.89-11.67,5.84-17.51H3.47c-.31-16.65-.62-33.3-.93-49.95,2.27-.02,4.54-.05,6.81-.07Z"/>
      <circle class="cls-1" cx="54.36" cy="40.97" r="3.86"/>
    </g>
  </g>
</svg>