<?xml version="1.0" encoding="UTF-8"?>
<svg id="Layer_2" data-name="Layer 2" xmlns="http://www.w3.org/2000/svg" viewBox="0 0 74.47 63.96">
  <defs>
    <style>
      .cls-1 {
        fill: #231f20;
      }
    </style>
  </defs>
  <g id="Layer_1-2" data-name="Layer 1">
    <g>
      <path class="cls-1" d="M0,2.41c.11,11.89.21,23.77.32,35.66.01,1.25,1.14,2.63,2.5,2.5,3.77-.37,7.55-.74,11.32-1.11,1.81-.18,3.61-.35,5.42-.53s3.89-.2,5.75-.57c2.05-.41,2.59-2.86,3.37-4.54s1.57-3.42,2.36-5.13c1.57-3.42,3.15-6.84,4.72-10.26l-2.16,1.24c2.13,0,4.27.02,6.4.02l-2.16-1.24c2.87,6.45,5.73,12.91,8.6,19.36.37.84,1.34,1.16,2.16,1.24,7.63.76,15.3,1.05,22.97.87,1.4-.03,2.44-1.12,2.5-2.5.49-10.92.51-21.86.07-32.79-.13-3.21-5.13-3.22-5,0,.44,10.93.42,21.86-.07,32.79l2.5-2.5c-7.67.18-15.34-.12-22.97-.87-1.93-.19-3.05,2.25-2.16,3.76,4.15,7,6.67,14.88,7.26,23l2.5-2.5c-4.01,0-8.02-.02-12.03-.02l2.16,1.24c-2.74-4.95-5.25-10.02-7.51-15.21-.71-1.62-3.62-1.65-4.32,0-2.31,5.47-5.29,10.67-8.99,15.31l1.77-.73c-3.8,0-7.61,0-11.41-.01l2.41,3.16c3.03-8.49,6.07-16.98,9.1-25.48.45-1.27-.51-2.74-1.75-3.08-1.39-.38-2.62.47-3.08,1.75-3.03,8.49-6.07,16.98-9.1,25.48-.55,1.55.89,3.16,2.41,3.16,2.81,0,5.62,0,8.43,0,1.38,0,3.33.35,4.49-.53,1.03-.78,1.84-2.22,2.6-3.27,2.98-4.11,5.45-8.57,7.42-13.25h-4.32c2.26,5.19,4.76,10.26,7.51,15.21.43.77,1.29,1.24,2.16,1.24,4.01,0,8.02.02,12.03.02,1.28,0,2.6-1.15,2.5-2.5-.65-9.01-3.33-17.75-7.94-25.53l-2.16,3.76c7.63.76,15.3,1.05,22.97.87,1.4-.03,2.44-1.12,2.5-2.5.49-10.92.51-21.86.07-32.79-.13-3.21-5.13-3.22-5,0,.44,10.93.42,21.86-.07,32.79l2.5-2.5c-7.67.18-15.34-.12-22.97-.87l2.16,1.24c-2.87-6.45-5.73-12.91-8.6-19.36-.35-.78-1.35-1.24-2.16-1.24-2.13,0-4.27-.02-6.4-.02-.81,0-1.8.46-2.16,1.24-2.88,6.25-5.75,12.5-8.63,18.74l2.16-1.24c-7.39.72-14.77,1.44-22.16,2.16l2.5,2.5c-.11-11.89-.21-23.77-.32-35.66C4.97-.8-.03-.81,0,2.41H0Z"/>
      <path class="cls-1" d="M39.05,35.84c.02-1.07.04-2.13.06-3.2.01-.34-.06-.67-.22-.96-.1-.31-.27-.58-.52-.8-.23-.24-.49-.42-.8-.52-.3-.16-.62-.23-.96-.22-.65.03-1.32.24-1.77.73s-.72,1.09-.73,1.77c-.02,1.07-.04,2.13-.06,3.2-.01.34.06.67.22.96.1.31.27.58.52.8.23.24.49.42.8.52.3.16.62.23.96.22.65-.03,1.32-.24,1.77-.73s.72-1.09.73-1.77h0Z"/>
    </g>
  </g>
</svg>