<?xml version="1.0" encoding="UTF-8"?>
<svg id="Layer_2" data-name="Layer 2" xmlns="http://www.w3.org/2000/svg" viewBox="0 0 103.74 64.21">
  <defs>
    <style>
      .cls-1 {
        fill: #231f20;
      }

      .cls-2 {
        fill: none;
        stroke: #231f20;
        stroke-linecap: square;
        stroke-miterlimit: 10;
        stroke-width: 1.3px;
      }
    </style>
  </defs>
  <g id="Layer_1-2" data-name="Layer 1">
    <g>
      <path class="cls-1" d="M66.17,10.77l-.52,1.21c-2.74-.68-5.07-.56-7,.34-1.03.46-1.9,1.16-2.62,2.12-.72.96-1.59,2.63-2.6,5-2.61,6.1-5.22,12.2-7.83,18.3-1.61,3.75-3.21,7.51-4.82,11.26-.57,1.05-1.18,2.72-1.63,4.83-.29,1.35-.31,2.45-.09,3.29.55,2.24,2.14,4.2,4.75,5.88l-.52,1.21L0,45.68l2.26-18.26,1.21.52c.83,3.26,1.75,6.17,2.77,8.74,1.02,2.57,2.14,4.81,3.37,6.74,1.23,1.93,2.56,3.52,4,4.77,1.44,1.25,3.04,2.25,4.79,3l.82.35c3.29,1.41,5.84,1.62,7.65.63.89-.49,1.68-1.24,2.38-2.27.7-1.03,1.47-2.52,2.31-4.48l12.79-29.87c.86-2.01,1.41-3.63,1.64-4.86.23-1.23.2-2.35-.1-3.38-.67-2.26-2.47-4.3-5.4-6.11L41,0l25.17,10.77ZM37.63,58.08c-.63-1.04-.99-1.8-1.06-2.28-.07-.48.06-1.12.41-1.93.16-.45.34-.89.51-1.31l.28-.67,15.67-36.6.28-.67c.18-.42.38-.84.59-1.28.36-.83.73-1.38,1.12-1.65.39-.26,1.18-.53,2.38-.79l2.9-.71-12.8-5.48,1.53,2.6c.59.93.93,1.67,1.02,2.22.09.55-.03,1.21-.37,2-.17.39-.28.67-.33.83s-.11.32-.18.48l-.28.67-15.67,36.6-.28.67c-.07.16-.14.3-.21.44s-.2.42-.38.83c-.34.78-.71,1.32-1.13,1.6s-1.21.56-2.37.84l-2.01.48,11.43,4.89-1.04-1.79ZM10.64,47.87c-2.75-3.31-4.75-7.04-6-11.19l-1,8.19,7.01,3Z"/>
      <path class="cls-1" d="M62.74,0l.52,1.21c-2.93,1.81-4.73,3.85-5.4,6.11-.3,1.03-.34,2.15-.1,3.38.23,1.23.78,2.85,1.64,4.86l12.79,29.87c.84,1.96,1.61,3.45,2.31,4.48.7,1.03,1.5,1.78,2.38,2.27,1.81.98,4.36.77,7.65-.63l.82-.35c1.75-.75,3.34-1.75,4.79-3,1.44-1.25,2.78-2.84,4-4.77,1.23-1.93,2.35-4.18,3.37-6.74,1.02-2.57,1.94-5.48,2.77-8.74l1.21-.52,2.26,18.26-43.3,18.53-.52-1.21c2.62-1.68,4.2-3.64,4.75-5.88.23-.84.2-1.93-.09-3.29-.44-2.11-1.06-3.78-1.63-4.83-1.61-3.75-3.21-7.51-4.82-11.26-2.61-6.1-5.22-12.2-7.83-18.3-1.02-2.37-1.89-4.04-2.6-5-.72-.96-1.59-1.66-2.62-2.12-1.93-.9-4.26-1.02-7-.34l-.52-1.21L62.74,0ZM65.07,59.87l11.43-4.89-2.01-.48c-1.17-.27-1.96-.55-2.37-.84s-.79-.82-1.13-1.6c-.18-.42-.31-.69-.38-.83s-.15-.29-.21-.44l-.28-.67-15.67-36.6-.28-.67c-.07-.16-.13-.32-.18-.48s-.16-.44-.33-.83c-.34-.78-.46-1.45-.37-2,.09-.55.43-1.29,1.02-2.22l1.53-2.6-12.8,5.48,2.9.71c1.19.26,1.99.53,2.38.79.39.27.77.82,1.12,1.65.22.43.41.86.59,1.28l.28.67,15.67,36.6.28.67c.18.42.35.85.51,1.31.35.81.48,1.45.41,1.93-.07.48-.43,1.24-1.06,2.28l-1.04,1.79ZM100.11,44.87l-1-8.19c-1.25,4.15-3.25,7.88-6,11.19l7.01-3Z"/>
      <line class="cls-2" x1="45.02" y1="39.09" x2="58.72" y2="39.09"/>
    </g>
  </g>
</svg>