<?xml version="1.0" encoding="UTF-8"?>
<svg id="Layer_2" data-name="Layer 2" xmlns="http://www.w3.org/2000/svg" viewBox="0 0 96.28 70.83">
  <defs>
    <style>
      .cls-1 {
        fill: #fff;
        stroke: #231f20;
        stroke-miterlimit: 10;
        stroke-width: 5px;
      }
    </style>
  </defs>
  <g id="Layer_1-2" data-name="Layer 1">
    <g>
      <path class="cls-1" d="M9.03,4.09v37.28c9.73.02,19.47.03,29.2.05,4.28-6.63,8.56-13.26,12.84-19.88,4.13,6.09,8.26,12.18,12.39,18.27,8.03-.03,16.06-.05,24.09-.08V2.5h5.93c.1,16.39.2,32.79.3,49.18h-26.06c1.85,5.55,3.71,11.1,5.56,16.65h-11.13c-3.23-5.7-6.47-11.41-9.7-17.11-2.57,5.7-5.15,11.41-7.72,17.11h-12.69c1.85-5.55,3.7-11.1,5.55-16.65H3.43c-.29-15.84-.59-31.68-.88-47.51,2.16-.02,4.32-.05,6.48-.07Z"/>
      <circle class="cls-1" cx="51.83" cy="39.09" r="3.68"/>
    </g>
  </g>
</svg>