<?xml version="1.0" encoding="UTF-8"?>
<svg id="Layer_2" data-name="Layer 2" xmlns="http://www.w3.org/2000/svg" xmlns:xlink="http://www.w3.org/1999/xlink" viewBox="0 0 59.28 36.69">
  <defs>
    <style>
      .cls-1 {
        fill: none;
      }

      .cls-2 {
        fill: url(#radial-gradient-2);
      }

      .cls-3 {
        fill: #231f20;
      }

      .cls-4 {
        fill: url(#radial-gradient);
      }

      .cls-5 {
        clip-path: url(#clippath-1);
      }

      .cls-6 {
        clip-path: url(#clippath-2);
      }

      .cls-7 {
        fill: #791a2a;
      }

      .cls-8 {
        clip-path: url(#clippath);
      }
    </style>
    <clipPath id="clippath">
      <path class="cls-1" d="M26.36,5.07c.01.33-.01.68-.09,1.05,0,.04-.02.08-.02.12h-.01l-1.66-.41,1.78-.76ZM32.92,5.07c-.02.33.01.68.08,1.05,0,.04.02.08.03.12h.01l1.65-.41-1.77-.76Z"/>
    </clipPath>
    <radialGradient id="radial-gradient" cx="29.64" cy="22.51" fx="29.64" fy="22.51" r="18.07" gradientUnits="userSpaceOnUse">
      <stop offset="0" stop-color="#fec922"/>
      <stop offset="1" stop-color="#791a29"/>
    </radialGradient>
    <clipPath id="clippath-1">
      <path class="cls-1" d="M38.38,31.88c.04-.27-.03-.65-.23-1.11-.09-.26-.19-.51-.29-.74l-.17-.38-7.55-17.63c.13-.3.26-.61.39-.9.4-.94.76-1.67,1.08-2.23l.63,1.48,7.82,18.27.17.38c.03.09.08.17.12.25s.11.24.22.48c.19.45.41.75.65.91.23.16.69.32,1.35.47l1.15.28-6.53,2.79.59-1.02c.37-.59.57-1.03.61-1.3Z"/>
    </clipPath>
    <clipPath id="clippath-2">
      <path class="cls-1" d="M21.5,33.19l.59,1.02-6.53-2.79,1.15-.28c.67-.15,1.12-.31,1.36-.47.23-.17.45-.47.64-.91.1-.24.18-.4.22-.48.05-.08.09-.16.13-.25l.16-.38,8.03-18.76.42-.99c.31.55.67,1.29,1.07,2.23.13.3.26.6.39.9l-7.55,17.63-.16.38c-.1.23-.2.49-.3.74-.2.46-.27.83-.23,1.11s.25.71.61,1.3Z"/>
    </clipPath>
    <radialGradient id="radial-gradient-2" cx="29.64" cy="22.51" fx="29.64" fy="22.51" r="18.07" gradientUnits="userSpaceOnUse">
      <stop offset="0" stop-color="#fec922"/>
      <stop offset="1" stop-color="#791a29"/>
    </radialGradient>
  </defs>
  <g id="Layer_1-2" data-name="Layer 1">
    <g>
      <path class="cls-7" d="M7.78,27.54v1.89l-7.78-3.33.81-6.51h2.25c.17.47.34.93.51,1.37.58,1.46,1.22,2.75,1.93,3.85.7,1.1,1.46,2.01,2.29,2.73Z"/>
      <path class="cls-3" d="M57.99,15.67l-.7.3c-.47,1.86-1,3.53-1.58,4.99-.58,1.46-1.22,2.75-1.92,3.85-.7,1.1-1.46,2.01-2.29,2.73-.82.71-1.73,1.29-2.73,1.71l-.47.2c-1.88.81-3.34.93-4.37.37-.51-.28-.96-.71-1.37-1.3-.4-.59-.84-1.44-1.32-2.56l-7.3-17.07c-.28-.65-.49-1.22-.66-1.73.07-.04.15-.09.23-.12,1.1-.52,2.44-.58,4-.19l.3-.7-4.73-2.02c.39-1.27,1.41-2.42,3.06-3.44l-.3-.69-3.61,1.54-2.61,1.11-2.39-1.02-3.82-1.63-.3.69c1.65,1.02,2.67,2.17,3.07,3.44l-4.73,2.02.3.7c1.57-.39,2.9-.33,4,.19.08.03.15.08.23.12-.16.5-.38,1.07-.65,1.73l-7.31,17.07c-.48,1.12-.92,1.97-1.32,2.56-.4.58-.86,1.02-1.36,1.3-1.04.56-2.5.44-4.37-.37l-.47-.2c-.99-.43-1.91-1-2.73-1.71s-1.59-1.62-2.29-2.73c-.7-1.1-1.34-2.39-1.93-3.85-.17-.44-.34-.9-.51-1.37-.38-1.11-.74-2.31-1.07-3.62l-.69-.3-.49,3.92-.81,6.51,7.78,3.33,16.97,7.26.3-.69c-1.5-.96-2.4-2.08-2.72-3.36-.13-.48-.11-1.11.05-1.88.25-1.2.61-2.16.93-2.76.75-1.76,1.51-3.53,2.26-5.29h8.15c.75,1.77,1.51,3.53,2.27,5.29.33.6.67,1.56.93,2.76.17.77.18,1.4.05,1.88-.31,1.28-1.22,2.4-2.71,3.36l.29.69,24.74-10.59-1.29-10.43ZM2.07,25.64l.58-4.67c.71,2.37,1.86,4.5,3.43,6.39l-4.01-1.71ZM34.7,5.83l-1.65.41h-.01s-.02-.08-.03-.12c-.07-.37-.1-.71-.08-1.05l1.77.76ZM31.9,2.7l-.43.74-.65-.28,1.08-.46ZM30.99,4.24c-.31.5-.5.91-.54,1.21-.05.31.02.69.21,1.14.09.22.15.38.19.47.03.09.06.18.1.27l.11.26s-.01.02-.01.03c-.13.25-.24.49-.34.73l-.16.38-.9,2.1-.9-2.1-.16-.38c-.1-.24-.22-.48-.34-.73,0-.01-.01-.02-.02-.03l.11-.26c.04-.09.07-.18.11-.27.03-.1.09-.25.19-.47.19-.45.26-.83.21-1.14-.05-.3-.23-.71-.55-1.21l1.35-.58,1.35.58ZM28.47,3.16l-.65.28-.43-.74,1.09.46ZM24.58,5.83l1.78-.76c.01.33-.01.68-.09,1.05,0,.04-.02.08-.02.12h-.01l-1.66-.41ZM21.59,29.65l-.16.38c-.1.23-.2.49-.3.74-.2.46-.27.83-.23,1.11s.25.71.61,1.3l.59,1.02-6.53-2.79,1.15-.28c.67-.15,1.12-.31,1.36-.47.23-.17.45-.47.64-.91.1-.24.18-.4.22-.48.05-.08.09-.16.13-.25l.16-.38,8.03-18.76.42-.99c.31.55.67,1.29,1.07,2.23.13.3.26.6.39.9l-7.55,17.63ZM25.88,21.96c.06-.13.11-.26.17-.39,1.19-2.79,2.39-5.59,3.58-8.38,1.19,2.79,2.39,5.59,3.59,8.38.06.13.11.26.17.39h-7.51ZM37.18,34.21l.59-1.02c.37-.59.57-1.03.61-1.3.04-.27-.03-.65-.23-1.11-.09-.26-.19-.51-.29-.74l-.17-.38-7.55-17.63c.13-.3.26-.61.39-.9.4-.94.76-1.67,1.08-2.23l.63,1.48,7.82,18.27.17.38c.03.09.08.17.12.25s.11.24.22.48c.19.45.41.75.65.91.23.16.69.32,1.35.47l1.15.28-6.53,2.79ZM53.2,27.35c1.57-1.89,2.71-4.02,3.43-6.39l.57,4.67-4.01,1.71Z"/>
      <g>
        <polygon class="cls-7" points="28.47 3.16 27.82 3.44 27.38 2.7 28.47 3.16"/>
        <polygon class="cls-7" points="31.9 2.7 31.46 3.44 30.82 3.16 31.9 2.7"/>
      </g>
      <g class="cls-8">
        <rect class="cls-4" x="11.85" y="4.17" width="35.59" height="36.69"/>
      </g>
      <g class="cls-5">
        <rect class="cls-4" x="11.85" y="4.17" width="35.59" height="36.69"/>
      </g>
      <g class="cls-6">
        <rect class="cls-2" x="11.85" y="4.17" width="35.59" height="36.69"/>
      </g>
      <path class="cls-7" d="M57.2,25.64l-4.01,1.71c1.57-1.89,2.71-4.02,3.43-6.39l.57,4.67Z"/>
      <path class="cls-7" d="M31.06,7.59s-.01.02-.01.03c-.13.25-.24.49-.34.73l-.16.38-.9,2.1-.9-2.1-.16-.38c-.1-.24-.22-.48-.34-.73,0-.01-.01-.02-.02-.03l.11-.26c.04-.09.07-.18.11-.27.03-.1.09-.25.19-.47.19-.45.26-.83.21-1.14-.05-.3-.23-.71-.55-1.21l1.35-.58,1.35.58c-.31.5-.5.91-.54,1.21-.05.31.02.69.21,1.14.09.22.15.38.19.47.03.09.06.18.1.27l.11.26Z"/>
    </g>
  </g>
</svg>