<?xml version="1.0" encoding="UTF-8"?>
<svg id="Layer_2" data-name="Layer 2" xmlns="http://www.w3.org/2000/svg" viewBox="0 0 99.25 72.7">
  <defs>
    <style>
      .cls-1 {
        fill: #414042;
        stroke: #231f20;
        stroke-miterlimit: 10;
        stroke-width: 1.13px;
      }
    </style>
  </defs>
  <g id="Layer_1-2" data-name="Layer 1">
    <path class="cls-1" d="M91.34,6.39h4.98c1.43,0,2.36-.76,2.36-2.2v-1.69c0-1.35-.93-1.94-2.36-1.94h-21.79c-1.44,0-2.36.59-2.36,1.94v1.69c0,1.44.93,2.2,2.36,2.2h4.98c1.1,0,1.69.42,1.69,1.52v41.54c0,1.1-.59,1.52-1.44,1.52h-6.36l-15.13-27.64c-.17-.42-.34-.76-.34-1.18,0-.34.34-.42.93-.42h5.66c1.44,0,2.36-.59,2.36-1.94v-1.69c0-1.44-.84-2.2-2.28-2.2h-29.89c-1.44,0-2.36.76-2.36,2.2v1.69c0,1.35.93,1.94,2.36,1.94h5.66c.59,0,.93.08.93.42,0,.42-.17.76-.34,1.18l-15.13,27.64h-6.36c-.84,0-1.44-.42-1.44-1.52V7.91c0-1.1.59-1.52,1.69-1.52h4.98c1.44,0,2.36-.76,2.36-2.2v-1.69c0-1.35-.93-1.94-2.36-1.94H2.93C1.49.56.56,1.15.56,2.5v1.69c0,1.44.93,2.2,2.36,2.2h4.98c1.1,0,1.69.42,1.69,1.52v41.54c0,1.1-.59,1.52-1.69,1.52H2.93c-1.44,0-2.36.76-2.36,2.2v1.69c0,1.35.93,1.94,2.36,1.94h19.72l-4.65,8.5c-.25.59-.51,1.01-1.69,1.01h-6.25c-1.44,0-2.36.76-2.36,2.2v1.69c0,1.35.93,1.94,2.36,1.94h22.12c1.44,0,2.36-.59,2.36-1.94v-1.69c0-1.44-.93-2.2-2.36-2.2h-2.7c-1.1,0-1.44-.17-1.44-.76s3.29-7.26,3.29-7.26c.39-.93.99-1.41,1.61-1.49h16.5c.06,0,.11-.01.17-.01.06,0,.11.01.17.01h16.49c.6.07,1.08.56,1.62,1.49,0,0,3.29,6.67,3.29,7.26s-.34.76-1.44.76h-2.7c-1.44,0-2.36.76-2.36,2.2v1.69c0,1.35.93,1.94,2.36,1.94h22.12c1.44,0,2.36-.59,2.36-1.94v-1.69c0-1.44-.93-2.2-2.36-2.2h-6.25c-1.18,0-1.44-.42-1.69-1.01l-4.65-8.5h19.72c1.43,0,2.36-.59,2.36-1.94v-1.69c0-1.44-.93-2.2-2.36-2.2h-4.98c-1.1,0-1.69-.42-1.69-1.52V7.91c0-1.1.59-1.52,1.69-1.52ZM36.15,48.58l12.07-23.22c.51-.93.93-1.52,1.44-1.52s.84.59,1.35,1.52l12.08,23.22c.25.51.42.84.42,1.18s-.42.51-1.01.51h-9.34c-.25-.29-.42-.63-.42-1.07v-6.16c0-1.94-1.43-2.87-3.12-2.87s-3.12.93-3.12,2.87v6.16c0,.44-.17.78-.42,1.07h-9.34c-.59,0-1.01-.17-1.01-.51s.17-.68.42-1.18Z"/>
  </g>
</svg>