<?xml version="1.0" encoding="UTF-8"?>
<svg id="Layer_2" data-name="Layer 2" xmlns="http://www.w3.org/2000/svg" viewBox="0 0 98.06 60.69">
  <defs>
    <style>
      .cls-1 {
        fill: #231f20;
      }
    </style>
  </defs>
  <g id="Layer_1-2" data-name="Layer 1">
    <path class="cls-1" d="M95.93,25.92l-1.15.49c-.78,3.08-1.65,5.83-2.62,8.26-.95,2.42-2.01,4.55-3.18,6.37-1.16,1.82-2.42,3.33-3.79,4.51-1.36,1.18-2.86,2.13-4.52,2.84l-.78.33c-3.11,1.33-5.52,1.53-7.23.6-.84-.46-1.59-1.18-2.26-2.15-.66-.97-1.39-2.38-2.18-4.23l-12.08-28.23c-.46-1.08-.81-2.02-1.09-2.85.12-.07.25-.14.38-.2,1.82-.86,4.04-.96,6.62-.32l.49-1.15-7.82-3.35c.65-2.11,2.33-4,5.07-5.69l-.49-1.14-5.96,2.55-4.31,1.84-3.95-1.69-6.32-2.7-.49,1.14c2.73,1.69,4.42,3.58,5.08,5.69l-7.83,3.35.49,1.15c2.59-.64,4.79-.54,6.62.32.13.06.26.13.38.2-.26.83-.62,1.78-1.08,2.85l-12.09,28.23c-.79,1.85-1.52,3.26-2.18,4.23-.66.96-1.42,1.68-2.25,2.15-1.72.93-4.13.73-7.23-.6l-.78-.33c-1.64-.71-3.16-1.65-4.52-2.84-1.36-1.18-2.63-2.68-3.78-4.51-1.16-1.82-2.22-3.95-3.19-6.37-.28-.73-.57-1.48-.84-2.27-.63-1.83-1.23-3.83-1.78-5.99l-1.14-.49-.8,6.48-1.33,10.78,12.86,5.5,28.06,12.01.49-1.14c-2.48-1.59-3.97-3.44-4.5-5.56-.21-.79-.19-1.83.09-3.11.42-1.98,1-3.57,1.54-4.57,1.25-2.91,2.5-5.83,3.74-8.75h13.48c1.25,2.92,2.5,5.84,3.75,8.75.54.99,1.12,2.58,1.53,4.57.27,1.28.3,2.32.09,3.11-.52,2.12-2.02,3.97-4.49,5.56l.48,1.14,40.93-17.51-2.13-17.26ZM3.43,42.41l.95-7.73c1.18,3.91,3.07,7.44,5.67,10.57l-6.63-2.84ZM57.39,9.64l-2.73.67h-.02c-.02-.07-.04-.13-.05-.2-.11-.6-.16-1.18-.13-1.73l2.93,1.26ZM52.76,4.46l-.72,1.23-1.07-.46,1.79-.77ZM51.26,7.01c-.51.83-.82,1.5-.9,2-.09.52.03,1.14.35,1.89.15.37.26.62.31.78.05.15.1.3.17.44l.18.43s-.02.04-.02.06c-.21.41-.4.8-.57,1.2l-.26.63-1.49,3.48-1.49-3.48-.26-.63c-.17-.4-.36-.79-.56-1.2,0-.02-.02-.04-.03-.06l.18-.43c.07-.14.12-.29.18-.44.05-.16.15-.42.31-.78.31-.75.43-1.37.35-1.89-.09-.5-.39-1.17-.91-2l2.23-.95,2.23.95ZM47.09,5.23l-1.08.46-.72-1.23,1.8.77ZM40.66,9.64l2.94-1.26c.02.55-.02,1.12-.14,1.73,0,.07-.03.13-.04.2h-.02l-2.74-.67ZM35.71,49.05l-.26.63c-.17.39-.33.8-.49,1.23-.33.77-.45,1.38-.39,1.83s.41,1.17,1,2.15l.98,1.69-10.8-4.62,1.9-.46c1.11-.26,1.85-.52,2.25-.78.39-.27.75-.78,1.06-1.51.17-.4.29-.66.36-.79.08-.13.14-.26.21-.42l.26-.63,13.29-31.03.7-1.64c.52.92,1.12,2.14,1.78,3.69.22.49.43.99.64,1.49l-12.49,29.17ZM42.82,36.33c.09-.22.19-.43.28-.65,1.98-4.62,3.95-9.24,5.93-13.87,1.98,4.62,3.96,9.24,5.94,13.87.09.22.18.43.27.65h-12.42ZM61.5,56.59l.98-1.69c.6-.98.94-1.7,1-2.15.07-.45-.06-1.07-.39-1.83-.15-.43-.31-.84-.48-1.23l-.27-.63-12.49-29.17c.22-.5.43-1,.64-1.49.66-1.55,1.26-2.77,1.79-3.69l1.05,2.45,12.93,30.22.27.63c.06.15.13.28.2.42s.19.4.36.79c.32.74.67,1.24,1.07,1.51.39.26,1.13.53,2.24.78l1.9.46-10.8,4.62ZM88,45.25c2.6-3.13,4.49-6.65,5.68-10.57l.95,7.73-6.63,2.84Z"/>
  </g>
</svg>