<?xml version="1.0" encoding="UTF-8"?>
<svg id="Layer_2" data-name="Layer 2" xmlns="http://www.w3.org/2000/svg" viewBox="0 0 75.58 61.09">
  <defs>
    <style>
      .cls-1 {
        fill: #231f20;
      }
    </style>
  </defs>
  <g id="Layer_1-2" data-name="Layer 1">
    <g>
      <path class="cls-1" d="M37.79,27.93c-.32,0-.62.06-.9.21-.31.1-.58.27-.8.52-.24.23-.42.49-.52.8-.16.3-.23.62-.22.96.02,1.07.04,2.13.06,3.2.01.68.28,1.27.73,1.77.42.46,1.04.67,1.64.72.61-.05,1.22-.26,1.64-.72.45-.49.72-1.09.73-1.77.02-1.07.04-2.13.06-3.2.01-.34-.06-.67-.22-.96-.1-.31-.27-.58-.52-.8-.23-.24-.49-.42-.8-.52-.28-.15-.58-.21-.9-.21Z"/>
      <path class="cls-1" d="M75.27,2.41c-.13-3.2-5.14-3.22-5,0,.41,10.09.4,20.19.01,30.27-6.16-.05-12.33-.07-18.49-.05-2.84-6.31-5.67-12.62-8.51-18.92-.35-.78-1.35-1.24-2.16-1.24-1.11,0-2.22-.01-3.33-.01s-2.22.01-3.33.01c-.81,0-1.81.46-2.16,1.24-2.83,6.3-5.67,12.61-8.51,18.92-6.16-.02-12.33,0-18.49.05-.39-10.08-.39-20.18.02-30.27C5.45-.81.45-.79.32,2.41-.13,13.34-.1,24.28.39,35.2c.06,1.34,1.1,2.52,2.5,2.5,6.13-.06,12.27-.08,18.4-.07-3.13,6.57-5,13.67-5.53,20.96-.1,1.36,1.22,2.51,2.5,2.5,4.01,0,8.02-.01,12.03-.02.86,0,1.73-.47,2.15-1.24,1.91-3.42,3.68-6.92,5.35-10.46,1.67,3.54,3.45,7.04,5.35,10.46.42.77,1.29,1.24,2.16,1.24,4.01.01,8.01.02,12.02.02,1.28.01,2.6-1.14,2.5-2.5-.52-7.29-2.4-14.39-5.53-20.96,6.13-.01,12.27.01,18.41.07,1.39.02,2.44-1.16,2.5-2.5.49-10.92.51-21.86.07-32.79ZM54.57,56.09c-2.59-.01-5.19-.01-7.78-.01-2.48-4.56-4.77-9.22-6.84-13.98-.35-.81-1.26-1.22-2.16-1.23-.9.01-1.8.42-2.16,1.23-2.07,4.76-4.36,9.42-6.84,13.98-2.59,0-5.18,0-7.78.01.85-6.93,3.09-13.63,6.54-19.7,2.84-6.31,5.68-12.62,8.52-18.93h3.45c2.83,6.31,5.67,12.62,8.51,18.93,3.46,6.07,5.7,12.77,6.54,19.7Z"/>
    </g>
  </g>
</svg>